<?xml version="1.0" encoding="utf-8" standalone="no"?>
<!DOCTYPE svg PUBLIC "-//W3C//DTD SVG 1.1//EN"
  "http://www.w3.org/Graphics/SVG/1.1/DTD/svg11.dtd">
<svg xmlns:xlink="http://www.w3.org/1999/xlink" width="596.521875pt" height="528.257812pt" viewBox="0 0 596.521875 528.257812" xmlns="http://www.w3.org/2000/svg" version="1.1">
 <metadata>
  <rdf:RDF xmlns:dc="http://purl.org/dc/elements/1.1/" xmlns:cc="http://creativecommons.org/ns#" xmlns:rdf="http://www.w3.org/1999/02/22-rdf-syntax-ns#">
   <cc:Work>
    <dc:type rdf:resource="http://purl.org/dc/dcmitype/StillImage"/>
    <dc:date>2023-08-25T15:26:08.661893</dc:date>
    <dc:format>image/svg+xml</dc:format>
    <dc:creator>
     <cc:Agent>
      <dc:title>Matplotlib v3.5.3, https://matplotlib.org/</dc:title>
     </cc:Agent>
    </dc:creator>
   </cc:Work>
  </rdf:RDF>
 </metadata>
 <defs>
  <style type="text/css">*{stroke-linejoin: round; stroke-linecap: butt}</style>
 </defs>
 <g id="figure_1">
  <g id="patch_1">
   <path d="M 0 528.257812 
L 596.521875 528.257812 
L 596.521875 0 
L 0 0 
z
" style="fill: #ffffff"/>
  </g>
  <g id="axes_1">
   <g id="patch_2">
    <path d="M 72.80625 474.140625 
L 575.00625 474.140625 
L 575.00625 30.620625 
L 72.80625 30.620625 
z
" style="fill: #ffffff"/>
   </g>
   <g id="PolyCollection_1"/>
   <g id="PolyCollection_2"/>
   <g id="PolyCollection_3"/>
   <g id="PolyCollection_4"/>
   <g id="PolyCollection_5"/>
   <g id="PolyCollection_6"/>
   <g id="PolyCollection_7"/>
   <g id="PolyCollection_8"/>
   <g id="PolyCollection_9"/>
   <g id="PolyCollection_10"/>
   <g id="matplotlib.axis_1">
    <g id="xtick_1">
     <g id="line2d_1">
      <defs>
       <path id="m9982a3ece6" d="M 0 0 
L 0 3.5 
" style="stroke: #000000; stroke-width: 0.8"/>
      </defs>
      <g>
       <use xlink:href="#m9982a3ece6" x="72.80625" y="474.140625" style="stroke: #000000; stroke-width: 0.8"/>
      </g>
     </g>
     <g id="text_1">
      <!-- 160 -->
      <g transform="translate(58.490625 492.538281)scale(0.15 -0.15)">
       <defs>
        <path id="DejaVuSans-31" d="M 794 531 
L 1825 531 
L 1825 4091 
L 703 3866 
L 703 4441 
L 1819 4666 
L 2450 4666 
L 2450 531 
L 3481 531 
L 3481 0 
L 794 0 
L 794 531 
z
" transform="scale(0.015625)"/>
        <path id="DejaVuSans-36" d="M 2113 2584 
Q 1688 2584 1439 2293 
Q 1191 2003 1191 1497 
Q 1191 994 1439 701 
Q 1688 409 2113 409 
Q 2538 409 2786 701 
Q 3034 994 3034 1497 
Q 3034 2003 2786 2293 
Q 2538 2584 2113 2584 
z
M 3366 4563 
L 3366 3988 
Q 3128 4100 2886 4159 
Q 2644 4219 2406 4219 
Q 1781 4219 1451 3797 
Q 1122 3375 1075 2522 
Q 1259 2794 1537 2939 
Q 1816 3084 2150 3084 
Q 2853 3084 3261 2657 
Q 3669 2231 3669 1497 
Q 3669 778 3244 343 
Q 2819 -91 2113 -91 
Q 1303 -91 875 529 
Q 447 1150 447 2328 
Q 447 3434 972 4092 
Q 1497 4750 2381 4750 
Q 2619 4750 2861 4703 
Q 3103 4656 3366 4563 
z
" transform="scale(0.015625)"/>
        <path id="DejaVuSans-30" d="M 2034 4250 
Q 1547 4250 1301 3770 
Q 1056 3291 1056 2328 
Q 1056 1369 1301 889 
Q 1547 409 2034 409 
Q 2525 409 2770 889 
Q 3016 1369 3016 2328 
Q 3016 3291 2770 3770 
Q 2525 4250 2034 4250 
z
M 2034 4750 
Q 2819 4750 3233 4129 
Q 3647 3509 3647 2328 
Q 3647 1150 3233 529 
Q 2819 -91 2034 -91 
Q 1250 -91 836 529 
Q 422 1150 422 2328 
Q 422 3509 836 4129 
Q 1250 4750 2034 4750 
z
" transform="scale(0.015625)"/>
       </defs>
       <use xlink:href="#DejaVuSans-31"/>
       <use xlink:href="#DejaVuSans-36" x="63.623047"/>
       <use xlink:href="#DejaVuSans-30" x="127.246094"/>
      </g>
     </g>
    </g>
    <g id="xtick_2">
     <g id="line2d_2">
      <g>
       <use xlink:href="#m9982a3ece6" x="156.50625" y="474.140625" style="stroke: #000000; stroke-width: 0.8"/>
      </g>
     </g>
     <g id="text_2">
      <!-- 180 -->
      <g transform="translate(142.190625 492.538281)scale(0.15 -0.15)">
       <defs>
        <path id="DejaVuSans-38" d="M 2034 2216 
Q 1584 2216 1326 1975 
Q 1069 1734 1069 1313 
Q 1069 891 1326 650 
Q 1584 409 2034 409 
Q 2484 409 2743 651 
Q 3003 894 3003 1313 
Q 3003 1734 2745 1975 
Q 2488 2216 2034 2216 
z
M 1403 2484 
Q 997 2584 770 2862 
Q 544 3141 544 3541 
Q 544 4100 942 4425 
Q 1341 4750 2034 4750 
Q 2731 4750 3128 4425 
Q 3525 4100 3525 3541 
Q 3525 3141 3298 2862 
Q 3072 2584 2669 2484 
Q 3125 2378 3379 2068 
Q 3634 1759 3634 1313 
Q 3634 634 3220 271 
Q 2806 -91 2034 -91 
Q 1263 -91 848 271 
Q 434 634 434 1313 
Q 434 1759 690 2068 
Q 947 2378 1403 2484 
z
M 1172 3481 
Q 1172 3119 1398 2916 
Q 1625 2713 2034 2713 
Q 2441 2713 2670 2916 
Q 2900 3119 2900 3481 
Q 2900 3844 2670 4047 
Q 2441 4250 2034 4250 
Q 1625 4250 1398 4047 
Q 1172 3844 1172 3481 
z
" transform="scale(0.015625)"/>
       </defs>
       <use xlink:href="#DejaVuSans-31"/>
       <use xlink:href="#DejaVuSans-38" x="63.623047"/>
       <use xlink:href="#DejaVuSans-30" x="127.246094"/>
      </g>
     </g>
    </g>
    <g id="xtick_3">
     <g id="line2d_3">
      <g>
       <use xlink:href="#m9982a3ece6" x="240.20625" y="474.140625" style="stroke: #000000; stroke-width: 0.8"/>
      </g>
     </g>
     <g id="text_3">
      <!-- 200 -->
      <g transform="translate(225.890625 492.538281)scale(0.15 -0.15)">
       <defs>
        <path id="DejaVuSans-32" d="M 1228 531 
L 3431 531 
L 3431 0 
L 469 0 
L 469 531 
Q 828 903 1448 1529 
Q 2069 2156 2228 2338 
Q 2531 2678 2651 2914 
Q 2772 3150 2772 3378 
Q 2772 3750 2511 3984 
Q 2250 4219 1831 4219 
Q 1534 4219 1204 4116 
Q 875 4013 500 3803 
L 500 4441 
Q 881 4594 1212 4672 
Q 1544 4750 1819 4750 
Q 2544 4750 2975 4387 
Q 3406 4025 3406 3419 
Q 3406 3131 3298 2873 
Q 3191 2616 2906 2266 
Q 2828 2175 2409 1742 
Q 1991 1309 1228 531 
z
" transform="scale(0.015625)"/>
       </defs>
       <use xlink:href="#DejaVuSans-32"/>
       <use xlink:href="#DejaVuSans-30" x="63.623047"/>
       <use xlink:href="#DejaVuSans-30" x="127.246094"/>
      </g>
     </g>
    </g>
    <g id="xtick_4">
     <g id="line2d_4">
      <g>
       <use xlink:href="#m9982a3ece6" x="323.90625" y="474.140625" style="stroke: #000000; stroke-width: 0.8"/>
      </g>
     </g>
     <g id="text_4">
      <!-- 220 -->
      <g transform="translate(309.590625 492.538281)scale(0.15 -0.15)">
       <use xlink:href="#DejaVuSans-32"/>
       <use xlink:href="#DejaVuSans-32" x="63.623047"/>
       <use xlink:href="#DejaVuSans-30" x="127.246094"/>
      </g>
     </g>
    </g>
    <g id="xtick_5">
     <g id="line2d_5">
      <g>
       <use xlink:href="#m9982a3ece6" x="407.60625" y="474.140625" style="stroke: #000000; stroke-width: 0.8"/>
      </g>
     </g>
     <g id="text_5">
      <!-- 240 -->
      <g transform="translate(393.290625 492.538281)scale(0.15 -0.15)">
       <defs>
        <path id="DejaVuSans-34" d="M 2419 4116 
L 825 1625 
L 2419 1625 
L 2419 4116 
z
M 2253 4666 
L 3047 4666 
L 3047 1625 
L 3713 1625 
L 3713 1100 
L 3047 1100 
L 3047 0 
L 2419 0 
L 2419 1100 
L 313 1100 
L 313 1709 
L 2253 4666 
z
" transform="scale(0.015625)"/>
       </defs>
       <use xlink:href="#DejaVuSans-32"/>
       <use xlink:href="#DejaVuSans-34" x="63.623047"/>
       <use xlink:href="#DejaVuSans-30" x="127.246094"/>
      </g>
     </g>
    </g>
    <g id="xtick_6">
     <g id="line2d_6">
      <g>
       <use xlink:href="#m9982a3ece6" x="491.30625" y="474.140625" style="stroke: #000000; stroke-width: 0.8"/>
      </g>
     </g>
     <g id="text_6">
      <!-- 260 -->
      <g transform="translate(476.990625 492.538281)scale(0.15 -0.15)">
       <use xlink:href="#DejaVuSans-32"/>
       <use xlink:href="#DejaVuSans-36" x="63.623047"/>
       <use xlink:href="#DejaVuSans-30" x="127.246094"/>
      </g>
     </g>
    </g>
    <g id="xtick_7">
     <g id="line2d_7">
      <g>
       <use xlink:href="#m9982a3ece6" x="575.00625" y="474.140625" style="stroke: #000000; stroke-width: 0.8"/>
      </g>
     </g>
     <g id="text_7">
      <!-- 280 -->
      <g transform="translate(560.690625 492.538281)scale(0.15 -0.15)">
       <use xlink:href="#DejaVuSans-32"/>
       <use xlink:href="#DejaVuSans-38" x="63.623047"/>
       <use xlink:href="#DejaVuSans-30" x="127.246094"/>
      </g>
     </g>
    </g>
    <g id="text_8">
     <!-- $E_{proj}$ [MeV] -->
     <g transform="translate(271.10625 514.857812)scale(0.2 -0.2)">
      <defs>
       <path id="DejaVuSans-Oblique-45" d="M 1081 4666 
L 4031 4666 
L 3928 4134 
L 1606 4134 
L 1338 2753 
L 3566 2753 
L 3463 2222 
L 1234 2222 
L 909 531 
L 3284 531 
L 3181 0 
L 172 0 
L 1081 4666 
z
" transform="scale(0.015625)"/>
       <path id="DejaVuSans-Oblique-70" d="M 3175 2156 
Q 3175 2616 2975 2859 
Q 2775 3103 2400 3103 
Q 2144 3103 1911 2972 
Q 1678 2841 1497 2591 
Q 1319 2344 1212 1994 
Q 1106 1644 1106 1300 
Q 1106 863 1306 627 
Q 1506 391 1875 391 
Q 2147 391 2380 519 
Q 2613 647 2778 891 
Q 2956 1147 3065 1494 
Q 3175 1841 3175 2156 
z
M 1394 2969 
Q 1625 3272 1939 3428 
Q 2253 3584 2638 3584 
Q 3175 3584 3472 3232 
Q 3769 2881 3769 2247 
Q 3769 1728 3584 1258 
Q 3400 788 3053 416 
Q 2822 169 2531 39 
Q 2241 -91 1919 -91 
Q 1547 -91 1294 64 
Q 1041 219 916 525 
L 556 -1331 
L -19 -1331 
L 922 3500 
L 1497 3500 
L 1394 2969 
z
" transform="scale(0.015625)"/>
       <path id="DejaVuSans-Oblique-72" d="M 2853 2969 
Q 2766 3016 2653 3041 
Q 2541 3066 2413 3066 
Q 1953 3066 1609 2717 
Q 1266 2369 1153 1784 
L 800 0 
L 225 0 
L 909 3500 
L 1484 3500 
L 1375 2956 
Q 1603 3259 1920 3421 
Q 2238 3584 2597 3584 
Q 2691 3584 2781 3573 
Q 2872 3563 2963 3538 
L 2853 2969 
z
" transform="scale(0.015625)"/>
       <path id="DejaVuSans-Oblique-6f" d="M 1625 -91 
Q 1009 -91 651 289 
Q 294 669 294 1325 
Q 294 1706 417 2101 
Q 541 2497 738 2766 
Q 1047 3184 1428 3384 
Q 1809 3584 2291 3584 
Q 2888 3584 3255 3212 
Q 3622 2841 3622 2241 
Q 3622 1825 3500 1412 
Q 3378 1000 3181 728 
Q 2875 309 2494 109 
Q 2113 -91 1625 -91 
z
M 891 1344 
Q 891 869 1089 633 
Q 1288 397 1691 397 
Q 2269 397 2648 901 
Q 3028 1406 3028 2181 
Q 3028 2634 2825 2865 
Q 2622 3097 2228 3097 
Q 1903 3097 1650 2945 
Q 1397 2794 1197 2484 
Q 1050 2253 970 1956 
Q 891 1659 891 1344 
z
" transform="scale(0.015625)"/>
       <path id="DejaVuSans-Oblique-6a" d="M 928 3500 
L 1503 3500 
L 813 -63 
L 809 -78 
Q 694 -675 544 -897 
Q 403 -1106 132 -1218 
Q -138 -1331 -506 -1331 
L -722 -1331 
L -628 -844 
L -481 -844 
Q -144 -844 -1 -703 
Q 141 -563 238 -63 
L 928 3500 
z
M 1197 4863 
L 1772 4863 
L 1631 4134 
L 1056 4134 
L 1197 4863 
z
" transform="scale(0.015625)"/>
       <path id="DejaVuSans-20" transform="scale(0.015625)"/>
       <path id="DejaVuSans-5b" d="M 550 4863 
L 1875 4863 
L 1875 4416 
L 1125 4416 
L 1125 -397 
L 1875 -397 
L 1875 -844 
L 550 -844 
L 550 4863 
z
" transform="scale(0.015625)"/>
       <path id="DejaVuSans-4d" d="M 628 4666 
L 1569 4666 
L 2759 1491 
L 3956 4666 
L 4897 4666 
L 4897 0 
L 4281 0 
L 4281 4097 
L 3078 897 
L 2444 897 
L 1241 4097 
L 1241 0 
L 628 0 
L 628 4666 
z
" transform="scale(0.015625)"/>
       <path id="DejaVuSans-65" d="M 3597 1894 
L 3597 1613 
L 953 1613 
Q 991 1019 1311 708 
Q 1631 397 2203 397 
Q 2534 397 2845 478 
Q 3156 559 3463 722 
L 3463 178 
Q 3153 47 2828 -22 
Q 2503 -91 2169 -91 
Q 1331 -91 842 396 
Q 353 884 353 1716 
Q 353 2575 817 3079 
Q 1281 3584 2069 3584 
Q 2775 3584 3186 3129 
Q 3597 2675 3597 1894 
z
M 3022 2063 
Q 3016 2534 2758 2815 
Q 2500 3097 2075 3097 
Q 1594 3097 1305 2825 
Q 1016 2553 972 2059 
L 3022 2063 
z
" transform="scale(0.015625)"/>
       <path id="DejaVuSans-56" d="M 1831 0 
L 50 4666 
L 709 4666 
L 2188 738 
L 3669 4666 
L 4325 4666 
L 2547 0 
L 1831 0 
z
" transform="scale(0.015625)"/>
       <path id="DejaVuSans-5d" d="M 1947 4863 
L 1947 -844 
L 622 -844 
L 622 -397 
L 1369 -397 
L 1369 4416 
L 622 4416 
L 622 4863 
L 1947 4863 
z
" transform="scale(0.015625)"/>
      </defs>
      <use xlink:href="#DejaVuSans-Oblique-45" transform="translate(0 0.015625)"/>
      <use xlink:href="#DejaVuSans-Oblique-70" transform="translate(63.183594 -16.390625)scale(0.7)"/>
      <use xlink:href="#DejaVuSans-Oblique-72" transform="translate(107.617188 -16.390625)scale(0.7)"/>
      <use xlink:href="#DejaVuSans-Oblique-6f" transform="translate(136.396484 -16.390625)scale(0.7)"/>
      <use xlink:href="#DejaVuSans-Oblique-6a" transform="translate(179.223633 -16.390625)scale(0.7)"/>
      <use xlink:href="#DejaVuSans-20" transform="translate(201.40625 0.015625)"/>
      <use xlink:href="#DejaVuSans-5b" transform="translate(233.193359 0.015625)"/>
      <use xlink:href="#DejaVuSans-4d" transform="translate(272.207031 0.015625)"/>
      <use xlink:href="#DejaVuSans-65" transform="translate(358.486328 0.015625)"/>
      <use xlink:href="#DejaVuSans-56" transform="translate(420.009766 0.015625)"/>
      <use xlink:href="#DejaVuSans-5d" transform="translate(488.417969 0.015625)"/>
     </g>
    </g>
   </g>
   <g id="matplotlib.axis_2">
    <g id="ytick_1">
     <g id="line2d_8">
      <defs>
       <path id="m9f9fb3ba79" d="M 0 0 
L -3.5 0 
" style="stroke: #000000; stroke-width: 0.8"/>
      </defs>
      <g>
       <use xlink:href="#m9f9fb3ba79" x="72.80625" y="447.43806" style="stroke: #000000; stroke-width: 0.8"/>
      </g>
     </g>
     <g id="text_9">
      <!-- $\mathdefault{10^{-3}}$ -->
      <g transform="translate(30.55625 453.136888)scale(0.15 -0.15)">
       <defs>
        <path id="DejaVuSans-2212" d="M 678 2272 
L 4684 2272 
L 4684 1741 
L 678 1741 
L 678 2272 
z
" transform="scale(0.015625)"/>
        <path id="DejaVuSans-33" d="M 2597 2516 
Q 3050 2419 3304 2112 
Q 3559 1806 3559 1356 
Q 3559 666 3084 287 
Q 2609 -91 1734 -91 
Q 1441 -91 1130 -33 
Q 819 25 488 141 
L 488 750 
Q 750 597 1062 519 
Q 1375 441 1716 441 
Q 2309 441 2620 675 
Q 2931 909 2931 1356 
Q 2931 1769 2642 2001 
Q 2353 2234 1838 2234 
L 1294 2234 
L 1294 2753 
L 1863 2753 
Q 2328 2753 2575 2939 
Q 2822 3125 2822 3475 
Q 2822 3834 2567 4026 
Q 2313 4219 1838 4219 
Q 1578 4219 1281 4162 
Q 984 4106 628 3988 
L 628 4550 
Q 988 4650 1302 4700 
Q 1616 4750 1894 4750 
Q 2613 4750 3031 4423 
Q 3450 4097 3450 3541 
Q 3450 3153 3228 2886 
Q 3006 2619 2597 2516 
z
" transform="scale(0.015625)"/>
       </defs>
       <use xlink:href="#DejaVuSans-31" transform="translate(0 0.765625)"/>
       <use xlink:href="#DejaVuSans-30" transform="translate(63.623047 0.765625)"/>
       <use xlink:href="#DejaVuSans-2212" transform="translate(128.203125 39.046875)scale(0.7)"/>
       <use xlink:href="#DejaVuSans-33" transform="translate(186.855469 39.046875)scale(0.7)"/>
      </g>
     </g>
    </g>
    <g id="ytick_2">
     <g id="line2d_9">
      <g>
       <use xlink:href="#m9f9fb3ba79" x="72.80625" y="358.73406" style="stroke: #000000; stroke-width: 0.8"/>
      </g>
     </g>
     <g id="text_10">
      <!-- $\mathdefault{10^{-2}}$ -->
      <g transform="translate(30.55625 364.432888)scale(0.15 -0.15)">
       <use xlink:href="#DejaVuSans-31" transform="translate(0 0.765625)"/>
       <use xlink:href="#DejaVuSans-30" transform="translate(63.623047 0.765625)"/>
       <use xlink:href="#DejaVuSans-2212" transform="translate(128.203125 39.046875)scale(0.7)"/>
       <use xlink:href="#DejaVuSans-32" transform="translate(186.855469 39.046875)scale(0.7)"/>
      </g>
     </g>
    </g>
    <g id="ytick_3">
     <g id="line2d_10">
      <g>
       <use xlink:href="#m9f9fb3ba79" x="72.80625" y="270.03006" style="stroke: #000000; stroke-width: 0.8"/>
      </g>
     </g>
     <g id="text_11">
      <!-- $\mathdefault{10^{-1}}$ -->
      <g transform="translate(30.55625 275.728888)scale(0.15 -0.15)">
       <use xlink:href="#DejaVuSans-31" transform="translate(0 0.684375)"/>
       <use xlink:href="#DejaVuSans-30" transform="translate(63.623047 0.684375)"/>
       <use xlink:href="#DejaVuSans-2212" transform="translate(128.203125 38.965625)scale(0.7)"/>
       <use xlink:href="#DejaVuSans-31" transform="translate(186.855469 38.965625)scale(0.7)"/>
      </g>
     </g>
    </g>
    <g id="ytick_4">
     <g id="line2d_11">
      <g>
       <use xlink:href="#m9f9fb3ba79" x="72.80625" y="181.32606" style="stroke: #000000; stroke-width: 0.8"/>
      </g>
     </g>
     <g id="text_12">
      <!-- $\mathdefault{10^{0}}$ -->
      <g transform="translate(39.40625 187.024888)scale(0.15 -0.15)">
       <use xlink:href="#DejaVuSans-31" transform="translate(0 0.765625)"/>
       <use xlink:href="#DejaVuSans-30" transform="translate(63.623047 0.765625)"/>
       <use xlink:href="#DejaVuSans-30" transform="translate(128.203125 39.046875)scale(0.7)"/>
      </g>
     </g>
    </g>
    <g id="ytick_5">
     <g id="line2d_12">
      <g>
       <use xlink:href="#m9f9fb3ba79" x="72.80625" y="92.62206" style="stroke: #000000; stroke-width: 0.8"/>
      </g>
     </g>
     <g id="text_13">
      <!-- $\mathdefault{10^{1}}$ -->
      <g transform="translate(39.40625 98.320888)scale(0.15 -0.15)">
       <use xlink:href="#DejaVuSans-31" transform="translate(0 0.684375)"/>
       <use xlink:href="#DejaVuSans-30" transform="translate(63.623047 0.684375)"/>
       <use xlink:href="#DejaVuSans-31" transform="translate(128.203125 38.965625)scale(0.7)"/>
      </g>
     </g>
    </g>
    <g id="ytick_6">
     <g id="line2d_13">
      <defs>
       <path id="m5a797f2440" d="M 0 0 
L -2 0 
" style="stroke: #000000; stroke-width: 0.6"/>
      </defs>
      <g>
       <use xlink:href="#m5a797f2440" x="72.80625" y="474.140625" style="stroke: #000000; stroke-width: 0.6"/>
      </g>
     </g>
    </g>
    <g id="ytick_7">
     <g id="line2d_14">
      <g>
       <use xlink:href="#m5a797f2440" x="72.80625" y="467.116932" style="stroke: #000000; stroke-width: 0.6"/>
      </g>
     </g>
    </g>
    <g id="ytick_8">
     <g id="line2d_15">
      <g>
       <use xlink:href="#m5a797f2440" x="72.80625" y="461.178484" style="stroke: #000000; stroke-width: 0.6"/>
      </g>
     </g>
    </g>
    <g id="ytick_9">
     <g id="line2d_16">
      <g>
       <use xlink:href="#m5a797f2440" x="72.80625" y="456.034366" style="stroke: #000000; stroke-width: 0.6"/>
      </g>
     </g>
    </g>
    <g id="ytick_10">
     <g id="line2d_17">
      <g>
       <use xlink:href="#m5a797f2440" x="72.80625" y="451.496933" style="stroke: #000000; stroke-width: 0.6"/>
      </g>
     </g>
    </g>
    <g id="ytick_11">
     <g id="line2d_18">
      <g>
       <use xlink:href="#m5a797f2440" x="72.80625" y="420.735496" style="stroke: #000000; stroke-width: 0.6"/>
      </g>
     </g>
    </g>
    <g id="ytick_12">
     <g id="line2d_19">
      <g>
       <use xlink:href="#m5a797f2440" x="72.80625" y="405.115496" style="stroke: #000000; stroke-width: 0.6"/>
      </g>
     </g>
    </g>
    <g id="ytick_13">
     <g id="line2d_20">
      <g>
       <use xlink:href="#m5a797f2440" x="72.80625" y="394.032931" style="stroke: #000000; stroke-width: 0.6"/>
      </g>
     </g>
    </g>
    <g id="ytick_14">
     <g id="line2d_21">
      <g>
       <use xlink:href="#m5a797f2440" x="72.80625" y="385.436625" style="stroke: #000000; stroke-width: 0.6"/>
      </g>
     </g>
    </g>
    <g id="ytick_15">
     <g id="line2d_22">
      <g>
       <use xlink:href="#m5a797f2440" x="72.80625" y="378.412932" style="stroke: #000000; stroke-width: 0.6"/>
      </g>
     </g>
    </g>
    <g id="ytick_16">
     <g id="line2d_23">
      <g>
       <use xlink:href="#m5a797f2440" x="72.80625" y="372.474484" style="stroke: #000000; stroke-width: 0.6"/>
      </g>
     </g>
    </g>
    <g id="ytick_17">
     <g id="line2d_24">
      <g>
       <use xlink:href="#m5a797f2440" x="72.80625" y="367.330366" style="stroke: #000000; stroke-width: 0.6"/>
      </g>
     </g>
    </g>
    <g id="ytick_18">
     <g id="line2d_25">
      <g>
       <use xlink:href="#m5a797f2440" x="72.80625" y="362.792933" style="stroke: #000000; stroke-width: 0.6"/>
      </g>
     </g>
    </g>
    <g id="ytick_19">
     <g id="line2d_26">
      <g>
       <use xlink:href="#m5a797f2440" x="72.80625" y="332.031496" style="stroke: #000000; stroke-width: 0.6"/>
      </g>
     </g>
    </g>
    <g id="ytick_20">
     <g id="line2d_27">
      <g>
       <use xlink:href="#m5a797f2440" x="72.80625" y="316.411496" style="stroke: #000000; stroke-width: 0.6"/>
      </g>
     </g>
    </g>
    <g id="ytick_21">
     <g id="line2d_28">
      <g>
       <use xlink:href="#m5a797f2440" x="72.80625" y="305.328931" style="stroke: #000000; stroke-width: 0.6"/>
      </g>
     </g>
    </g>
    <g id="ytick_22">
     <g id="line2d_29">
      <g>
       <use xlink:href="#m5a797f2440" x="72.80625" y="296.732625" style="stroke: #000000; stroke-width: 0.6"/>
      </g>
     </g>
    </g>
    <g id="ytick_23">
     <g id="line2d_30">
      <g>
       <use xlink:href="#m5a797f2440" x="72.80625" y="289.708932" style="stroke: #000000; stroke-width: 0.6"/>
      </g>
     </g>
    </g>
    <g id="ytick_24">
     <g id="line2d_31">
      <g>
       <use xlink:href="#m5a797f2440" x="72.80625" y="283.770484" style="stroke: #000000; stroke-width: 0.6"/>
      </g>
     </g>
    </g>
    <g id="ytick_25">
     <g id="line2d_32">
      <g>
       <use xlink:href="#m5a797f2440" x="72.80625" y="278.626366" style="stroke: #000000; stroke-width: 0.6"/>
      </g>
     </g>
    </g>
    <g id="ytick_26">
     <g id="line2d_33">
      <g>
       <use xlink:href="#m5a797f2440" x="72.80625" y="274.088933" style="stroke: #000000; stroke-width: 0.6"/>
      </g>
     </g>
    </g>
    <g id="ytick_27">
     <g id="line2d_34">
      <g>
       <use xlink:href="#m5a797f2440" x="72.80625" y="243.327496" style="stroke: #000000; stroke-width: 0.6"/>
      </g>
     </g>
    </g>
    <g id="ytick_28">
     <g id="line2d_35">
      <g>
       <use xlink:href="#m5a797f2440" x="72.80625" y="227.707496" style="stroke: #000000; stroke-width: 0.6"/>
      </g>
     </g>
    </g>
    <g id="ytick_29">
     <g id="line2d_36">
      <g>
       <use xlink:href="#m5a797f2440" x="72.80625" y="216.624931" style="stroke: #000000; stroke-width: 0.6"/>
      </g>
     </g>
    </g>
    <g id="ytick_30">
     <g id="line2d_37">
      <g>
       <use xlink:href="#m5a797f2440" x="72.80625" y="208.028625" style="stroke: #000000; stroke-width: 0.6"/>
      </g>
     </g>
    </g>
    <g id="ytick_31">
     <g id="line2d_38">
      <g>
       <use xlink:href="#m5a797f2440" x="72.80625" y="201.004932" style="stroke: #000000; stroke-width: 0.6"/>
      </g>
     </g>
    </g>
    <g id="ytick_32">
     <g id="line2d_39">
      <g>
       <use xlink:href="#m5a797f2440" x="72.80625" y="195.066484" style="stroke: #000000; stroke-width: 0.6"/>
      </g>
     </g>
    </g>
    <g id="ytick_33">
     <g id="line2d_40">
      <g>
       <use xlink:href="#m5a797f2440" x="72.80625" y="189.922366" style="stroke: #000000; stroke-width: 0.6"/>
      </g>
     </g>
    </g>
    <g id="ytick_34">
     <g id="line2d_41">
      <g>
       <use xlink:href="#m5a797f2440" x="72.80625" y="185.384933" style="stroke: #000000; stroke-width: 0.6"/>
      </g>
     </g>
    </g>
    <g id="ytick_35">
     <g id="line2d_42">
      <g>
       <use xlink:href="#m5a797f2440" x="72.80625" y="154.623496" style="stroke: #000000; stroke-width: 0.6"/>
      </g>
     </g>
    </g>
    <g id="ytick_36">
     <g id="line2d_43">
      <g>
       <use xlink:href="#m5a797f2440" x="72.80625" y="139.003496" style="stroke: #000000; stroke-width: 0.6"/>
      </g>
     </g>
    </g>
    <g id="ytick_37">
     <g id="line2d_44">
      <g>
       <use xlink:href="#m5a797f2440" x="72.80625" y="127.920931" style="stroke: #000000; stroke-width: 0.6"/>
      </g>
     </g>
    </g>
    <g id="ytick_38">
     <g id="line2d_45">
      <g>
       <use xlink:href="#m5a797f2440" x="72.80625" y="119.324625" style="stroke: #000000; stroke-width: 0.6"/>
      </g>
     </g>
    </g>
    <g id="ytick_39">
     <g id="line2d_46">
      <g>
       <use xlink:href="#m5a797f2440" x="72.80625" y="112.300932" style="stroke: #000000; stroke-width: 0.6"/>
      </g>
     </g>
    </g>
    <g id="ytick_40">
     <g id="line2d_47">
      <g>
       <use xlink:href="#m5a797f2440" x="72.80625" y="106.362484" style="stroke: #000000; stroke-width: 0.6"/>
      </g>
     </g>
    </g>
    <g id="ytick_41">
     <g id="line2d_48">
      <g>
       <use xlink:href="#m5a797f2440" x="72.80625" y="101.218366" style="stroke: #000000; stroke-width: 0.6"/>
      </g>
     </g>
    </g>
    <g id="ytick_42">
     <g id="line2d_49">
      <g>
       <use xlink:href="#m5a797f2440" x="72.80625" y="96.680933" style="stroke: #000000; stroke-width: 0.6"/>
      </g>
     </g>
    </g>
    <g id="ytick_43">
     <g id="line2d_50">
      <g>
       <use xlink:href="#m5a797f2440" x="72.80625" y="65.919496" style="stroke: #000000; stroke-width: 0.6"/>
      </g>
     </g>
    </g>
    <g id="ytick_44">
     <g id="line2d_51">
      <g>
       <use xlink:href="#m5a797f2440" x="72.80625" y="50.299496" style="stroke: #000000; stroke-width: 0.6"/>
      </g>
     </g>
    </g>
    <g id="ytick_45">
     <g id="line2d_52">
      <g>
       <use xlink:href="#m5a797f2440" x="72.80625" y="39.216931" style="stroke: #000000; stroke-width: 0.6"/>
      </g>
     </g>
    </g>
    <g id="ytick_46">
     <g id="line2d_53">
      <g>
       <use xlink:href="#m5a797f2440" x="72.80625" y="30.620625" style="stroke: #000000; stroke-width: 0.6"/>
      </g>
     </g>
    </g>
    <g id="text_14">
     <!-- $\sigma$ [mb] -->
     <g transform="translate(22.396875 285.880625)rotate(-90)scale(0.2 -0.2)">
      <defs>
       <path id="DejaVuSans-Oblique-3c3" d="M 2219 3044 
Q 1744 3044 1422 2700 
Q 1081 2341 969 1747 
Q 844 1119 1044 756 
Q 1241 397 1706 397 
Q 2166 397 2503 759 
Q 2844 1122 2966 1747 
Q 3075 2319 2881 2700 
Q 2700 3044 2219 3044 
z
M 2309 3503 
L 4219 3500 
L 4106 2925 
L 3463 2925 
Q 3706 2438 3575 1747 
Q 3406 888 2884 400 
Q 2359 -91 1609 -91 
Q 856 -91 525 400 
Q 194 888 363 1747 
Q 528 2609 1050 3097 
Q 1484 3503 2309 3503 
z
" transform="scale(0.015625)"/>
       <path id="DejaVuSans-6d" d="M 3328 2828 
Q 3544 3216 3844 3400 
Q 4144 3584 4550 3584 
Q 5097 3584 5394 3201 
Q 5691 2819 5691 2113 
L 5691 0 
L 5113 0 
L 5113 2094 
Q 5113 2597 4934 2840 
Q 4756 3084 4391 3084 
Q 3944 3084 3684 2787 
Q 3425 2491 3425 1978 
L 3425 0 
L 2847 0 
L 2847 2094 
Q 2847 2600 2669 2842 
Q 2491 3084 2119 3084 
Q 1678 3084 1418 2786 
Q 1159 2488 1159 1978 
L 1159 0 
L 581 0 
L 581 3500 
L 1159 3500 
L 1159 2956 
Q 1356 3278 1631 3431 
Q 1906 3584 2284 3584 
Q 2666 3584 2933 3390 
Q 3200 3197 3328 2828 
z
" transform="scale(0.015625)"/>
       <path id="DejaVuSans-62" d="M 3116 1747 
Q 3116 2381 2855 2742 
Q 2594 3103 2138 3103 
Q 1681 3103 1420 2742 
Q 1159 2381 1159 1747 
Q 1159 1113 1420 752 
Q 1681 391 2138 391 
Q 2594 391 2855 752 
Q 3116 1113 3116 1747 
z
M 1159 2969 
Q 1341 3281 1617 3432 
Q 1894 3584 2278 3584 
Q 2916 3584 3314 3078 
Q 3713 2572 3713 1747 
Q 3713 922 3314 415 
Q 2916 -91 2278 -91 
Q 1894 -91 1617 61 
Q 1341 213 1159 525 
L 1159 0 
L 581 0 
L 581 4863 
L 1159 4863 
L 1159 2969 
z
" transform="scale(0.015625)"/>
      </defs>
      <use xlink:href="#DejaVuSans-Oblique-3c3" transform="translate(0 0.015625)"/>
      <use xlink:href="#DejaVuSans-20" transform="translate(63.378906 0.015625)"/>
      <use xlink:href="#DejaVuSans-5b" transform="translate(95.166016 0.015625)"/>
      <use xlink:href="#DejaVuSans-6d" transform="translate(134.179688 0.015625)"/>
      <use xlink:href="#DejaVuSans-62" transform="translate(231.591797 0.015625)"/>
      <use xlink:href="#DejaVuSans-5d" transform="translate(295.068359 0.015625)"/>
     </g>
    </g>
   </g>
   <g id="line2d_54">
    <path d="M 366.849952 529.257812 
L 372.00027 511.012108 
L 377.19804 494.729035 
L 382.399995 480.310911 
L 387.597765 467.569017 
L 392.79972 456.275894 
L 397.99749 446.299347 
L 403.19526 437.928107 
L 408.397215 430.307136 
L 413.594985 424.157599 
L 418.79694 418.85592 
L 423.99471 414.522857 
L 429.196665 411.075352 
L 434.394435 408.467493 
L 439.592205 406.688109 
L 444.79416 405.6326 
L 449.99193 405.244123 
L 455.193885 405.502672 
L 460.391655 406.288897 
L 465.59361 407.773354 
L 470.79138 409.604805 
L 475.98915 411.985402 
L 481.191105 414.852121 
L 486.388875 418.129037 
L 491.59083 421.908896 
L 496.7886 426.10038 
L 501.98637 430.554877 
L 507.188325 435.310399 
L 512.386095 440.414367 
L 517.58805 445.558485 
L 522.78582 451.368734 
L 527.987775 457.307182 
L 533.185545 463.503648 
L 538.383315 469.91262 
L 543.58527 476.606344 
L 548.78304 483.417063 
L 553.984995 490.499616 
L 559.182765 497.735952 
L 564.38472 505.246026 
L 569.58249 512.861599 
L 574.78026 520.779746 
L 579.982215 528.798667 
L 580.280385 529.257812 
" clip-path="url(#p1005c69c8e)" style="fill: none; stroke: #ff0000; stroke-width: 1.5; stroke-linecap: square"/>
   </g>
   <g id="line2d_55">
    <path d="M 279.122464 529.257812 
L 283.608885 497.878369 
L 288.806655 466.733609 
L 294.00861 439.777598 
L 299.20638 416.715166 
L 304.40415 396.622058 
L 309.606105 379.191214 
L 314.803875 364.14325 
L 320.00583 351.073598 
L 325.2036 339.912171 
L 330.40137 330.52057 
L 335.603325 322.521542 
L 340.801095 315.901242 
L 346.00305 310.473048 
L 351.20082 306.304265 
L 356.402775 303.175164 
L 361.600545 301.049182 
L 366.798315 299.861133 
L 372.00027 299.528314 
L 377.19804 299.94479 
L 382.399995 301.049182 
L 387.597765 302.902911 
L 392.79972 305.425361 
L 397.99749 308.436553 
L 403.19526 312.045661 
L 408.397215 316.155524 
L 413.594985 320.756791 
L 418.79694 325.818857 
L 423.99471 331.268626 
L 429.196665 336.956105 
L 434.394435 343.114061 
L 439.592205 349.830791 
L 444.79416 356.489329 
L 449.99193 363.658669 
L 455.193885 371.069538 
L 460.391655 378.670616 
L 465.59361 386.610025 
L 470.79138 394.713063 
L 475.98915 402.992099 
L 481.191105 411.52769 
L 486.388875 420.352172 
L 491.59083 429.091778 
L 496.7886 438.230255 
L 501.98637 447.515185 
L 507.188325 456.911048 
L 512.386095 466.480163 
L 517.58805 476.197818 
L 522.78582 486.053922 
L 527.987775 496.066796 
L 533.185545 506.296736 
L 538.383315 516.850364 
L 543.58527 527.545754 
L 544.369272 529.257812 
" clip-path="url(#p1005c69c8e)" style="fill: none; stroke: #32cd32; stroke-width: 1.5; stroke-linecap: square"/>
   </g>
   <g id="line2d_56">
    <path d="M 216.17031 529.257812 
L 221.21472 481.226005 
L 226.41249 439.777598 
L 231.61026 405.244123 
L 236.812215 376.472256 
L 242.009985 352.357839 
L 247.21194 332.031496 
L 252.40971 315.024243 
L 257.611665 300.705984 
L 262.809435 288.632605 
L 268.007205 278.434228 
L 273.20916 270.03006 
L 278.40693 263.006367 
L 283.608885 257.344075 
L 288.806655 252.652977 
L 294.00861 249.362373 
L 299.20638 246.960688 
L 304.40415 245.506792 
L 309.606105 244.900108 
L 314.803875 245.303501 
L 320.00583 246.330859 
L 325.2036 248.252105 
L 330.40137 250.738364 
L 335.603325 253.899807 
L 340.801095 257.902399 
L 346.00305 262.369598 
L 351.20082 267.423602 
L 356.402775 272.742991 
L 361.600545 278.674551 
L 366.798315 285.057523 
L 372.00027 291.820345 
L 377.19804 298.952709 
L 382.399995 306.502331 
L 387.597765 314.288099 
L 392.79972 322.521542 
L 397.99749 330.892782 
L 403.19526 339.676552 
L 408.397215 348.626829 
L 413.594985 357.595347 
L 418.79694 367.138228 
L 423.99471 376.778731 
L 429.196665 386.530677 
L 434.394435 396.519191 
L 439.592205 406.688109 
L 444.79416 417.063799 
L 449.99193 427.682218 
L 455.193885 438.230255 
L 460.391655 449.050823 
L 465.59361 459.986377 
L 470.79138 471.10453 
L 475.98915 482.353608 
L 481.191105 493.819496 
L 486.388875 505.419166 
L 491.59083 517.320171 
L 496.57643 529.257812 
" clip-path="url(#p1005c69c8e)" style="fill: none; stroke: #0000ff; stroke-width: 1.5; stroke-linecap: square"/>
   </g>
   <g id="line2d_57">
    <path d="M 150.69614 529.257812 
L 153.6186 484.712936 
L 158.81637 419.596782 
L 164.018325 366.520315 
L 169.216095 323.43519 
L 174.41805 288.570219 
L 179.61582 260.520107 
L 184.817775 237.609814 
L 190.015545 219.111191 
L 195.213315 204.217096 
L 200.41527 192.203712 
L 205.61304 182.61879 
L 210.814995 174.949839 
L 216.012765 169.198399 
L 221.21472 164.943192 
L 226.41249 161.801592 
L 231.61026 159.98838 
L 236.812215 159.32984 
L 242.009985 159.767613 
L 247.21194 160.884319 
L 252.40971 163.219801 
L 257.611665 166.223165 
L 262.809435 170.051356 
L 268.007205 174.624743 
L 273.20916 179.815135 
L 278.40693 185.685732 
L 283.608885 192.203712 
L 288.806655 199.247848 
L 294.00861 206.815181 
L 299.20638 214.837188 
L 304.40415 223.341661 
L 309.606105 232.196805 
L 314.803875 241.44792 
L 320.00583 250.972552 
L 325.2036 260.822255 
L 330.40137 271.084499 
L 335.603325 281.577706 
L 340.801095 292.298059 
L 346.00305 303.266345 
L 351.20082 314.409817 
L 356.402775 325.818857 
L 361.600545 337.39638 
L 366.798315 348.924311 
L 372.00027 360.994975 
L 377.19804 373.028791 
L 382.399995 385.282838 
L 387.597765 397.666123 
L 392.79972 410.186306 
L 397.99749 422.711501 
L 403.19526 435.592625 
L 408.397215 448.492499 
L 413.594985 461.51011 
L 418.79694 474.683767 
L 423.99471 487.991274 
L 429.196665 501.464553 
L 434.394435 515.026419 
L 439.592205 529.118367 
L 439.624349 529.257812 
" clip-path="url(#p1005c69c8e)" style="fill: none; stroke: #ffd700; stroke-width: 1.5; stroke-linecap: square"/>
   </g>
   <g id="line2d_58">
    <path d="M 103.411412 529.257812 
L 106.82193 467.052779 
L 112.023885 391.606911 
L 117.221655 331.839357 
L 122.42361 284.88719 
L 127.62138 248.03384 
L 132.81915 219.111191 
L 138.021105 196.070051 
L 143.218875 177.654364 
L 148.42083 163.219801 
L 153.6186 151.658675 
L 158.81637 142.77806 
L 164.018325 136.038676 
L 169.216095 131.028553 
L 174.41805 127.728792 
L 179.61582 125.949741 
L 184.817775 125.585449 
L 190.015545 126.502722 
L 195.213315 128.601063 
L 200.41527 131.979803 
L 205.61304 136.277213 
L 210.814995 141.661354 
L 216.012765 147.922178 
L 221.21472 154.816597 
L 226.41249 162.74124 
L 231.61026 171.218829 
L 236.812215 180.187347 
L 242.009985 189.826177 
L 247.21194 199.928605 
L 252.40971 210.494344 
L 257.611665 221.440253 
L 262.809435 232.778306 
L 268.007205 244.500896 
L 273.20916 256.521475 
L 278.40693 268.891347 
L 283.608885 281.318635 
L 288.806655 294.126166 
L 294.00861 307.102712 
L 299.20638 320.327952 
L 304.40415 333.604108 
L 309.606105 347.172934 
L 314.803875 360.913357 
L 320.00583 374.741235 
L 325.2036 388.732628 
L 330.40137 402.870765 
L 335.603325 417.239306 
L 340.801095 431.562089 
L 346.00305 446.299347 
L 351.20082 460.795161 
L 356.402775 475.633063 
L 361.600545 490.499616 
L 366.798315 505.593088 
L 372.00027 520.779746 
L 374.868786 529.257812 
" clip-path="url(#p1005c69c8e)" style="fill: none; stroke: #000000; stroke-width: 1.5; stroke-linecap: square"/>
   </g>
   <g id="line2d_59"/>
   <g id="line2d_60"/>
   <g id="line2d_61"/>
   <g id="line2d_62"/>
   <g id="line2d_63"/>
   <g id="line2d_64">
    <path clip-path="url(#p1005c69c8e)" style="fill: none; stroke-dasharray: 5.55,2.4; stroke-dashoffset: 0; stroke: #ff0000; stroke-width: 1.5"/>
   </g>
   <g id="line2d_65">
    <path d="M 279.122464 529.257812 
L 283.608885 497.878369 
L 288.806655 466.733609 
L 294.00861 439.777598 
L 299.20638 416.715166 
L 304.40415 396.519191 
L 309.606105 379.191214 
L 314.803875 364.098944 
L 320.00583 351.073598 
L 325.2036 339.912171 
" clip-path="url(#p1005c69c8e)" style="fill: none; stroke-dasharray: 5.55,2.4; stroke-dashoffset: 0; stroke: #32cd32; stroke-width: 1.5"/>
   </g>
   <g id="line2d_66">
    <path d="M 216.170016 529.257812 
L 221.21472 481.133512 
L 226.41249 439.777598 
L 231.61026 405.244123 
L 236.812215 376.411253 
L 242.009985 352.357839 
L 247.21194 332.031496 
L 252.40971 315.024243 
L 257.611665 300.705984 
L 262.809435 288.632605 
L 268.007205 278.434228 
L 273.20916 270.03006 
L 278.40693 263.006367 
L 283.608885 257.344075 
L 288.806655 252.652977 
L 294.00861 249.362373 
L 299.20638 246.960688 
L 304.40415 245.506792 
L 309.606105 244.900108 
L 314.803875 245.303501 
L 320.00583 246.330859 
L 325.2036 248.252105 
" clip-path="url(#p1005c69c8e)" style="fill: none; stroke-dasharray: 5.55,2.4; stroke-dashoffset: 0; stroke: #0000ff; stroke-width: 1.5"/>
   </g>
   <g id="line2d_67">
    <path d="M 149.86017 529.257812 
L 153.6186 472.041541 
L 158.81637 408.748689 
L 164.018325 357.595347 
L 169.216095 316.540123 
L 174.41805 283.33271 
L 179.61582 256.521475 
L 184.817775 234.73119 
L 190.015545 217.109511 
L 195.213315 202.778713 
L 200.41527 191.244986 
L 205.61304 181.986593 
L 210.814995 174.624743 
L 216.012765 168.918226 
L 221.21472 164.692222 
L 226.41249 161.801592 
L 231.61026 159.98838 
L 236.812215 159.32984 
L 242.009985 159.548105 
L 247.21194 160.884319 
L 252.40971 163.219801 
L 257.611665 166.223165 
L 262.809435 170.051356 
L 268.007205 174.624743 
L 273.20916 179.815135 
L 278.40693 185.685732 
L 283.608885 192.203712 
L 288.806655 199.247848 
L 294.00861 206.815181 
L 299.20638 214.837188 
L 304.40415 223.341661 
L 309.606105 232.196805 
L 314.803875 241.44792 
L 320.00583 250.972552 
L 325.2036 260.822255 
" clip-path="url(#p1005c69c8e)" style="fill: none; stroke-dasharray: 5.55,2.4; stroke-dashoffset: 0; stroke: #ffd700; stroke-width: 1.5"/>
   </g>
   <g id="line2d_68">
    <path d="M 114.884775 529.257812 
L 117.221655 485.326058 
L 122.42361 400.180616 
L 127.62138 325.655274 
L 132.81915 261.743183 
L 138.021105 211.157133 
L 143.218875 175.608379 
L 148.42083 153.298227 
L 153.6186 139.5206 
L 158.81637 131.133095 
L 164.018325 125.949741 
L 169.216095 122.873243 
L 174.41805 121.381818 
L 179.61582 121.058088 
L 184.817775 121.954976 
L 190.015545 123.813934 
L 195.213315 126.688827 
L 200.41527 130.6132 
L 205.61304 135.3318 
L 210.814995 140.979502 
L 216.012765 147.439621 
L 221.21472 154.623496 
L 226.41249 162.504171 
L 231.61026 170.923627 
L 236.812215 180.187347 
L 242.009985 189.826177 
L 247.21194 199.928605 
L 252.40971 210.494344 
L 257.611665 221.440253 
L 262.809435 232.778306 
L 268.007205 244.500896 
L 273.20916 256.521475 
L 278.40693 268.891347 
L 283.608885 281.318635 
L 288.806655 294.054227 
L 294.00861 307.102712 
L 299.20638 320.327952 
L 304.40415 333.604108 
L 309.606105 347.172934 
L 314.803875 360.872613 
L 320.00583 374.741235 
L 325.2036 388.732628 
" clip-path="url(#p1005c69c8e)" style="fill: none; stroke-dasharray: 5.55,2.4; stroke-dashoffset: 0; stroke: #000000; stroke-width: 1.5"/>
   </g>
   <g id="LineCollection_1">
    <path clip-path="url(#p1005c69c8e)" style="fill: none; stroke: #ff0000; stroke-width: 1.5"/>
    <path clip-path="url(#p1005c69c8e)" style="fill: none; stroke: #ff0000; stroke-width: 1.5"/>
    <path clip-path="url(#p1005c69c8e)" style="fill: none; stroke: #ff0000; stroke-width: 1.5"/>
    <path clip-path="url(#p1005c69c8e)" style="fill: none; stroke: #ff0000; stroke-width: 1.5"/>
    <path clip-path="url(#p1005c69c8e)" style="fill: none; stroke: #ff0000; stroke-width: 1.5"/>
    <path clip-path="url(#p1005c69c8e)" style="fill: none; stroke: #ff0000; stroke-width: 1.5"/>
    <path clip-path="url(#p1005c69c8e)" style="fill: none; stroke: #ff0000; stroke-width: 1.5"/>
    <path clip-path="url(#p1005c69c8e)" style="fill: none; stroke: #ff0000; stroke-width: 1.5"/>
    <path clip-path="url(#p1005c69c8e)" style="fill: none; stroke: #ff0000; stroke-width: 1.5"/>
    <path clip-path="url(#p1005c69c8e)" style="fill: none; stroke: #ff0000; stroke-width: 1.5"/>
    <path clip-path="url(#p1005c69c8e)" style="fill: none; stroke: #ff0000; stroke-width: 1.5"/>
    <path clip-path="url(#p1005c69c8e)" style="fill: none; stroke: #ff0000; stroke-width: 1.5"/>
    <path clip-path="url(#p1005c69c8e)" style="fill: none; stroke: #ff0000; stroke-width: 1.5"/>
    <path clip-path="url(#p1005c69c8e)" style="fill: none; stroke: #ff0000; stroke-width: 1.5"/>
    <path d="M 395.05125 447.43806 
L 395.05125 447.43806 
" clip-path="url(#p1005c69c8e)" style="fill: none; stroke: #ff0000; stroke-width: 1.5"/>
    <path d="M 413.46525 434.475919 
L 413.46525 434.475919 
" clip-path="url(#p1005c69c8e)" style="fill: none; stroke: #ff0000; stroke-width: 1.5"/>
    <path d="M 444.85275 405.115496 
L 444.85275 405.115496 
" clip-path="url(#p1005c69c8e)" style="fill: none; stroke: #ff0000; stroke-width: 1.5"/>
    <path d="M 475.82175 399.177048 
L 475.82175 399.177048 
" clip-path="url(#p1005c69c8e)" style="fill: none; stroke: #ff0000; stroke-width: 1.5"/>
    <path d="M 507.20925 426.996319 
L 507.20925 426.996319 
" clip-path="url(#p1005c69c8e)" style="fill: none; stroke: #ff0000; stroke-width: 1.5"/>
    <path d="M 538.59675 447.43806 
L 538.59675 447.43806 
" clip-path="url(#p1005c69c8e)" style="fill: none; stroke: #ff0000; stroke-width: 1.5"/>
    <path clip-path="url(#p1005c69c8e)" style="fill: none; stroke: #ff0000; stroke-width: 1.5"/>
   </g>
   <g id="line2d_69">
    <defs>
     <path id="m93c9319e50" d="M 5 0 
L -5 -0 
" style="stroke: #ff0000"/>
    </defs>
    <g clip-path="url(#p1005c69c8e)">
     <use xlink:href="#m93c9319e50" x="395.05125" y="447.43806" style="fill: #ff0000; stroke: #ff0000"/>
     <use xlink:href="#m93c9319e50" x="413.46525" y="434.475919" style="fill: #ff0000; stroke: #ff0000"/>
     <use xlink:href="#m93c9319e50" x="444.85275" y="405.115496" style="fill: #ff0000; stroke: #ff0000"/>
     <use xlink:href="#m93c9319e50" x="475.82175" y="399.177048" style="fill: #ff0000; stroke: #ff0000"/>
     <use xlink:href="#m93c9319e50" x="507.20925" y="426.996319" style="fill: #ff0000; stroke: #ff0000"/>
     <use xlink:href="#m93c9319e50" x="538.59675" y="447.43806" style="fill: #ff0000; stroke: #ff0000"/>
    </g>
   </g>
   <g id="line2d_70">
    <g clip-path="url(#p1005c69c8e)">
     <use xlink:href="#m93c9319e50" x="395.05125" y="447.43806" style="fill: #ff0000; stroke: #ff0000"/>
     <use xlink:href="#m93c9319e50" x="413.46525" y="434.475919" style="fill: #ff0000; stroke: #ff0000"/>
     <use xlink:href="#m93c9319e50" x="444.85275" y="405.115496" style="fill: #ff0000; stroke: #ff0000"/>
     <use xlink:href="#m93c9319e50" x="475.82175" y="399.177048" style="fill: #ff0000; stroke: #ff0000"/>
     <use xlink:href="#m93c9319e50" x="507.20925" y="426.996319" style="fill: #ff0000; stroke: #ff0000"/>
     <use xlink:href="#m93c9319e50" x="538.59675" y="447.43806" style="fill: #ff0000; stroke: #ff0000"/>
    </g>
   </g>
   <g id="LineCollection_2">
    <path clip-path="url(#p1005c69c8e)" style="fill: none; stroke: #32cd32; stroke-width: 1.5"/>
    <path clip-path="url(#p1005c69c8e)" style="fill: none; stroke: #32cd32; stroke-width: 1.5"/>
    <path clip-path="url(#p1005c69c8e)" style="fill: none; stroke: #32cd32; stroke-width: 1.5"/>
    <path clip-path="url(#p1005c69c8e)" style="fill: none; stroke: #32cd32; stroke-width: 1.5"/>
    <path clip-path="url(#p1005c69c8e)" style="fill: none; stroke: #32cd32; stroke-width: 1.5"/>
    <path clip-path="url(#p1005c69c8e)" style="fill: none; stroke: #32cd32; stroke-width: 1.5"/>
    <path clip-path="url(#p1005c69c8e)" style="fill: none; stroke: #32cd32; stroke-width: 1.5"/>
    <path clip-path="url(#p1005c69c8e)" style="fill: none; stroke: #32cd32; stroke-width: 1.5"/>
    <path clip-path="url(#p1005c69c8e)" style="fill: none; stroke: #32cd32; stroke-width: 1.5"/>
    <path clip-path="url(#p1005c69c8e)" style="fill: none; stroke: #32cd32; stroke-width: 1.5"/>
    <path clip-path="url(#p1005c69c8e)" style="fill: none; stroke: #32cd32; stroke-width: 1.5"/>
    <path d="M 319.72125 343.114061 
L 319.72125 343.114061 
" clip-path="url(#p1005c69c8e)" style="fill: none; stroke: #32cd32; stroke-width: 1.5"/>
    <path d="M 343.99425 310.473048 
L 343.99425 310.473048 
" clip-path="url(#p1005c69c8e)" style="fill: none; stroke: #32cd32; stroke-width: 1.5"/>
    <path d="M 372.03375 319.069354 
L 372.03375 319.069354 
" clip-path="url(#p1005c69c8e)" style="fill: none; stroke: #32cd32; stroke-width: 1.5"/>
    <path d="M 395.05125 323.43519 
L 395.05125 323.43519 
" clip-path="url(#p1005c69c8e)" style="fill: none; stroke: #32cd32; stroke-width: 1.5"/>
    <path d="M 413.46525 315.148313 
L 413.46525 315.148313 
" clip-path="url(#p1005c69c8e)" style="fill: none; stroke: #32cd32; stroke-width: 1.5"/>
    <path d="M 444.85275 340.627801 
L 444.85275 340.627801 
" clip-path="url(#p1005c69c8e)" style="fill: none; stroke: #32cd32; stroke-width: 1.5"/>
    <path d="M 475.82175 394.032931 
L 475.82175 394.032931 
" clip-path="url(#p1005c69c8e)" style="fill: none; stroke: #32cd32; stroke-width: 1.5"/>
    <path d="M 507.20925 431.818061 
L 507.20925 431.818061 
" clip-path="url(#p1005c69c8e)" style="fill: none; stroke: #32cd32; stroke-width: 1.5"/>
    <path d="M 538.59675 456.034366 
L 538.59675 456.034366 
" clip-path="url(#p1005c69c8e)" style="fill: none; stroke: #32cd32; stroke-width: 1.5"/>
    <path clip-path="url(#p1005c69c8e)" style="fill: none; stroke: #32cd32; stroke-width: 1.5"/>
   </g>
   <g id="line2d_71">
    <defs>
     <path id="md7c7750714" d="M 5 0 
L -5 -0 
" style="stroke: #32cd32"/>
    </defs>
    <g clip-path="url(#p1005c69c8e)">
     <use xlink:href="#md7c7750714" x="319.72125" y="343.114061" style="fill: #32cd32; stroke: #32cd32"/>
     <use xlink:href="#md7c7750714" x="343.99425" y="310.473048" style="fill: #32cd32; stroke: #32cd32"/>
     <use xlink:href="#md7c7750714" x="372.03375" y="319.069354" style="fill: #32cd32; stroke: #32cd32"/>
     <use xlink:href="#md7c7750714" x="395.05125" y="323.43519" style="fill: #32cd32; stroke: #32cd32"/>
     <use xlink:href="#md7c7750714" x="413.46525" y="315.148313" style="fill: #32cd32; stroke: #32cd32"/>
     <use xlink:href="#md7c7750714" x="444.85275" y="340.627801" style="fill: #32cd32; stroke: #32cd32"/>
     <use xlink:href="#md7c7750714" x="475.82175" y="394.032931" style="fill: #32cd32; stroke: #32cd32"/>
     <use xlink:href="#md7c7750714" x="507.20925" y="431.818061" style="fill: #32cd32; stroke: #32cd32"/>
     <use xlink:href="#md7c7750714" x="538.59675" y="456.034366" style="fill: #32cd32; stroke: #32cd32"/>
    </g>
   </g>
   <g id="line2d_72">
    <g clip-path="url(#p1005c69c8e)">
     <use xlink:href="#md7c7750714" x="319.72125" y="343.114061" style="fill: #32cd32; stroke: #32cd32"/>
     <use xlink:href="#md7c7750714" x="343.99425" y="310.473048" style="fill: #32cd32; stroke: #32cd32"/>
     <use xlink:href="#md7c7750714" x="372.03375" y="319.069354" style="fill: #32cd32; stroke: #32cd32"/>
     <use xlink:href="#md7c7750714" x="395.05125" y="323.43519" style="fill: #32cd32; stroke: #32cd32"/>
     <use xlink:href="#md7c7750714" x="413.46525" y="315.148313" style="fill: #32cd32; stroke: #32cd32"/>
     <use xlink:href="#md7c7750714" x="444.85275" y="340.627801" style="fill: #32cd32; stroke: #32cd32"/>
     <use xlink:href="#md7c7750714" x="475.82175" y="394.032931" style="fill: #32cd32; stroke: #32cd32"/>
     <use xlink:href="#md7c7750714" x="507.20925" y="431.818061" style="fill: #32cd32; stroke: #32cd32"/>
     <use xlink:href="#md7c7750714" x="538.59675" y="456.034366" style="fill: #32cd32; stroke: #32cd32"/>
    </g>
   </g>
   <g id="LineCollection_3">
    <path clip-path="url(#p1005c69c8e)" style="fill: none; stroke: #0000ff; stroke-width: 1.5"/>
    <path clip-path="url(#p1005c69c8e)" style="fill: none; stroke: #0000ff; stroke-width: 1.5"/>
    <path clip-path="url(#p1005c69c8e)" style="fill: none; stroke: #0000ff; stroke-width: 1.5"/>
    <path clip-path="url(#p1005c69c8e)" style="fill: none; stroke: #0000ff; stroke-width: 1.5"/>
    <path clip-path="url(#p1005c69c8e)" style="fill: none; stroke: #0000ff; stroke-width: 1.5"/>
    <path clip-path="url(#p1005c69c8e)" style="fill: none; stroke: #0000ff; stroke-width: 1.5"/>
    <path clip-path="url(#p1005c69c8e)" style="fill: none; stroke: #0000ff; stroke-width: 1.5"/>
    <path d="M 240.20625 310.473048 
L 240.20625 310.473048 
" clip-path="url(#p1005c69c8e)" style="fill: none; stroke: #0000ff; stroke-width: 1.5"/>
    <path d="M 252.34275 270.03006 
L 252.34275 270.03006 
" clip-path="url(#p1005c69c8e)" style="fill: none; stroke: #0000ff; stroke-width: 1.5"/>
    <path d="M 269.50125 227.707496 
L 269.50125 227.707496 
" clip-path="url(#p1005c69c8e)" style="fill: none; stroke: #0000ff; stroke-width: 1.5"/>
    <path d="M 286.24125 221.769048 
L 286.24125 221.769048 
" clip-path="url(#p1005c69c8e)" style="fill: none; stroke: #0000ff; stroke-width: 1.5"/>
    <path d="M 319.72125 219.628295 
L 319.72125 219.628295 
" clip-path="url(#p1005c69c8e)" style="fill: none; stroke: #0000ff; stroke-width: 1.5"/>
    <path d="M 343.99425 251.923801 
L 343.99425 251.923801 
" clip-path="url(#p1005c69c8e)" style="fill: none; stroke: #0000ff; stroke-width: 1.5"/>
    <path d="M 372.03375 254.410061 
L 372.03375 254.410061 
" clip-path="url(#p1005c69c8e)" style="fill: none; stroke: #0000ff; stroke-width: 1.5"/>
    <path d="M 395.05125 310.473048 
L 395.05125 310.473048 
" clip-path="url(#p1005c69c8e)" style="fill: none; stroke: #0000ff; stroke-width: 1.5"/>
    <path d="M 413.46525 292.36679 
L 413.46525 292.36679 
" clip-path="url(#p1005c69c8e)" style="fill: none; stroke: #0000ff; stroke-width: 1.5"/>
    <path d="M 444.85275 338.292319 
L 444.85275 338.292319 
" clip-path="url(#p1005c69c8e)" style="fill: none; stroke: #0000ff; stroke-width: 1.5"/>
    <path d="M 475.82175 362.792933 
L 475.82175 362.792933 
" clip-path="url(#p1005c69c8e)" style="fill: none; stroke: #0000ff; stroke-width: 1.5"/>
    <path clip-path="url(#p1005c69c8e)" style="fill: none; stroke: #0000ff; stroke-width: 1.5"/>
    <path clip-path="url(#p1005c69c8e)" style="fill: none; stroke: #0000ff; stroke-width: 1.5"/>
    <path clip-path="url(#p1005c69c8e)" style="fill: none; stroke: #0000ff; stroke-width: 1.5"/>
   </g>
   <g id="line2d_73">
    <defs>
     <path id="m7285df6cf6" d="M 5 0 
L -5 -0 
" style="stroke: #0000ff"/>
    </defs>
    <g clip-path="url(#p1005c69c8e)">
     <use xlink:href="#m7285df6cf6" x="240.20625" y="310.473048" style="fill: #0000ff; stroke: #0000ff"/>
     <use xlink:href="#m7285df6cf6" x="252.34275" y="270.03006" style="fill: #0000ff; stroke: #0000ff"/>
     <use xlink:href="#m7285df6cf6" x="269.50125" y="227.707496" style="fill: #0000ff; stroke: #0000ff"/>
     <use xlink:href="#m7285df6cf6" x="286.24125" y="221.769048" style="fill: #0000ff; stroke: #0000ff"/>
     <use xlink:href="#m7285df6cf6" x="319.72125" y="219.628295" style="fill: #0000ff; stroke: #0000ff"/>
     <use xlink:href="#m7285df6cf6" x="343.99425" y="251.923801" style="fill: #0000ff; stroke: #0000ff"/>
     <use xlink:href="#m7285df6cf6" x="372.03375" y="254.410061" style="fill: #0000ff; stroke: #0000ff"/>
     <use xlink:href="#m7285df6cf6" x="395.05125" y="310.473048" style="fill: #0000ff; stroke: #0000ff"/>
     <use xlink:href="#m7285df6cf6" x="413.46525" y="292.36679" style="fill: #0000ff; stroke: #0000ff"/>
     <use xlink:href="#m7285df6cf6" x="444.85275" y="338.292319" style="fill: #0000ff; stroke: #0000ff"/>
     <use xlink:href="#m7285df6cf6" x="475.82175" y="362.792933" style="fill: #0000ff; stroke: #0000ff"/>
    </g>
   </g>
   <g id="line2d_74">
    <g clip-path="url(#p1005c69c8e)">
     <use xlink:href="#m7285df6cf6" x="240.20625" y="310.473048" style="fill: #0000ff; stroke: #0000ff"/>
     <use xlink:href="#m7285df6cf6" x="252.34275" y="270.03006" style="fill: #0000ff; stroke: #0000ff"/>
     <use xlink:href="#m7285df6cf6" x="269.50125" y="227.707496" style="fill: #0000ff; stroke: #0000ff"/>
     <use xlink:href="#m7285df6cf6" x="286.24125" y="221.769048" style="fill: #0000ff; stroke: #0000ff"/>
     <use xlink:href="#m7285df6cf6" x="319.72125" y="219.628295" style="fill: #0000ff; stroke: #0000ff"/>
     <use xlink:href="#m7285df6cf6" x="343.99425" y="251.923801" style="fill: #0000ff; stroke: #0000ff"/>
     <use xlink:href="#m7285df6cf6" x="372.03375" y="254.410061" style="fill: #0000ff; stroke: #0000ff"/>
     <use xlink:href="#m7285df6cf6" x="395.05125" y="310.473048" style="fill: #0000ff; stroke: #0000ff"/>
     <use xlink:href="#m7285df6cf6" x="413.46525" y="292.36679" style="fill: #0000ff; stroke: #0000ff"/>
     <use xlink:href="#m7285df6cf6" x="444.85275" y="338.292319" style="fill: #0000ff; stroke: #0000ff"/>
     <use xlink:href="#m7285df6cf6" x="475.82175" y="362.792933" style="fill: #0000ff; stroke: #0000ff"/>
    </g>
   </g>
   <g id="LineCollection_4">
    <path clip-path="url(#p1005c69c8e)" style="fill: none; stroke: #ffd700; stroke-width: 1.5"/>
    <path clip-path="url(#p1005c69c8e)" style="fill: none; stroke: #ffd700; stroke-width: 1.5"/>
    <path d="M 164.87625 270.03006 
L 164.87625 270.03006 
" clip-path="url(#p1005c69c8e)" style="fill: none; stroke: #ffd700; stroke-width: 1.5"/>
    <path d="M 179.52375 211.24079 
L 179.52375 211.24079 
" clip-path="url(#p1005c69c8e)" style="fill: none; stroke: #ffd700; stroke-width: 1.5"/>
    <path d="M 195.42675 187.586884 
L 195.42675 187.586884 
" clip-path="url(#p1005c69c8e)" style="fill: none; stroke: #ffd700; stroke-width: 1.5"/>
    <path d="M 219.28125 175.277702 
L 219.28125 175.277702 
" clip-path="url(#p1005c69c8e)" style="fill: none; stroke: #ffd700; stroke-width: 1.5"/>
    <path d="M 233.92875 155.995985 
L 233.92875 155.995985 
" clip-path="url(#p1005c69c8e)" style="fill: none; stroke: #ffd700; stroke-width: 1.5"/>
    <path d="M 240.20625 162.74124 
L 240.20625 162.74124 
" clip-path="url(#p1005c69c8e)" style="fill: none; stroke: #ffd700; stroke-width: 1.5"/>
    <path d="M 252.34275 155.59883 
L 252.34275 155.59883 
" clip-path="url(#p1005c69c8e)" style="fill: none; stroke: #ffd700; stroke-width: 1.5"/>
    <path d="M 269.50125 189.922366 
L 269.50125 189.922366 
" clip-path="url(#p1005c69c8e)" style="fill: none; stroke: #ffd700; stroke-width: 1.5"/>
    <path d="M 286.24125 225.221237 
L 286.24125 225.221237 
" clip-path="url(#p1005c69c8e)" style="fill: none; stroke: #ffd700; stroke-width: 1.5"/>
    <path d="M 319.72125 270.03006 
L 319.72125 270.03006 
" clip-path="url(#p1005c69c8e)" style="fill: none; stroke: #ffd700; stroke-width: 1.5"/>
    <path d="M 343.99425 332.031496 
L 343.99425 332.031496 
" clip-path="url(#p1005c69c8e)" style="fill: none; stroke: #ffd700; stroke-width: 1.5"/>
    <path d="M 372.03375 319.069354 
L 372.03375 319.069354 
" clip-path="url(#p1005c69c8e)" style="fill: none; stroke: #ffd700; stroke-width: 1.5"/>
    <path clip-path="url(#p1005c69c8e)" style="fill: none; stroke: #ffd700; stroke-width: 1.5"/>
    <path d="M 413.46525 358.73406 
L 413.46525 358.73406 
" clip-path="url(#p1005c69c8e)" style="fill: none; stroke: #ffd700; stroke-width: 1.5"/>
    <path clip-path="url(#p1005c69c8e)" style="fill: none; stroke: #ffd700; stroke-width: 1.5"/>
    <path clip-path="url(#p1005c69c8e)" style="fill: none; stroke: #ffd700; stroke-width: 1.5"/>
    <path clip-path="url(#p1005c69c8e)" style="fill: none; stroke: #ffd700; stroke-width: 1.5"/>
    <path clip-path="url(#p1005c69c8e)" style="fill: none; stroke: #ffd700; stroke-width: 1.5"/>
    <path clip-path="url(#p1005c69c8e)" style="fill: none; stroke: #ffd700; stroke-width: 1.5"/>
   </g>
   <g id="line2d_75">
    <defs>
     <path id="m8cc5516ccc" d="M 5 0 
L -5 -0 
" style="stroke: #ffd700"/>
    </defs>
    <g clip-path="url(#p1005c69c8e)">
     <use xlink:href="#m8cc5516ccc" x="164.87625" y="270.03006" style="fill: #ffd700; stroke: #ffd700"/>
     <use xlink:href="#m8cc5516ccc" x="179.52375" y="211.24079" style="fill: #ffd700; stroke: #ffd700"/>
     <use xlink:href="#m8cc5516ccc" x="195.42675" y="187.586884" style="fill: #ffd700; stroke: #ffd700"/>
     <use xlink:href="#m8cc5516ccc" x="219.28125" y="175.277702" style="fill: #ffd700; stroke: #ffd700"/>
     <use xlink:href="#m8cc5516ccc" x="233.92875" y="155.995985" style="fill: #ffd700; stroke: #ffd700"/>
     <use xlink:href="#m8cc5516ccc" x="240.20625" y="162.74124" style="fill: #ffd700; stroke: #ffd700"/>
     <use xlink:href="#m8cc5516ccc" x="252.34275" y="155.59883" style="fill: #ffd700; stroke: #ffd700"/>
     <use xlink:href="#m8cc5516ccc" x="269.50125" y="189.922366" style="fill: #ffd700; stroke: #ffd700"/>
     <use xlink:href="#m8cc5516ccc" x="286.24125" y="225.221237" style="fill: #ffd700; stroke: #ffd700"/>
     <use xlink:href="#m8cc5516ccc" x="319.72125" y="270.03006" style="fill: #ffd700; stroke: #ffd700"/>
     <use xlink:href="#m8cc5516ccc" x="343.99425" y="332.031496" style="fill: #ffd700; stroke: #ffd700"/>
     <use xlink:href="#m8cc5516ccc" x="372.03375" y="319.069354" style="fill: #ffd700; stroke: #ffd700"/>
     <use xlink:href="#m8cc5516ccc" x="413.46525" y="358.73406" style="fill: #ffd700; stroke: #ffd700"/>
    </g>
   </g>
   <g id="line2d_76">
    <g clip-path="url(#p1005c69c8e)">
     <use xlink:href="#m8cc5516ccc" x="164.87625" y="270.03006" style="fill: #ffd700; stroke: #ffd700"/>
     <use xlink:href="#m8cc5516ccc" x="179.52375" y="211.24079" style="fill: #ffd700; stroke: #ffd700"/>
     <use xlink:href="#m8cc5516ccc" x="195.42675" y="187.586884" style="fill: #ffd700; stroke: #ffd700"/>
     <use xlink:href="#m8cc5516ccc" x="219.28125" y="175.277702" style="fill: #ffd700; stroke: #ffd700"/>
     <use xlink:href="#m8cc5516ccc" x="233.92875" y="155.995985" style="fill: #ffd700; stroke: #ffd700"/>
     <use xlink:href="#m8cc5516ccc" x="240.20625" y="162.74124" style="fill: #ffd700; stroke: #ffd700"/>
     <use xlink:href="#m8cc5516ccc" x="252.34275" y="155.59883" style="fill: #ffd700; stroke: #ffd700"/>
     <use xlink:href="#m8cc5516ccc" x="269.50125" y="189.922366" style="fill: #ffd700; stroke: #ffd700"/>
     <use xlink:href="#m8cc5516ccc" x="286.24125" y="225.221237" style="fill: #ffd700; stroke: #ffd700"/>
     <use xlink:href="#m8cc5516ccc" x="319.72125" y="270.03006" style="fill: #ffd700; stroke: #ffd700"/>
     <use xlink:href="#m8cc5516ccc" x="343.99425" y="332.031496" style="fill: #ffd700; stroke: #ffd700"/>
     <use xlink:href="#m8cc5516ccc" x="372.03375" y="319.069354" style="fill: #ffd700; stroke: #ffd700"/>
     <use xlink:href="#m8cc5516ccc" x="413.46525" y="358.73406" style="fill: #ffd700; stroke: #ffd700"/>
    </g>
   </g>
   <g id="LineCollection_5">
    <path d="M 138.09225 147.121241 
L 138.09225 147.121241 
" clip-path="url(#p1005c69c8e)" style="fill: none; stroke: #000000; stroke-width: 1.5"/>
    <path d="M 156.50625 95.417749 
L 156.50625 95.417749 
" clip-path="url(#p1005c69c8e)" style="fill: none; stroke: #000000; stroke-width: 1.5"/>
    <path d="M 164.87625 100.032929 
L 164.87625 100.032929 
" clip-path="url(#p1005c69c8e)" style="fill: none; stroke: #000000; stroke-width: 1.5"/>
    <path d="M 179.52375 87.237919 
L 179.52375 87.237919 
" clip-path="url(#p1005c69c8e)" style="fill: none; stroke: #000000; stroke-width: 1.5"/>
    <path d="M 195.42675 97.546669 
L 195.42675 97.546669 
" clip-path="url(#p1005c69c8e)" style="fill: none; stroke: #000000; stroke-width: 1.5"/>
    <path d="M 219.28125 122.120314 
L 219.28125 122.120314 
" clip-path="url(#p1005c69c8e)" style="fill: none; stroke: #000000; stroke-width: 1.5"/>
    <path d="M 233.92875 144.516264 
L 233.92875 144.516264 
" clip-path="url(#p1005c69c8e)" style="fill: none; stroke: #000000; stroke-width: 1.5"/>
    <path d="M 240.20625 160.884319 
L 240.20625 160.884319 
" clip-path="url(#p1005c69c8e)" style="fill: none; stroke: #000000; stroke-width: 1.5"/>
    <path d="M 252.34275 172.729754 
L 252.34275 172.729754 
" clip-path="url(#p1005c69c8e)" style="fill: none; stroke: #000000; stroke-width: 1.5"/>
    <path d="M 269.50125 221.769048 
L 269.50125 221.769048 
" clip-path="url(#p1005c69c8e)" style="fill: none; stroke: #000000; stroke-width: 1.5"/>
    <path d="M 286.24125 241.44792 
L 286.24125 241.44792 
" clip-path="url(#p1005c69c8e)" style="fill: none; stroke: #000000; stroke-width: 1.5"/>
    <path clip-path="url(#p1005c69c8e)" style="fill: none; stroke: #000000; stroke-width: 1.5"/>
    <path clip-path="url(#p1005c69c8e)" style="fill: none; stroke: #000000; stroke-width: 1.5"/>
    <path clip-path="url(#p1005c69c8e)" style="fill: none; stroke: #000000; stroke-width: 1.5"/>
    <path clip-path="url(#p1005c69c8e)" style="fill: none; stroke: #000000; stroke-width: 1.5"/>
    <path clip-path="url(#p1005c69c8e)" style="fill: none; stroke: #000000; stroke-width: 1.5"/>
    <path clip-path="url(#p1005c69c8e)" style="fill: none; stroke: #000000; stroke-width: 1.5"/>
    <path clip-path="url(#p1005c69c8e)" style="fill: none; stroke: #000000; stroke-width: 1.5"/>
    <path clip-path="url(#p1005c69c8e)" style="fill: none; stroke: #000000; stroke-width: 1.5"/>
    <path clip-path="url(#p1005c69c8e)" style="fill: none; stroke: #000000; stroke-width: 1.5"/>
    <path clip-path="url(#p1005c69c8e)" style="fill: none; stroke: #000000; stroke-width: 1.5"/>
   </g>
   <g id="line2d_77">
    <defs>
     <path id="m32c5b14abc" d="M 5 0 
L -5 -0 
" style="stroke: #000000"/>
    </defs>
    <g clip-path="url(#p1005c69c8e)">
     <use xlink:href="#m32c5b14abc" x="138.09225" y="147.121241" style="stroke: #000000"/>
     <use xlink:href="#m32c5b14abc" x="156.50625" y="95.417749" style="stroke: #000000"/>
     <use xlink:href="#m32c5b14abc" x="164.87625" y="100.032929" style="stroke: #000000"/>
     <use xlink:href="#m32c5b14abc" x="179.52375" y="87.237919" style="stroke: #000000"/>
     <use xlink:href="#m32c5b14abc" x="195.42675" y="97.546669" style="stroke: #000000"/>
     <use xlink:href="#m32c5b14abc" x="219.28125" y="122.120314" style="stroke: #000000"/>
     <use xlink:href="#m32c5b14abc" x="233.92875" y="144.516264" style="stroke: #000000"/>
     <use xlink:href="#m32c5b14abc" x="240.20625" y="160.884319" style="stroke: #000000"/>
     <use xlink:href="#m32c5b14abc" x="252.34275" y="172.729754" style="stroke: #000000"/>
     <use xlink:href="#m32c5b14abc" x="269.50125" y="221.769048" style="stroke: #000000"/>
     <use xlink:href="#m32c5b14abc" x="286.24125" y="241.44792" style="stroke: #000000"/>
    </g>
   </g>
   <g id="line2d_78">
    <g clip-path="url(#p1005c69c8e)">
     <use xlink:href="#m32c5b14abc" x="138.09225" y="147.121241" style="stroke: #000000"/>
     <use xlink:href="#m32c5b14abc" x="156.50625" y="95.417749" style="stroke: #000000"/>
     <use xlink:href="#m32c5b14abc" x="164.87625" y="100.032929" style="stroke: #000000"/>
     <use xlink:href="#m32c5b14abc" x="179.52375" y="87.237919" style="stroke: #000000"/>
     <use xlink:href="#m32c5b14abc" x="195.42675" y="97.546669" style="stroke: #000000"/>
     <use xlink:href="#m32c5b14abc" x="219.28125" y="122.120314" style="stroke: #000000"/>
     <use xlink:href="#m32c5b14abc" x="233.92875" y="144.516264" style="stroke: #000000"/>
     <use xlink:href="#m32c5b14abc" x="240.20625" y="160.884319" style="stroke: #000000"/>
     <use xlink:href="#m32c5b14abc" x="252.34275" y="172.729754" style="stroke: #000000"/>
     <use xlink:href="#m32c5b14abc" x="269.50125" y="221.769048" style="stroke: #000000"/>
     <use xlink:href="#m32c5b14abc" x="286.24125" y="241.44792" style="stroke: #000000"/>
    </g>
   </g>
   <g id="line2d_79">
    <defs>
     <path id="m3a3bf3aefe" d="M 0 2.5 
C 0.663008 2.5 1.29895 2.236584 1.767767 1.767767 
C 2.236584 1.29895 2.5 0.663008 2.5 0 
C 2.5 -0.663008 2.236584 -1.29895 1.767767 -1.767767 
C 1.29895 -2.236584 0.663008 -2.5 0 -2.5 
C -0.663008 -2.5 -1.29895 -2.236584 -1.767767 -1.767767 
C -2.236584 -1.29895 -2.5 -0.663008 -2.5 0 
C -2.5 0.663008 -2.236584 1.29895 -1.767767 1.767767 
C -1.29895 2.236584 -0.663008 2.5 0 2.5 
z
" style="stroke: #ff0000"/>
    </defs>
    <g clip-path="url(#p1005c69c8e)">
     <use xlink:href="#m3a3bf3aefe" x="395.05125" y="447.43806" style="fill: #ff0000; stroke: #ff0000"/>
     <use xlink:href="#m3a3bf3aefe" x="413.46525" y="434.475919" style="fill: #ff0000; stroke: #ff0000"/>
     <use xlink:href="#m3a3bf3aefe" x="444.85275" y="405.115496" style="fill: #ff0000; stroke: #ff0000"/>
     <use xlink:href="#m3a3bf3aefe" x="475.82175" y="399.177048" style="fill: #ff0000; stroke: #ff0000"/>
     <use xlink:href="#m3a3bf3aefe" x="507.20925" y="426.996319" style="fill: #ff0000; stroke: #ff0000"/>
     <use xlink:href="#m3a3bf3aefe" x="538.59675" y="447.43806" style="fill: #ff0000; stroke: #ff0000"/>
    </g>
   </g>
   <g id="line2d_80">
    <defs>
     <path id="m27e964bc98" d="M 0 2.5 
C 0.663008 2.5 1.29895 2.236584 1.767767 1.767767 
C 2.236584 1.29895 2.5 0.663008 2.5 0 
C 2.5 -0.663008 2.236584 -1.29895 1.767767 -1.767767 
C 1.29895 -2.236584 0.663008 -2.5 0 -2.5 
C -0.663008 -2.5 -1.29895 -2.236584 -1.767767 -1.767767 
C -2.236584 -1.29895 -2.5 -0.663008 -2.5 0 
C -2.5 0.663008 -2.236584 1.29895 -1.767767 1.767767 
C -1.29895 2.236584 -0.663008 2.5 0 2.5 
z
" style="stroke: #32cd32"/>
    </defs>
    <g clip-path="url(#p1005c69c8e)">
     <use xlink:href="#m27e964bc98" x="319.72125" y="343.114061" style="fill: #32cd32; stroke: #32cd32"/>
     <use xlink:href="#m27e964bc98" x="343.99425" y="310.473048" style="fill: #32cd32; stroke: #32cd32"/>
     <use xlink:href="#m27e964bc98" x="372.03375" y="319.069354" style="fill: #32cd32; stroke: #32cd32"/>
     <use xlink:href="#m27e964bc98" x="395.05125" y="323.43519" style="fill: #32cd32; stroke: #32cd32"/>
     <use xlink:href="#m27e964bc98" x="413.46525" y="315.148313" style="fill: #32cd32; stroke: #32cd32"/>
     <use xlink:href="#m27e964bc98" x="444.85275" y="340.627801" style="fill: #32cd32; stroke: #32cd32"/>
     <use xlink:href="#m27e964bc98" x="475.82175" y="394.032931" style="fill: #32cd32; stroke: #32cd32"/>
     <use xlink:href="#m27e964bc98" x="507.20925" y="431.818061" style="fill: #32cd32; stroke: #32cd32"/>
     <use xlink:href="#m27e964bc98" x="538.59675" y="456.034366" style="fill: #32cd32; stroke: #32cd32"/>
    </g>
   </g>
   <g id="line2d_81">
    <defs>
     <path id="ma601224a69" d="M 0 2.5 
C 0.663008 2.5 1.29895 2.236584 1.767767 1.767767 
C 2.236584 1.29895 2.5 0.663008 2.5 0 
C 2.5 -0.663008 2.236584 -1.29895 1.767767 -1.767767 
C 1.29895 -2.236584 0.663008 -2.5 0 -2.5 
C -0.663008 -2.5 -1.29895 -2.236584 -1.767767 -1.767767 
C -2.236584 -1.29895 -2.5 -0.663008 -2.5 0 
C -2.5 0.663008 -2.236584 1.29895 -1.767767 1.767767 
C -1.29895 2.236584 -0.663008 2.5 0 2.5 
z
" style="stroke: #0000ff"/>
    </defs>
    <g clip-path="url(#p1005c69c8e)">
     <use xlink:href="#ma601224a69" x="240.20625" y="310.473048" style="fill: #0000ff; stroke: #0000ff"/>
     <use xlink:href="#ma601224a69" x="252.34275" y="270.03006" style="fill: #0000ff; stroke: #0000ff"/>
     <use xlink:href="#ma601224a69" x="269.50125" y="227.707496" style="fill: #0000ff; stroke: #0000ff"/>
     <use xlink:href="#ma601224a69" x="286.24125" y="221.769048" style="fill: #0000ff; stroke: #0000ff"/>
     <use xlink:href="#ma601224a69" x="319.72125" y="219.628295" style="fill: #0000ff; stroke: #0000ff"/>
     <use xlink:href="#ma601224a69" x="343.99425" y="251.923801" style="fill: #0000ff; stroke: #0000ff"/>
     <use xlink:href="#ma601224a69" x="372.03375" y="254.410061" style="fill: #0000ff; stroke: #0000ff"/>
     <use xlink:href="#ma601224a69" x="395.05125" y="310.473048" style="fill: #0000ff; stroke: #0000ff"/>
     <use xlink:href="#ma601224a69" x="413.46525" y="292.36679" style="fill: #0000ff; stroke: #0000ff"/>
     <use xlink:href="#ma601224a69" x="444.85275" y="338.292319" style="fill: #0000ff; stroke: #0000ff"/>
     <use xlink:href="#ma601224a69" x="475.82175" y="362.792933" style="fill: #0000ff; stroke: #0000ff"/>
    </g>
   </g>
   <g id="line2d_82">
    <defs>
     <path id="m802d89af1f" d="M 0 2.5 
C 0.663008 2.5 1.29895 2.236584 1.767767 1.767767 
C 2.236584 1.29895 2.5 0.663008 2.5 0 
C 2.5 -0.663008 2.236584 -1.29895 1.767767 -1.767767 
C 1.29895 -2.236584 0.663008 -2.5 0 -2.5 
C -0.663008 -2.5 -1.29895 -2.236584 -1.767767 -1.767767 
C -2.236584 -1.29895 -2.5 -0.663008 -2.5 0 
C -2.5 0.663008 -2.236584 1.29895 -1.767767 1.767767 
C -1.29895 2.236584 -0.663008 2.5 0 2.5 
z
" style="stroke: #ffd700"/>
    </defs>
    <g clip-path="url(#p1005c69c8e)">
     <use xlink:href="#m802d89af1f" x="164.87625" y="270.03006" style="fill: #ffd700; stroke: #ffd700"/>
     <use xlink:href="#m802d89af1f" x="179.52375" y="211.24079" style="fill: #ffd700; stroke: #ffd700"/>
     <use xlink:href="#m802d89af1f" x="195.42675" y="187.586884" style="fill: #ffd700; stroke: #ffd700"/>
     <use xlink:href="#m802d89af1f" x="219.28125" y="175.277702" style="fill: #ffd700; stroke: #ffd700"/>
     <use xlink:href="#m802d89af1f" x="233.92875" y="155.995985" style="fill: #ffd700; stroke: #ffd700"/>
     <use xlink:href="#m802d89af1f" x="240.20625" y="162.74124" style="fill: #ffd700; stroke: #ffd700"/>
     <use xlink:href="#m802d89af1f" x="252.34275" y="155.59883" style="fill: #ffd700; stroke: #ffd700"/>
     <use xlink:href="#m802d89af1f" x="269.50125" y="189.922366" style="fill: #ffd700; stroke: #ffd700"/>
     <use xlink:href="#m802d89af1f" x="286.24125" y="225.221237" style="fill: #ffd700; stroke: #ffd700"/>
     <use xlink:href="#m802d89af1f" x="319.72125" y="270.03006" style="fill: #ffd700; stroke: #ffd700"/>
     <use xlink:href="#m802d89af1f" x="343.99425" y="332.031496" style="fill: #ffd700; stroke: #ffd700"/>
     <use xlink:href="#m802d89af1f" x="372.03375" y="319.069354" style="fill: #ffd700; stroke: #ffd700"/>
     <use xlink:href="#m802d89af1f" x="413.46525" y="358.73406" style="fill: #ffd700; stroke: #ffd700"/>
    </g>
   </g>
   <g id="line2d_83">
    <defs>
     <path id="m103409016d" d="M 0 2.5 
C 0.663008 2.5 1.29895 2.236584 1.767767 1.767767 
C 2.236584 1.29895 2.5 0.663008 2.5 0 
C 2.5 -0.663008 2.236584 -1.29895 1.767767 -1.767767 
C 1.29895 -2.236584 0.663008 -2.5 0 -2.5 
C -0.663008 -2.5 -1.29895 -2.236584 -1.767767 -1.767767 
C -2.236584 -1.29895 -2.5 -0.663008 -2.5 0 
C -2.5 0.663008 -2.236584 1.29895 -1.767767 1.767767 
C -1.29895 2.236584 -0.663008 2.5 0 2.5 
z
" style="stroke: #000000"/>
    </defs>
    <g clip-path="url(#p1005c69c8e)">
     <use xlink:href="#m103409016d" x="138.09225" y="147.121241" style="stroke: #000000"/>
     <use xlink:href="#m103409016d" x="156.50625" y="95.417749" style="stroke: #000000"/>
     <use xlink:href="#m103409016d" x="164.87625" y="100.032929" style="stroke: #000000"/>
     <use xlink:href="#m103409016d" x="179.52375" y="87.237919" style="stroke: #000000"/>
     <use xlink:href="#m103409016d" x="195.42675" y="97.546669" style="stroke: #000000"/>
     <use xlink:href="#m103409016d" x="219.28125" y="122.120314" style="stroke: #000000"/>
     <use xlink:href="#m103409016d" x="233.92875" y="144.516264" style="stroke: #000000"/>
     <use xlink:href="#m103409016d" x="240.20625" y="160.884319" style="stroke: #000000"/>
     <use xlink:href="#m103409016d" x="252.34275" y="172.729754" style="stroke: #000000"/>
     <use xlink:href="#m103409016d" x="269.50125" y="221.769048" style="stroke: #000000"/>
     <use xlink:href="#m103409016d" x="286.24125" y="241.44792" style="stroke: #000000"/>
    </g>
   </g>
   <g id="patch_3">
    <path d="M 72.80625 474.140625 
L 72.80625 30.620625 
" style="fill: none; stroke: #000000; stroke-width: 0.8; stroke-linejoin: miter; stroke-linecap: square"/>
   </g>
   <g id="patch_4">
    <path d="M 575.00625 474.140625 
L 575.00625 30.620625 
" style="fill: none; stroke: #000000; stroke-width: 0.8; stroke-linejoin: miter; stroke-linecap: square"/>
   </g>
   <g id="patch_5">
    <path d="M 72.80625 474.140625 
L 575.00625 474.140625 
" style="fill: none; stroke: #000000; stroke-width: 0.8; stroke-linejoin: miter; stroke-linecap: square"/>
   </g>
   <g id="patch_6">
    <path d="M 72.80625 30.620625 
L 575.00625 30.620625 
" style="fill: none; stroke: #000000; stroke-width: 0.8; stroke-linejoin: miter; stroke-linecap: square"/>
   </g>
   <g id="text_15">
    <!-- 40Ar+165Ho$\to$205At*, BF = 0.78 -->
    <g transform="translate(177.38625 20.877187)scale(0.18 -0.18)">
     <defs>
      <path id="DejaVuSans-41" d="M 2188 4044 
L 1331 1722 
L 3047 1722 
L 2188 4044 
z
M 1831 4666 
L 2547 4666 
L 4325 0 
L 3669 0 
L 3244 1197 
L 1141 1197 
L 716 0 
L 50 0 
L 1831 4666 
z
" transform="scale(0.015625)"/>
      <path id="DejaVuSans-72" d="M 2631 2963 
Q 2534 3019 2420 3045 
Q 2306 3072 2169 3072 
Q 1681 3072 1420 2755 
Q 1159 2438 1159 1844 
L 1159 0 
L 581 0 
L 581 3500 
L 1159 3500 
L 1159 2956 
Q 1341 3275 1631 3429 
Q 1922 3584 2338 3584 
Q 2397 3584 2469 3576 
Q 2541 3569 2628 3553 
L 2631 2963 
z
" transform="scale(0.015625)"/>
      <path id="DejaVuSans-2b" d="M 2944 4013 
L 2944 2272 
L 4684 2272 
L 4684 1741 
L 2944 1741 
L 2944 0 
L 2419 0 
L 2419 1741 
L 678 1741 
L 678 2272 
L 2419 2272 
L 2419 4013 
L 2944 4013 
z
" transform="scale(0.015625)"/>
      <path id="DejaVuSans-35" d="M 691 4666 
L 3169 4666 
L 3169 4134 
L 1269 4134 
L 1269 2991 
Q 1406 3038 1543 3061 
Q 1681 3084 1819 3084 
Q 2600 3084 3056 2656 
Q 3513 2228 3513 1497 
Q 3513 744 3044 326 
Q 2575 -91 1722 -91 
Q 1428 -91 1123 -41 
Q 819 9 494 109 
L 494 744 
Q 775 591 1075 516 
Q 1375 441 1709 441 
Q 2250 441 2565 725 
Q 2881 1009 2881 1497 
Q 2881 1984 2565 2268 
Q 2250 2553 1709 2553 
Q 1456 2553 1204 2497 
Q 953 2441 691 2322 
L 691 4666 
z
" transform="scale(0.015625)"/>
      <path id="DejaVuSans-48" d="M 628 4666 
L 1259 4666 
L 1259 2753 
L 3553 2753 
L 3553 4666 
L 4184 4666 
L 4184 0 
L 3553 0 
L 3553 2222 
L 1259 2222 
L 1259 0 
L 628 0 
L 628 4666 
z
" transform="scale(0.015625)"/>
      <path id="DejaVuSans-6f" d="M 1959 3097 
Q 1497 3097 1228 2736 
Q 959 2375 959 1747 
Q 959 1119 1226 758 
Q 1494 397 1959 397 
Q 2419 397 2687 759 
Q 2956 1122 2956 1747 
Q 2956 2369 2687 2733 
Q 2419 3097 1959 3097 
z
M 1959 3584 
Q 2709 3584 3137 3096 
Q 3566 2609 3566 1747 
Q 3566 888 3137 398 
Q 2709 -91 1959 -91 
Q 1206 -91 779 398 
Q 353 888 353 1747 
Q 353 2609 779 3096 
Q 1206 3584 1959 3584 
z
" transform="scale(0.015625)"/>
      <path id="DejaVuSans-2192" d="M 5050 2147 
L 5050 1866 
L 3822 638 
L 3447 1013 
L 4175 1741 
L 366 1741 
L 366 2272 
L 4175 2272 
L 3447 3000 
L 3822 3375 
L 5050 2147 
z
" transform="scale(0.015625)"/>
      <path id="DejaVuSans-74" d="M 1172 4494 
L 1172 3500 
L 2356 3500 
L 2356 3053 
L 1172 3053 
L 1172 1153 
Q 1172 725 1289 603 
Q 1406 481 1766 481 
L 2356 481 
L 2356 0 
L 1766 0 
Q 1100 0 847 248 
Q 594 497 594 1153 
L 594 3053 
L 172 3053 
L 172 3500 
L 594 3500 
L 594 4494 
L 1172 4494 
z
" transform="scale(0.015625)"/>
      <path id="DejaVuSans-2a" d="M 3009 3897 
L 1888 3291 
L 3009 2681 
L 2828 2375 
L 1778 3009 
L 1778 1831 
L 1422 1831 
L 1422 3009 
L 372 2375 
L 191 2681 
L 1313 3291 
L 191 3897 
L 372 4206 
L 1422 3572 
L 1422 4750 
L 1778 4750 
L 1778 3572 
L 2828 4206 
L 3009 3897 
z
" transform="scale(0.015625)"/>
      <path id="DejaVuSans-2c" d="M 750 794 
L 1409 794 
L 1409 256 
L 897 -744 
L 494 -744 
L 750 256 
L 750 794 
z
" transform="scale(0.015625)"/>
      <path id="DejaVuSans-42" d="M 1259 2228 
L 1259 519 
L 2272 519 
Q 2781 519 3026 730 
Q 3272 941 3272 1375 
Q 3272 1813 3026 2020 
Q 2781 2228 2272 2228 
L 1259 2228 
z
M 1259 4147 
L 1259 2741 
L 2194 2741 
Q 2656 2741 2882 2914 
Q 3109 3088 3109 3444 
Q 3109 3797 2882 3972 
Q 2656 4147 2194 4147 
L 1259 4147 
z
M 628 4666 
L 2241 4666 
Q 2963 4666 3353 4366 
Q 3744 4066 3744 3513 
Q 3744 3084 3544 2831 
Q 3344 2578 2956 2516 
Q 3422 2416 3680 2098 
Q 3938 1781 3938 1306 
Q 3938 681 3513 340 
Q 3088 0 2303 0 
L 628 0 
L 628 4666 
z
" transform="scale(0.015625)"/>
      <path id="DejaVuSans-46" d="M 628 4666 
L 3309 4666 
L 3309 4134 
L 1259 4134 
L 1259 2759 
L 3109 2759 
L 3109 2228 
L 1259 2228 
L 1259 0 
L 628 0 
L 628 4666 
z
" transform="scale(0.015625)"/>
      <path id="DejaVuSans-3d" d="M 678 2906 
L 4684 2906 
L 4684 2381 
L 678 2381 
L 678 2906 
z
M 678 1631 
L 4684 1631 
L 4684 1100 
L 678 1100 
L 678 1631 
z
" transform="scale(0.015625)"/>
      <path id="DejaVuSans-2e" d="M 684 794 
L 1344 794 
L 1344 0 
L 684 0 
L 684 794 
z
" transform="scale(0.015625)"/>
      <path id="DejaVuSans-37" d="M 525 4666 
L 3525 4666 
L 3525 4397 
L 1831 0 
L 1172 0 
L 2766 4134 
L 525 4134 
L 525 4666 
z
" transform="scale(0.015625)"/>
     </defs>
     <use xlink:href="#DejaVuSans-34" transform="translate(0 0.78125)"/>
     <use xlink:href="#DejaVuSans-30" transform="translate(63.623047 0.78125)"/>
     <use xlink:href="#DejaVuSans-41" transform="translate(127.246094 0.78125)"/>
     <use xlink:href="#DejaVuSans-72" transform="translate(195.654297 0.78125)"/>
     <use xlink:href="#DejaVuSans-2b" transform="translate(236.767578 0.78125)"/>
     <use xlink:href="#DejaVuSans-31" transform="translate(320.556641 0.78125)"/>
     <use xlink:href="#DejaVuSans-36" transform="translate(384.179688 0.78125)"/>
     <use xlink:href="#DejaVuSans-35" transform="translate(447.802734 0.78125)"/>
     <use xlink:href="#DejaVuSans-48" transform="translate(506.925781 0.78125)"/>
     <use xlink:href="#DejaVuSans-6f" transform="translate(582.121094 0.78125)"/>
     <use xlink:href="#DejaVuSans-2192" transform="translate(643.302734 0.78125)"/>
     <use xlink:href="#DejaVuSans-32" transform="translate(727.091797 0.78125)"/>
     <use xlink:href="#DejaVuSans-30" transform="translate(790.714844 0.78125)"/>
     <use xlink:href="#DejaVuSans-35" transform="translate(854.337891 0.78125)"/>
     <use xlink:href="#DejaVuSans-41" transform="translate(917.960938 0.78125)"/>
     <use xlink:href="#DejaVuSans-74" transform="translate(986.369141 0.78125)"/>
     <use xlink:href="#DejaVuSans-2a" transform="translate(1025.578125 0.78125)"/>
     <use xlink:href="#DejaVuSans-2c" transform="translate(1075.578125 0.78125)"/>
     <use xlink:href="#DejaVuSans-20" transform="translate(1107.365234 0.78125)"/>
     <use xlink:href="#DejaVuSans-42" transform="translate(1139.152344 0.78125)"/>
     <use xlink:href="#DejaVuSans-46" transform="translate(1207.755859 0.78125)"/>
     <use xlink:href="#DejaVuSans-20" transform="translate(1265.275391 0.78125)"/>
     <use xlink:href="#DejaVuSans-3d" transform="translate(1297.0625 0.78125)"/>
     <use xlink:href="#DejaVuSans-20" transform="translate(1380.851562 0.78125)"/>
     <use xlink:href="#DejaVuSans-30" transform="translate(1412.638672 0.78125)"/>
     <use xlink:href="#DejaVuSans-2e" transform="translate(1476.261719 0.78125)"/>
     <use xlink:href="#DejaVuSans-37" transform="translate(1500.298828 0.78125)"/>
     <use xlink:href="#DejaVuSans-38" transform="translate(1563.921875 0.78125)"/>
    </g>
   </g>
   <g id="legend_1">
    <g id="patch_7">
     <path d="M 471.996094 152.706562 
L 564.50625 152.706562 
Q 567.50625 152.706562 567.50625 149.706562 
L 567.50625 41.120625 
Q 567.50625 38.120625 564.50625 38.120625 
L 471.996094 38.120625 
Q 468.996094 38.120625 468.996094 41.120625 
L 468.996094 149.706562 
Q 468.996094 152.706562 471.996094 152.706562 
z
" style="fill: #ffffff; opacity: 0.8; stroke: #cccccc; stroke-linejoin: miter"/>
    </g>
    <g id="line2d_84">
     <path d="M 474.996094 50.268281 
L 489.996094 50.268281 
L 504.996094 50.268281 
" style="fill: none; stroke: #ff0000; stroke-width: 1.5; stroke-linecap: square"/>
    </g>
    <g id="text_16">
     <!-- 196At -->
     <g transform="translate(516.996094 55.518281)scale(0.15 -0.15)">
      <defs>
       <path id="DejaVuSans-39" d="M 703 97 
L 703 672 
Q 941 559 1184 500 
Q 1428 441 1663 441 
Q 2288 441 2617 861 
Q 2947 1281 2994 2138 
Q 2813 1869 2534 1725 
Q 2256 1581 1919 1581 
Q 1219 1581 811 2004 
Q 403 2428 403 3163 
Q 403 3881 828 4315 
Q 1253 4750 1959 4750 
Q 2769 4750 3195 4129 
Q 3622 3509 3622 2328 
Q 3622 1225 3098 567 
Q 2575 -91 1691 -91 
Q 1453 -91 1209 -44 
Q 966 3 703 97 
z
M 1959 2075 
Q 2384 2075 2632 2365 
Q 2881 2656 2881 3163 
Q 2881 3666 2632 3958 
Q 2384 4250 1959 4250 
Q 1534 4250 1286 3958 
Q 1038 3666 1038 3163 
Q 1038 2656 1286 2365 
Q 1534 2075 1959 2075 
z
" transform="scale(0.015625)"/>
      </defs>
      <use xlink:href="#DejaVuSans-31"/>
      <use xlink:href="#DejaVuSans-39" x="63.623047"/>
      <use xlink:href="#DejaVuSans-36" x="127.246094"/>
      <use xlink:href="#DejaVuSans-41" x="190.869141"/>
      <use xlink:href="#DejaVuSans-74" x="257.527344"/>
     </g>
    </g>
    <g id="line2d_85">
     <path d="M 474.996094 72.285469 
L 489.996094 72.285469 
L 504.996094 72.285469 
" style="fill: none; stroke: #32cd32; stroke-width: 1.5; stroke-linecap: square"/>
    </g>
    <g id="text_17">
     <!-- 197At -->
     <g transform="translate(516.996094 77.535469)scale(0.15 -0.15)">
      <use xlink:href="#DejaVuSans-31"/>
      <use xlink:href="#DejaVuSans-39" x="63.623047"/>
      <use xlink:href="#DejaVuSans-37" x="127.246094"/>
      <use xlink:href="#DejaVuSans-41" x="190.869141"/>
      <use xlink:href="#DejaVuSans-74" x="257.527344"/>
     </g>
    </g>
    <g id="line2d_86">
     <path d="M 474.996094 94.302656 
L 489.996094 94.302656 
L 504.996094 94.302656 
" style="fill: none; stroke: #0000ff; stroke-width: 1.5; stroke-linecap: square"/>
    </g>
    <g id="text_18">
     <!-- 198At -->
     <g transform="translate(516.996094 99.552656)scale(0.15 -0.15)">
      <use xlink:href="#DejaVuSans-31"/>
      <use xlink:href="#DejaVuSans-39" x="63.623047"/>
      <use xlink:href="#DejaVuSans-38" x="127.246094"/>
      <use xlink:href="#DejaVuSans-41" x="190.869141"/>
      <use xlink:href="#DejaVuSans-74" x="257.527344"/>
     </g>
    </g>
    <g id="line2d_87">
     <path d="M 474.996094 116.319844 
L 489.996094 116.319844 
L 504.996094 116.319844 
" style="fill: none; stroke: #ffd700; stroke-width: 1.5; stroke-linecap: square"/>
    </g>
    <g id="text_19">
     <!-- 199At -->
     <g transform="translate(516.996094 121.569844)scale(0.15 -0.15)">
      <use xlink:href="#DejaVuSans-31"/>
      <use xlink:href="#DejaVuSans-39" x="63.623047"/>
      <use xlink:href="#DejaVuSans-39" x="127.246094"/>
      <use xlink:href="#DejaVuSans-41" x="190.869141"/>
      <use xlink:href="#DejaVuSans-74" x="257.527344"/>
     </g>
    </g>
    <g id="line2d_88">
     <path d="M 474.996094 138.337031 
L 489.996094 138.337031 
L 504.996094 138.337031 
" style="fill: none; stroke: #000000; stroke-width: 1.5; stroke-linecap: square"/>
    </g>
    <g id="text_20">
     <!-- 200At -->
     <g transform="translate(516.996094 143.587031)scale(0.15 -0.15)">
      <use xlink:href="#DejaVuSans-32"/>
      <use xlink:href="#DejaVuSans-30" x="63.623047"/>
      <use xlink:href="#DejaVuSans-30" x="127.246094"/>
      <use xlink:href="#DejaVuSans-41" x="190.869141"/>
      <use xlink:href="#DejaVuSans-74" x="257.527344"/>
     </g>
    </g>
   </g>
  </g>
 </g>
 <defs>
  <clipPath id="p1005c69c8e">
   <rect x="72.80625" y="30.620625" width="502.2" height="443.52"/>
  </clipPath>
 </defs>
</svg>
