<?xml version="1.0" encoding="utf-8" standalone="no"?>
<!DOCTYPE svg PUBLIC "-//W3C//DTD SVG 1.1//EN"
  "http://www.w3.org/Graphics/SVG/1.1/DTD/svg11.dtd">
<svg xmlns:xlink="http://www.w3.org/1999/xlink" width="864pt" height="360pt" viewBox="0 0 864 360" xmlns="http://www.w3.org/2000/svg" version="1.1">
 <metadata>
  <rdf:RDF xmlns:dc="http://purl.org/dc/elements/1.1/" xmlns:cc="http://creativecommons.org/ns#" xmlns:rdf="http://www.w3.org/1999/02/22-rdf-syntax-ns#">
   <cc:Work>
    <dc:type rdf:resource="http://purl.org/dc/dcmitype/StillImage"/>
    <dc:date>2022-11-29T14:09:09.960373</dc:date>
    <dc:format>image/svg+xml</dc:format>
    <dc:creator>
     <cc:Agent>
      <dc:title>Matplotlib v3.5.3, https://matplotlib.org/</dc:title>
     </cc:Agent>
    </dc:creator>
   </cc:Work>
  </rdf:RDF>
 </metadata>
 <defs>
  <style type="text/css">*{stroke-linejoin: round; stroke-linecap: butt}</style>
 </defs>
 <g id="figure_1">
  <g id="patch_1">
   <path d="M 0 360 
L 864 360 
L 864 0 
L 0 0 
z
" style="fill: #ffffff"/>
  </g>
  <g id="axes_1">
   <g id="patch_2">
    <path d="M 108 320.4 
L 777.6 320.4 
L 777.6 43.2 
L 108 43.2 
z
" style="fill: #ffffff"/>
   </g>
   <g id="PolyCollection_1"/>
   <g id="PolyCollection_2"/>
   <g id="PolyCollection_3"/>
   <g id="PolyCollection_4"/>
   <g id="PolyCollection_5"/>
   <g id="PolyCollection_6"/>
   <g id="PolyCollection_7"/>
   <g id="PolyCollection_8"/>
   <g id="PolyCollection_9">
    <path d="M 66.11652 69481.8 
L 66.11652 69481.8 
L 77.4495 69481.8 
L 88.78248 69481.8 
L 100.10709 69481.8 
L 111.44007 69481.8 
L 122.77305 69481.8 
L 134.10603 69481.8 
L 145.43064 69481.8 
L 156.76362 69481.8 
L 168.0966 69481.8 
L 179.42958 69481.8 
L 190.75419 69481.8 
L 202.08717 69481.8 
L 213.42015 69481.8 
L 224.75313 69481.8 
L 236.07774 69481.8 
L 247.41072 69481.8 
L 258.7437 69481.8 
L 270.07668 69481.8 
L 281.40129 69481.8 
L 292.73427 69481.8 
L 304.06725 69481.8 
L 315.40023 595.846304 
L 326.72484 489.333104 
L 338.05782 410.621632 
L 349.3908 349.284325 
L 360.72378 300.45534 
L 372.04839 261.492695 
L 383.38137 230.846654 
L 394.71435 207.765847 
L 406.03896 191.354295 
L 417.37194 180.331582 
L 428.70492 173.673099 
L 440.0379 170.204909 
L 451.36251 169.596876 
L 462.69549 170.825479 
L 474.02847 174.136133 
L 485.36145 178.659118 
L 496.68606 184.309504 
L 508.01904 190.984503 
L 519.35202 198.455018 
L 530.685 206.645844 
L 542.00961 215.441841 
L 553.34259 224.626219 
L 564.67557 234.429937 
L 576.00855 244.384136 
L 587.33316 254.844923 
L 598.66614 265.487256 
L 609.99912 276.430725 
L 621.3321 287.536813 
L 632.65671 298.942629 
L 643.98969 310.489074 
L 655.32267 322.230239 
L 666.65565 334.3057 
L 677.98026 346.652484 
L 689.31324 360.482848 
L 700.64622 376.900884 
L 711.9792 418.505846 
L 723.30381 69481.8 
L 734.63679 69481.8 
L 745.96977 69481.8 
L 757.29438 69481.8 
L 768.62736 69481.8 
L 779.96034 69481.8 
L 791.29332 69481.8 
L 802.61793 69481.8 
L 813.95091 69481.8 
L 825.28389 69481.8 
L 836.61687 69481.8 
L 847.94148 69481.8 
L 859.27446 69481.8 
L 870.60744 69481.8 
L 881.94042 69481.8 
L 893.26503 69481.8 
L 893.26503 69481.8 
L 893.26503 69481.8 
L 881.94042 69481.8 
L 870.60744 69481.8 
L 859.27446 69481.8 
L 847.94148 69481.8 
L 836.61687 69481.8 
L 825.28389 69481.8 
L 813.95091 69481.8 
L 802.61793 69481.8 
L 791.29332 69481.8 
L 779.96034 69481.8 
L 768.62736 69481.8 
L 757.29438 69481.8 
L 745.96977 69481.8 
L 734.63679 69481.8 
L 723.30381 69481.8 
L 711.9792 428.011948 
L 700.64622 386.021664 
L 689.31324 366.802326 
L 677.98026 353.67592 
L 666.65565 341.021564 
L 655.32267 328.938108 
L 643.98969 316.989191 
L 632.65671 305.511321 
L 621.3321 294.051361 
L 609.99912 282.955167 
L 598.66614 272.021632 
L 587.33316 261.365437 
L 576.00855 251.1 
L 564.67557 240.973327 
L 553.34259 231.15534 
L 542.00961 221.997067 
L 530.685 213.224593 
L 519.35202 205.040311 
L 508.01904 197.52731 
L 496.68606 190.862242 
L 485.36145 185.17231 
L 474.02847 180.61959 
L 462.69549 177.59364 
L 451.36251 176.062974 
L 440.0379 176.818577 
L 428.70492 180.331582 
L 417.37194 187.083296 
L 406.03896 198.142594 
L 394.71435 214.624688 
L 383.38137 237.910013 
L 372.04839 268.65825 
L 360.72378 307.798239 
L 349.3908 356.735987 
L 338.05782 418.193961 
L 326.72484 497.097737 
L 315.40023 603.793729 
L 304.06725 69481.8 
L 292.73427 69481.8 
L 281.40129 69481.8 
L 270.07668 69481.8 
L 258.7437 69481.8 
L 247.41072 69481.8 
L 236.07774 69481.8 
L 224.75313 69481.8 
L 213.42015 69481.8 
L 202.08717 69481.8 
L 190.75419 69481.8 
L 179.42958 69481.8 
L 168.0966 69481.8 
L 156.76362 69481.8 
L 145.43064 69481.8 
L 134.10603 69481.8 
L 122.77305 69481.8 
L 111.44007 69481.8 
L 100.10709 69481.8 
L 88.78248 69481.8 
L 77.4495 69481.8 
L 66.11652 69481.8 
z
" clip-path="url(#p12c3bc3f55)" style="fill: #ff0000; fill-opacity: 0.15; stroke: #ff0000; stroke-opacity: 0.15"/>
   </g>
   <g id="PolyCollection_10">
    <path d="M 66.11652 69481.8 
L 66.11652 69481.8 
L 77.4495 69481.8 
L 88.78248 69481.8 
L 100.10709 69481.8 
L 111.44007 69481.8 
L 122.77305 69481.8 
L 134.10603 69481.8 
L 145.43064 69481.8 
L 156.76362 69481.8 
L 168.0966 69481.8 
L 179.42958 69481.8 
L 190.75419 69481.8 
L 202.08717 69481.8 
L 213.42015 69481.8 
L 224.75313 69481.8 
L 236.07774 69481.8 
L 247.41072 69481.8 
L 258.7437 69481.8 
L 270.07668 69481.8 
L 281.40129 69481.8 
L 292.73427 69481.8 
L 304.06725 69481.8 
L 315.40023 595.846304 
L 326.72484 489.333104 
L 338.05782 410.621632 
L 349.3908 349.284325 
L 360.72378 300.45534 
L 372.04839 261.492695 
L 383.38137 230.846654 
L 394.71435 207.765847 
L 406.03896 191.354295 
L 417.37194 180.331582 
L 428.70492 173.673099 
L 440.0379 170.204909 
L 451.36251 169.596876 
L 462.69549 170.825479 
L 474.02847 174.136133 
L 485.36145 178.659118 
L 496.68606 184.309504 
L 508.01904 190.984503 
L 519.35202 198.455018 
L 530.685 206.645844 
L 542.00961 215.441841 
L 553.34259 224.626219 
L 564.67557 234.429937 
L 576.00855 244.384136 
L 587.33316 254.844923 
L 598.66614 265.487256 
L 609.99912 276.430725 
L 621.3321 287.536813 
L 632.65671 298.942629 
L 643.98969 310.489074 
L 655.32267 322.230239 
L 666.65565 334.3057 
L 677.98026 346.652484 
L 689.31324 360.482848 
L 700.64622 376.900884 
L 711.9792 418.505846 
L 723.30381 69481.8 
L 734.63679 69481.8 
L 745.96977 69481.8 
L 757.29438 69481.8 
L 768.62736 69481.8 
L 779.96034 69481.8 
L 791.29332 69481.8 
L 802.61793 69481.8 
L 813.95091 69481.8 
L 825.28389 69481.8 
L 836.61687 69481.8 
L 847.94148 69481.8 
L 859.27446 69481.8 
L 870.60744 69481.8 
L 881.94042 69481.8 
L 893.26503 69481.8 
L 893.26503 69481.8 
L 893.26503 69481.8 
L 881.94042 69481.8 
L 870.60744 69481.8 
L 859.27446 69481.8 
L 847.94148 69481.8 
L 836.61687 69481.8 
L 825.28389 69481.8 
L 813.95091 69481.8 
L 802.61793 69481.8 
L 791.29332 69481.8 
L 779.96034 69481.8 
L 768.62736 69481.8 
L 757.29438 69481.8 
L 745.96977 69481.8 
L 734.63679 69481.8 
L 723.30381 446.998192 
L 711.9792 395.893729 
L 700.64622 368.390525 
L 689.31324 352.342026 
L 677.98026 338.61255 
L 666.65565 326.299383 
L 655.32267 314.415264 
L 643.98969 302.542875 
L 632.65671 290.955703 
L 621.3321 279.67163 
L 609.99912 268.55057 
L 598.66614 257.628345 
L 587.33316 246.89364 
L 576.00855 236.580609 
L 564.67557 226.560285 
L 553.34259 216.855087 
L 542.00961 207.623546 
L 530.685 198.876694 
L 519.35202 190.699996 
L 508.01904 183.217298 
L 496.68606 176.564596 
L 485.36145 170.825479 
L 474.02847 166.365749 
L 462.69549 163.284999 
L 451.36251 162.010878 
L 440.0379 162.800861 
L 428.70492 166.186067 
L 417.37194 172.991637 
L 406.03896 184.113859 
L 394.71435 200.625083 
L 383.38137 223.764499 
L 372.04839 254.33795 
L 360.72378 293.186101 
L 349.3908 341.869412 
L 338.05782 403.037823 
L 326.72484 481.659651 
L 315.40023 588.125265 
L 304.06725 69481.8 
L 292.73427 69481.8 
L 281.40129 69481.8 
L 270.07668 69481.8 
L 258.7437 69481.8 
L 247.41072 69481.8 
L 236.07774 69481.8 
L 224.75313 69481.8 
L 213.42015 69481.8 
L 202.08717 69481.8 
L 190.75419 69481.8 
L 179.42958 69481.8 
L 168.0966 69481.8 
L 156.76362 69481.8 
L 145.43064 69481.8 
L 134.10603 69481.8 
L 122.77305 69481.8 
L 111.44007 69481.8 
L 100.10709 69481.8 
L 88.78248 69481.8 
L 77.4495 69481.8 
L 66.11652 69481.8 
z
" clip-path="url(#p12c3bc3f55)" style="fill: #ff0000; fill-opacity: 0.15; stroke: #ff0000; stroke-opacity: 0.15"/>
   </g>
   <g id="PolyCollection_11">
    <path d="M 224.75313 69481.8 
L 224.75313 69481.8 
L 236.07774 69481.8 
L 247.41072 69481.8 
L 258.7437 69481.8 
L 270.07668 69481.8 
L 281.40129 69481.8 
L 292.73427 69481.8 
L 304.06725 69481.8 
L 315.40023 617.630256 
L 326.72484 492.27592 
L 338.05782 404.135838 
L 349.3908 340.080968 
L 360.72378 291.642347 
L 372.04839 254.004651 
L 383.38137 224.751361 
L 394.71435 203.024722 
L 406.03896 187.7727 
L 417.37194 177.59364 
L 428.70492 171.673327 
L 440.0379 168.804814 
L 451.36251 168.610013 
L 462.69549 170.204909 
L 474.02847 173.673099 
L 485.36145 178.389191 
L 496.68606 184.146378 
L 508.01904 190.90294 
L 519.35202 198.402722 
L 530.685 206.645844 
L 542.00961 215.441841 
L 553.34259 224.626219 
L 564.67557 234.429937 
L 576.00855 244.384136 
L 587.33316 254.810858 
L 598.66614 265.487256 
L 609.99912 276.430725 
L 621.3321 287.536813 
L 632.65671 298.942629 
L 643.98969 310.489074 
L 655.32267 322.230239 
L 666.65565 334.257965 
L 677.98026 346.652484 
L 689.31324 360.482848 
L 700.64622 376.900884 
L 711.9792 418.505846 
L 723.30381 69481.8 
L 734.63679 69481.8 
L 745.96977 69481.8 
L 757.29438 69481.8 
L 768.62736 69481.8 
L 779.96034 69481.8 
L 791.29332 69481.8 
L 802.61793 69481.8 
L 813.95091 69481.8 
L 825.28389 69481.8 
L 836.61687 69481.8 
L 847.94148 69481.8 
L 859.27446 69481.8 
L 870.60744 69481.8 
L 881.94042 69481.8 
L 881.94042 69481.8 
L 881.94042 69481.8 
L 870.60744 69481.8 
L 859.27446 69481.8 
L 847.94148 69481.8 
L 836.61687 69481.8 
L 825.28389 69481.8 
L 813.95091 69481.8 
L 802.61793 69481.8 
L 791.29332 69481.8 
L 779.96034 69481.8 
L 768.62736 69481.8 
L 757.29438 69481.8 
L 745.96977 69481.8 
L 734.63679 69481.8 
L 723.30381 69481.8 
L 711.9792 428.011948 
L 700.64622 386.021664 
L 689.31324 366.802326 
L 677.98026 353.67592 
L 666.65565 341.021564 
L 655.32267 328.938108 
L 643.98969 316.989191 
L 632.65671 305.328363 
L 621.3321 294.051361 
L 609.99912 282.955167 
L 598.66614 272.021632 
L 587.33316 261.365437 
L 576.00855 251.1 
L 564.67557 240.973327 
L 553.34259 231.15534 
L 542.00961 221.997067 
L 530.685 213.139213 
L 519.35202 204.975237 
L 508.01904 197.425974 
L 496.68606 190.699996 
L 485.36145 184.904187 
L 474.02847 180.331582 
L 462.69549 176.818577 
L 451.36251 175.084136 
L 440.0379 175.569576 
L 428.70492 178.389191 
L 417.37194 184.407805 
L 406.03896 194.580462 
L 394.71435 209.985276 
L 383.38137 231.782375 
L 372.04839 261.112523 
L 360.72378 298.942629 
L 349.3908 347.529146 
L 338.05782 411.66484 
L 326.72484 500.00897 
L 315.40023 625.479724 
L 304.06725 69481.8 
L 292.73427 69481.8 
L 281.40129 69481.8 
L 270.07668 69481.8 
L 258.7437 69481.8 
L 247.41072 69481.8 
L 236.07774 69481.8 
L 224.75313 69481.8 
z
" clip-path="url(#p12c3bc3f55)" style="fill: #ff0000; fill-opacity: 0.15; stroke: #ff0000; stroke-opacity: 0.15"/>
   </g>
   <g id="PolyCollection_12">
    <path d="M 224.75313 69481.8 
L 224.75313 69481.8 
L 236.07774 69481.8 
L 247.41072 69481.8 
L 258.7437 69481.8 
L 270.07668 69481.8 
L 281.40129 69481.8 
L 292.73427 69481.8 
L 304.06725 69481.8 
L 315.40023 617.630256 
L 326.72484 492.27592 
L 338.05782 404.135838 
L 349.3908 340.080968 
L 360.72378 291.642347 
L 372.04839 254.004651 
L 383.38137 224.751361 
L 394.71435 203.024722 
L 406.03896 187.7727 
L 417.37194 177.59364 
L 428.70492 171.673327 
L 440.0379 168.804814 
L 451.36251 168.610013 
L 462.69549 170.204909 
L 474.02847 173.673099 
L 485.36145 178.389191 
L 496.68606 184.146378 
L 508.01904 190.90294 
L 519.35202 198.402722 
L 530.685 206.645844 
L 542.00961 215.441841 
L 553.34259 224.626219 
L 564.67557 234.429937 
L 576.00855 244.384136 
L 587.33316 254.810858 
L 598.66614 265.487256 
L 609.99912 276.430725 
L 621.3321 287.536813 
L 632.65671 298.942629 
L 643.98969 310.489074 
L 655.32267 322.230239 
L 666.65565 334.257965 
L 677.98026 346.652484 
L 689.31324 360.482848 
L 700.64622 376.900884 
L 711.9792 418.505846 
L 723.30381 69481.8 
L 734.63679 69481.8 
L 745.96977 69481.8 
L 757.29438 69481.8 
L 768.62736 69481.8 
L 779.96034 69481.8 
L 791.29332 69481.8 
L 802.61793 69481.8 
L 813.95091 69481.8 
L 825.28389 69481.8 
L 836.61687 69481.8 
L 847.94148 69481.8 
L 859.27446 69481.8 
L 870.60744 69481.8 
L 881.94042 69481.8 
L 881.94042 69481.8 
L 881.94042 69481.8 
L 870.60744 69481.8 
L 859.27446 69481.8 
L 847.94148 69481.8 
L 836.61687 69481.8 
L 825.28389 69481.8 
L 813.95091 69481.8 
L 802.61793 69481.8 
L 791.29332 69481.8 
L 779.96034 69481.8 
L 768.62736 69481.8 
L 757.29438 69481.8 
L 745.96977 69481.8 
L 734.63679 69481.8 
L 723.30381 446.998192 
L 711.9792 395.893729 
L 700.64622 368.390525 
L 689.31324 352.342026 
L 677.98026 338.61255 
L 666.65565 326.299383 
L 655.32267 314.169576 
L 643.98969 302.542875 
L 632.65671 290.955703 
L 621.3321 279.67163 
L 609.99912 268.496874 
L 598.66614 257.590982 
L 587.33316 246.89364 
L 576.00855 236.580609 
L 564.67557 226.560285 
L 553.34259 216.855087 
L 542.00961 207.552647 
L 530.685 198.82366 
L 519.35202 190.65957 
L 508.01904 183.122803 
L 496.68606 176.31274 
L 485.36145 170.617197 
L 474.02847 166.007451 
L 462.69549 162.641197 
L 451.36251 160.938621 
L 440.0379 161.393491 
L 428.70492 164.277285 
L 417.37194 170.410347 
L 406.03896 180.61959 
L 394.71435 195.897399 
L 383.38137 217.636861 
L 372.04839 246.89364 
L 360.72378 284.37592 
L 349.3908 332.67846 
L 338.05782 396.566724 
L 326.72484 484.540947 
L 315.40023 609.742991 
L 304.06725 69481.8 
L 292.73427 69481.8 
L 281.40129 69481.8 
L 270.07668 69481.8 
L 258.7437 69481.8 
L 247.41072 69481.8 
L 236.07774 69481.8 
L 224.75313 69481.8 
z
" clip-path="url(#p12c3bc3f55)" style="fill: #ff0000; fill-opacity: 0.15; stroke: #ff0000; stroke-opacity: 0.15"/>
   </g>
   <g id="PolyCollection_13">
    <path d="M 66.11652 69481.8 
L 66.11652 69481.8 
L 77.4495 69481.8 
L 88.78248 69481.8 
L 100.10709 69481.8 
L 111.44007 69481.8 
L 122.77305 69481.8 
L 134.10603 69481.8 
L 145.43064 69481.8 
L 156.76362 69481.8 
L 168.0966 69481.8 
L 179.42958 69481.8 
L 190.75419 69481.8 
L 202.08717 470.124171 
L 213.42015 366.244965 
L 224.75313 290.284375 
L 236.07774 233.577285 
L 247.41072 191.980896 
L 258.7437 163.122753 
L 270.07668 144.968511 
L 281.40129 134.278098 
L 292.73427 128.89444 
L 304.06725 127.525024 
L 315.40023 129.155018 
L 326.72484 133.121564 
L 338.05782 139.041876 
L 349.3908 146.419231 
L 360.72378 155.201595 
L 372.04839 165.129937 
L 383.38137 175.815264 
L 394.71435 187.444171 
L 406.03896 199.683622 
L 417.37194 212.464751 
L 428.70492 225.771683 
L 440.0379 239.504909 
L 451.36251 253.609504 
L 462.69549 268.229821 
L 474.02847 283.480122 
L 485.36145 300.924388 
L 496.68606 321.22378 
L 508.01904 366.662015 
L 519.35202 69481.8 
L 530.685 69481.8 
L 542.00961 69481.8 
L 553.34259 69481.8 
L 564.67557 69481.8 
L 576.00855 69481.8 
L 587.33316 69481.8 
L 598.66614 69481.8 
L 609.99912 69481.8 
L 621.3321 69481.8 
L 632.65671 69481.8 
L 643.98969 69481.8 
L 655.32267 69481.8 
L 666.65565 69481.8 
L 677.98026 69481.8 
L 689.31324 69481.8 
L 700.64622 69481.8 
L 711.9792 69481.8 
L 723.30381 69481.8 
L 734.63679 69481.8 
L 745.96977 69481.8 
L 757.29438 69481.8 
L 768.62736 69481.8 
L 779.96034 69481.8 
L 791.29332 69481.8 
L 802.61793 69481.8 
L 813.95091 69481.8 
L 825.28389 69481.8 
L 836.61687 69481.8 
L 847.94148 69481.8 
L 859.27446 69481.8 
L 870.60744 69481.8 
L 881.94042 69481.8 
L 893.26503 69481.8 
L 893.26503 69481.8 
L 893.26503 69481.8 
L 881.94042 69481.8 
L 870.60744 69481.8 
L 859.27446 69481.8 
L 847.94148 69481.8 
L 836.61687 69481.8 
L 825.28389 69481.8 
L 813.95091 69481.8 
L 802.61793 69481.8 
L 791.29332 69481.8 
L 779.96034 69481.8 
L 768.62736 69481.8 
L 757.29438 69481.8 
L 745.96977 69481.8 
L 734.63679 69481.8 
L 723.30381 69481.8 
L 711.9792 69481.8 
L 700.64622 69481.8 
L 689.31324 69481.8 
L 677.98026 69481.8 
L 666.65565 69481.8 
L 655.32267 69481.8 
L 643.98969 69481.8 
L 632.65671 69481.8 
L 621.3321 69481.8 
L 609.99912 69481.8 
L 598.66614 69481.8 
L 587.33316 69481.8 
L 576.00855 69481.8 
L 564.67557 69481.8 
L 553.34259 69481.8 
L 542.00961 69481.8 
L 530.685 69481.8 
L 519.35202 69481.8 
L 508.01904 372.515453 
L 496.68606 329.50294 
L 485.36145 306.824154 
L 474.02847 289.304652 
L 462.69549 274.01634 
L 451.36251 259.359618 
L 440.0379 245.362974 
L 428.70492 231.467225 
L 417.37194 218.236813 
L 406.03896 205.433736 
L 394.71435 193.230612 
L 383.38137 181.500529 
L 372.04839 170.825479 
L 360.72378 161.089482 
L 349.3908 152.24277 
L 338.05782 144.791991 
L 326.72484 138.969267 
L 315.40023 134.968561 
L 304.06725 133.421632 
L 292.73427 134.841838 
L 281.40129 140.228103 
L 270.07668 150.919629 
L 258.7437 169.198239 
L 247.41072 198.19444 
L 236.07774 239.917197 
L 224.75313 296.807223 
L 213.42015 372.857463 
L 202.08717 476.992866 
L 190.75419 69481.8 
L 179.42958 69481.8 
L 168.0966 69481.8 
L 156.76362 69481.8 
L 145.43064 69481.8 
L 134.10603 69481.8 
L 122.77305 69481.8 
L 111.44007 69481.8 
L 100.10709 69481.8 
L 88.78248 69481.8 
L 77.4495 69481.8 
L 66.11652 69481.8 
z
" clip-path="url(#p12c3bc3f55)" style="fill: #32cd32; fill-opacity: 0.15; stroke: #32cd32; stroke-opacity: 0.15"/>
   </g>
   <g id="PolyCollection_14">
    <path d="M 66.11652 69481.8 
L 66.11652 69481.8 
L 77.4495 69481.8 
L 88.78248 69481.8 
L 100.10709 69481.8 
L 111.44007 69481.8 
L 122.77305 69481.8 
L 134.10603 69481.8 
L 145.43064 69481.8 
L 156.76362 69481.8 
L 168.0966 69481.8 
L 179.42958 69481.8 
L 190.75419 69481.8 
L 202.08717 470.124171 
L 213.42015 366.244965 
L 224.75313 290.284375 
L 236.07774 233.577285 
L 247.41072 191.980896 
L 258.7437 163.122753 
L 270.07668 144.968511 
L 281.40129 134.278098 
L 292.73427 128.89444 
L 304.06725 127.525024 
L 315.40023 129.155018 
L 326.72484 133.121564 
L 338.05782 139.041876 
L 349.3908 146.419231 
L 360.72378 155.201595 
L 372.04839 165.129937 
L 383.38137 175.815264 
L 394.71435 187.444171 
L 406.03896 199.683622 
L 417.37194 212.464751 
L 428.70492 225.771683 
L 440.0379 239.504909 
L 451.36251 253.609504 
L 462.69549 268.229821 
L 474.02847 283.480122 
L 485.36145 300.924388 
L 496.68606 321.22378 
L 508.01904 366.662015 
L 519.35202 69481.8 
L 530.685 69481.8 
L 542.00961 69481.8 
L 553.34259 69481.8 
L 564.67557 69481.8 
L 576.00855 69481.8 
L 587.33316 69481.8 
L 598.66614 69481.8 
L 609.99912 69481.8 
L 621.3321 69481.8 
L 632.65671 69481.8 
L 643.98969 69481.8 
L 655.32267 69481.8 
L 666.65565 69481.8 
L 677.98026 69481.8 
L 689.31324 69481.8 
L 700.64622 69481.8 
L 711.9792 69481.8 
L 723.30381 69481.8 
L 734.63679 69481.8 
L 745.96977 69481.8 
L 757.29438 69481.8 
L 768.62736 69481.8 
L 779.96034 69481.8 
L 791.29332 69481.8 
L 802.61793 69481.8 
L 813.95091 69481.8 
L 825.28389 69481.8 
L 836.61687 69481.8 
L 847.94148 69481.8 
L 859.27446 69481.8 
L 870.60744 69481.8 
L 881.94042 69481.8 
L 893.26503 69481.8 
L 893.26503 69481.8 
L 893.26503 69481.8 
L 881.94042 69481.8 
L 870.60744 69481.8 
L 859.27446 69481.8 
L 847.94148 69481.8 
L 836.61687 69481.8 
L 825.28389 69481.8 
L 813.95091 69481.8 
L 802.61793 69481.8 
L 791.29332 69481.8 
L 779.96034 69481.8 
L 768.62736 69481.8 
L 757.29438 69481.8 
L 745.96977 69481.8 
L 734.63679 69481.8 
L 723.30381 69481.8 
L 711.9792 69481.8 
L 700.64622 69481.8 
L 689.31324 69481.8 
L 677.98026 69481.8 
L 666.65565 69481.8 
L 655.32267 69481.8 
L 643.98969 69481.8 
L 632.65671 69481.8 
L 621.3321 69481.8 
L 609.99912 69481.8 
L 598.66614 69481.8 
L 587.33316 69481.8 
L 576.00855 69481.8 
L 564.67557 69481.8 
L 553.34259 69481.8 
L 542.00961 69481.8 
L 530.685 69481.8 
L 519.35202 69481.8 
L 508.01904 357.24353 
L 496.68606 311.145754 
L 485.36145 292.702611 
L 474.02847 276.152694 
L 462.69549 261.154528 
L 451.36251 246.633061 
L 440.0379 232.584999 
L 428.70492 218.848968 
L 417.37194 205.566029 
L 406.03896 192.837187 
L 394.71435 180.61959 
L 383.38137 169.000884 
L 372.04839 158.344965 
L 360.72378 148.535519 
L 349.3908 139.85236 
L 338.05782 132.471759 
L 326.72484 126.645515 
L 315.40023 122.723136 
L 304.06725 121.19841 
L 292.73427 122.638714 
L 281.40129 128.024979 
L 270.07668 138.752484 
L 258.7437 156.995115 
L 247.41072 185.750128 
L 236.07774 227.233615 
L 224.75313 283.835248 
L 213.42015 359.584375 
L 202.08717 463.260583 
L 190.75419 69481.8 
L 179.42958 69481.8 
L 168.0966 69481.8 
L 156.76362 69481.8 
L 145.43064 69481.8 
L 134.10603 69481.8 
L 122.77305 69481.8 
L 111.44007 69481.8 
L 100.10709 69481.8 
L 88.78248 69481.8 
L 77.4495 69481.8 
L 66.11652 69481.8 
z
" clip-path="url(#p12c3bc3f55)" style="fill: #32cd32; fill-opacity: 0.15; stroke: #32cd32; stroke-opacity: 0.15"/>
   </g>
   <g id="PolyCollection_15">
    <path d="M 224.75313 651.107451 
L 224.75313 644.570203 
L 236.07774 576.290525 
L 247.41072 390.063344 
L 258.7437 332.49797 
L 270.07668 286.348635 
L 281.40129 246.89364 
L 292.73427 212.631955 
L 304.06725 182.592864 
L 315.40023 158.070108 
L 326.72484 142.261374 
L 338.05782 136.733689 
L 349.3908 139.407575 
L 360.72378 147.076593 
L 372.04839 157.393751 
L 383.38137 169.198239 
L 394.71435 182.072096 
L 406.03896 195.467781 
L 417.37194 209.227135 
L 428.70492 223.282943 
L 440.0379 237.716465 
L 451.36251 252.297269 
L 462.69549 267.28759 
L 474.02847 282.610217 
L 485.36145 300.767225 
L 496.68606 321.100307 
L 508.01904 366.662015 
L 519.35202 69481.8 
L 530.685 69481.8 
L 542.00961 69481.8 
L 553.34259 69481.8 
L 564.67557 69481.8 
L 576.00855 69481.8 
L 587.33316 69481.8 
L 598.66614 69481.8 
L 609.99912 69481.8 
L 621.3321 69481.8 
L 632.65671 69481.8 
L 643.98969 69481.8 
L 655.32267 69481.8 
L 666.65565 69481.8 
L 677.98026 69481.8 
L 689.31324 69481.8 
L 700.64622 69481.8 
L 711.9792 69481.8 
L 723.30381 69481.8 
L 734.63679 69481.8 
L 745.96977 69481.8 
L 757.29438 69481.8 
L 768.62736 69481.8 
L 779.96034 69481.8 
L 791.29332 69481.8 
L 802.61793 69481.8 
L 813.95091 69481.8 
L 825.28389 69481.8 
L 836.61687 69481.8 
L 847.94148 69481.8 
L 859.27446 69481.8 
L 870.60744 69481.8 
L 881.94042 69481.8 
L 881.94042 69481.8 
L 881.94042 69481.8 
L 870.60744 69481.8 
L 859.27446 69481.8 
L 847.94148 69481.8 
L 836.61687 69481.8 
L 825.28389 69481.8 
L 813.95091 69481.8 
L 802.61793 69481.8 
L 791.29332 69481.8 
L 779.96034 69481.8 
L 768.62736 69481.8 
L 757.29438 69481.8 
L 745.96977 69481.8 
L 734.63679 69481.8 
L 723.30381 69481.8 
L 711.9792 69481.8 
L 700.64622 69481.8 
L 689.31324 69481.8 
L 677.98026 69481.8 
L 666.65565 69481.8 
L 655.32267 69481.8 
L 643.98969 69481.8 
L 632.65671 69481.8 
L 621.3321 69481.8 
L 609.99912 69481.8 
L 598.66614 69481.8 
L 587.33316 69481.8 
L 576.00855 69481.8 
L 564.67557 69481.8 
L 553.34259 69481.8 
L 542.00961 69481.8 
L 530.685 69481.8 
L 519.35202 69481.8 
L 508.01904 372.515453 
L 496.68606 329.381009 
L 485.36145 306.633064 
L 474.02847 288.564101 
L 462.69549 273.06484 
L 451.36251 257.966724 
L 440.0379 243.436133 
L 428.70492 229.058211 
L 417.37194 214.985131 
L 406.03896 201.19296 
L 394.71435 187.846196 
L 383.38137 175.084136 
L 372.04839 163.122753 
L 360.72378 152.811721 
L 349.3908 145.235248 
L 338.05782 142.586746 
L 326.72484 148.139505 
L 315.40023 164.109615 
L 304.06725 188.515864 
L 292.73427 218.541334 
L 281.40129 252.994274 
L 270.07668 292.345023 
L 258.7437 338.667722 
L 247.41072 396.340716 
L 236.07774 582.895399 
L 224.75313 651.107451 
z
" clip-path="url(#p12c3bc3f55)" style="fill: #32cd32; fill-opacity: 0.15; stroke: #32cd32; stroke-opacity: 0.15"/>
   </g>
   <g id="PolyCollection_16">
    <path d="M 224.75313 637.911721 
L 224.75313 644.570203 
L 236.07774 576.290525 
L 247.41072 390.063344 
L 258.7437 332.49797 
L 270.07668 286.348635 
L 281.40129 246.89364 
L 292.73427 212.631955 
L 304.06725 182.592864 
L 315.40023 158.070108 
L 326.72484 142.261374 
L 338.05782 136.733689 
L 349.3908 139.407575 
L 360.72378 147.076593 
L 372.04839 157.393751 
L 383.38137 169.198239 
L 394.71435 182.072096 
L 406.03896 195.467781 
L 417.37194 209.227135 
L 428.70492 223.282943 
L 440.0379 237.716465 
L 451.36251 252.297269 
L 462.69549 267.28759 
L 474.02847 282.610217 
L 485.36145 300.767225 
L 496.68606 321.100307 
L 508.01904 366.662015 
L 519.35202 69481.8 
L 530.685 69481.8 
L 542.00961 69481.8 
L 553.34259 69481.8 
L 564.67557 69481.8 
L 576.00855 69481.8 
L 587.33316 69481.8 
L 598.66614 69481.8 
L 609.99912 69481.8 
L 621.3321 69481.8 
L 632.65671 69481.8 
L 643.98969 69481.8 
L 655.32267 69481.8 
L 666.65565 69481.8 
L 677.98026 69481.8 
L 689.31324 69481.8 
L 700.64622 69481.8 
L 711.9792 69481.8 
L 723.30381 69481.8 
L 734.63679 69481.8 
L 745.96977 69481.8 
L 757.29438 69481.8 
L 768.62736 69481.8 
L 779.96034 69481.8 
L 791.29332 69481.8 
L 802.61793 69481.8 
L 813.95091 69481.8 
L 825.28389 69481.8 
L 836.61687 69481.8 
L 847.94148 69481.8 
L 859.27446 69481.8 
L 870.60744 69481.8 
L 881.94042 69481.8 
L 881.94042 69481.8 
L 881.94042 69481.8 
L 870.60744 69481.8 
L 859.27446 69481.8 
L 847.94148 69481.8 
L 836.61687 69481.8 
L 825.28389 69481.8 
L 813.95091 69481.8 
L 802.61793 69481.8 
L 791.29332 69481.8 
L 779.96034 69481.8 
L 768.62736 69481.8 
L 757.29438 69481.8 
L 745.96977 69481.8 
L 734.63679 69481.8 
L 723.30381 69481.8 
L 711.9792 69481.8 
L 700.64622 69481.8 
L 689.31324 69481.8 
L 677.98026 69481.8 
L 666.65565 69481.8 
L 655.32267 69481.8 
L 643.98969 69481.8 
L 632.65671 69481.8 
L 621.3321 69481.8 
L 609.99912 69481.8 
L 598.66614 69481.8 
L 587.33316 69481.8 
L 576.00855 69481.8 
L 564.67557 69481.8 
L 553.34259 69481.8 
L 542.00961 69481.8 
L 530.685 69481.8 
L 519.35202 69481.8 
L 508.01904 357.24353 
L 496.68606 310.925265 
L 485.36145 292.463748 
L 474.02847 275.468651 
L 462.69549 260.20294 
L 451.36251 245.362974 
L 440.0379 230.693491 
L 428.70492 216.376593 
L 417.37194 202.302369 
L 406.03896 188.515864 
L 394.71435 175.084136 
L 383.38137 162.482375 
L 372.04839 150.597737 
L 360.72378 140.455821 
L 349.3908 133.002369 
L 338.05782 130.547637 
L 326.72484 136.19981 
L 315.40023 152.130259 
L 304.06725 176.564596 
L 292.73427 206.577209 
L 281.40129 240.973327 
L 270.07668 280.220997 
L 258.7437 326.336019 
L 247.41072 383.715264 
L 236.07774 569.902611 
L 224.75313 637.911721 
z
" clip-path="url(#p12c3bc3f55)" style="fill: #32cd32; fill-opacity: 0.15; stroke: #32cd32; stroke-opacity: 0.15"/>
   </g>
   <g id="PolyCollection_17">
    <path d="M 66.11652 69481.8 
L 66.11652 69481.8 
L 77.4495 69481.8 
L 88.78248 647.900861 
L 100.10709 506.403255 
L 111.44007 395.709426 
L 122.77305 307.996898 
L 134.10603 238.696898 
L 145.43064 185.071484 
L 156.76362 147.555087 
L 168.0966 124.418556 
L 179.42958 110.746304 
L 190.75419 103.245754 
L 202.08717 100.096898 
L 213.42015 99.700884 
L 224.75313 101.735213 
L 236.07774 105.784136 
L 247.41072 111.61038 
L 258.7437 118.767767 
L 270.07668 127.228989 
L 281.40129 136.868651 
L 292.73427 147.458777 
L 304.06725 158.902326 
L 315.40023 171.246418 
L 326.72484 184.244147 
L 338.05782 198.039169 
L 349.3908 212.631955 
L 360.72378 228.343293 
L 372.04839 247.689191 
L 383.38137 276.640947 
L 394.71435 69481.8 
L 406.03896 69481.8 
L 417.37194 69481.8 
L 428.70492 69481.8 
L 440.0379 69481.8 
L 451.36251 69481.8 
L 462.69549 69481.8 
L 474.02847 69481.8 
L 485.36145 69481.8 
L 496.68606 69481.8 
L 508.01904 69481.8 
L 519.35202 69481.8 
L 530.685 69481.8 
L 542.00961 69481.8 
L 553.34259 69481.8 
L 564.67557 69481.8 
L 576.00855 69481.8 
L 587.33316 69481.8 
L 598.66614 69481.8 
L 609.99912 69481.8 
L 621.3321 69481.8 
L 632.65671 69481.8 
L 643.98969 69481.8 
L 655.32267 69481.8 
L 666.65565 69481.8 
L 677.98026 69481.8 
L 689.31324 69481.8 
L 700.64622 69481.8 
L 711.9792 69481.8 
L 723.30381 69481.8 
L 734.63679 69481.8 
L 745.96977 69481.8 
L 757.29438 69481.8 
L 768.62736 69481.8 
L 779.96034 69481.8 
L 791.29332 69481.8 
L 802.61793 69481.8 
L 813.95091 69481.8 
L 825.28389 69481.8 
L 836.61687 69481.8 
L 847.94148 69481.8 
L 859.27446 69481.8 
L 870.60744 69481.8 
L 881.94042 69481.8 
L 893.26503 69481.8 
L 893.26503 69481.8 
L 893.26503 69481.8 
L 881.94042 69481.8 
L 870.60744 69481.8 
L 859.27446 69481.8 
L 847.94148 69481.8 
L 836.61687 69481.8 
L 825.28389 69481.8 
L 813.95091 69481.8 
L 802.61793 69481.8 
L 791.29332 69481.8 
L 779.96034 69481.8 
L 768.62736 69481.8 
L 757.29438 69481.8 
L 745.96977 69481.8 
L 734.63679 69481.8 
L 723.30381 69481.8 
L 711.9792 69481.8 
L 700.64622 69481.8 
L 689.31324 69481.8 
L 677.98026 69481.8 
L 666.65565 69481.8 
L 655.32267 69481.8 
L 643.98969 69481.8 
L 632.65671 69481.8 
L 621.3321 69481.8 
L 609.99912 69481.8 
L 598.66614 69481.8 
L 587.33316 69481.8 
L 576.00855 69481.8 
L 564.67557 69481.8 
L 553.34259 69481.8 
L 542.00961 69481.8 
L 530.685 69481.8 
L 519.35202 69481.8 
L 508.01904 69481.8 
L 496.68606 69481.8 
L 485.36145 69481.8 
L 474.02847 69481.8 
L 462.69549 69481.8 
L 451.36251 69481.8 
L 440.0379 69481.8 
L 428.70492 69481.8 
L 417.37194 69481.8 
L 406.03896 69481.8 
L 394.71435 69481.8 
L 383.38137 297.222355 
L 372.04839 255.256742 
L 360.72378 235.12989 
L 349.3908 219.368785 
L 338.05782 204.651962 
L 326.72484 190.781009 
L 315.40023 177.856494 
L 304.06725 165.303405 
L 292.73427 153.863748 
L 281.40129 143.164751 
L 270.07668 133.482007 
L 258.7437 124.960039 
L 247.41072 117.640149 
L 236.07774 111.904008 
L 224.75313 107.77472 
L 213.42015 105.544321 
L 202.08717 105.544321 
L 190.75419 108.556494 
L 179.42958 115.939716 
L 168.0966 129.312455 
L 156.76362 152.130259 
L 145.43064 189.627132 
L 134.10603 243.203726 
L 122.77305 312.736133 
L 111.44007 400.693789 
L 100.10709 511.629937 
L 88.78248 653.324154 
L 77.4495 69481.8 
L 66.11652 69481.8 
z
" clip-path="url(#p12c3bc3f55)" style="fill: #0000ff; fill-opacity: 0.15; stroke: #0000ff; stroke-opacity: 0.15"/>
   </g>
   <g id="PolyCollection_18">
    <path d="M 66.11652 69481.8 
L 66.11652 69481.8 
L 77.4495 69481.8 
L 88.78248 647.900861 
L 100.10709 506.403255 
L 111.44007 395.709426 
L 122.77305 307.996898 
L 134.10603 238.696898 
L 145.43064 185.071484 
L 156.76362 147.555087 
L 168.0966 124.418556 
L 179.42958 110.746304 
L 190.75419 103.245754 
L 202.08717 100.096898 
L 213.42015 99.700884 
L 224.75313 101.735213 
L 236.07774 105.784136 
L 247.41072 111.61038 
L 258.7437 118.767767 
L 270.07668 127.228989 
L 281.40129 136.868651 
L 292.73427 147.458777 
L 304.06725 158.902326 
L 315.40023 171.246418 
L 326.72484 184.244147 
L 338.05782 198.039169 
L 349.3908 212.631955 
L 360.72378 228.343293 
L 372.04839 247.689191 
L 383.38137 276.640947 
L 394.71435 69481.8 
L 406.03896 69481.8 
L 417.37194 69481.8 
L 428.70492 69481.8 
L 440.0379 69481.8 
L 451.36251 69481.8 
L 462.69549 69481.8 
L 474.02847 69481.8 
L 485.36145 69481.8 
L 496.68606 69481.8 
L 508.01904 69481.8 
L 519.35202 69481.8 
L 530.685 69481.8 
L 542.00961 69481.8 
L 553.34259 69481.8 
L 564.67557 69481.8 
L 576.00855 69481.8 
L 587.33316 69481.8 
L 598.66614 69481.8 
L 609.99912 69481.8 
L 621.3321 69481.8 
L 632.65671 69481.8 
L 643.98969 69481.8 
L 655.32267 69481.8 
L 666.65565 69481.8 
L 677.98026 69481.8 
L 689.31324 69481.8 
L 700.64622 69481.8 
L 711.9792 69481.8 
L 723.30381 69481.8 
L 734.63679 69481.8 
L 745.96977 69481.8 
L 757.29438 69481.8 
L 768.62736 69481.8 
L 779.96034 69481.8 
L 791.29332 69481.8 
L 802.61793 69481.8 
L 813.95091 69481.8 
L 825.28389 69481.8 
L 836.61687 69481.8 
L 847.94148 69481.8 
L 859.27446 69481.8 
L 870.60744 69481.8 
L 881.94042 69481.8 
L 893.26503 69481.8 
L 893.26503 69481.8 
L 893.26503 69481.8 
L 881.94042 69481.8 
L 870.60744 69481.8 
L 859.27446 69481.8 
L 847.94148 69481.8 
L 836.61687 69481.8 
L 825.28389 69481.8 
L 813.95091 69481.8 
L 802.61793 69481.8 
L 791.29332 69481.8 
L 779.96034 69481.8 
L 768.62736 69481.8 
L 757.29438 69481.8 
L 745.96977 69481.8 
L 734.63679 69481.8 
L 723.30381 69481.8 
L 711.9792 69481.8 
L 700.64622 69481.8 
L 689.31324 69481.8 
L 677.98026 69481.8 
L 666.65565 69481.8 
L 655.32267 69481.8 
L 643.98969 69481.8 
L 632.65671 69481.8 
L 621.3321 69481.8 
L 609.99912 69481.8 
L 598.66614 69481.8 
L 587.33316 69481.8 
L 576.00855 69481.8 
L 564.67557 69481.8 
L 553.34259 69481.8 
L 542.00961 69481.8 
L 530.685 69481.8 
L 519.35202 69481.8 
L 508.01904 69481.8 
L 496.68606 69481.8 
L 485.36145 69481.8 
L 474.02847 69481.8 
L 462.69549 69481.8 
L 451.36251 69481.8 
L 440.0379 69481.8 
L 428.70492 69481.8 
L 417.37194 69481.8 
L 406.03896 69481.8 
L 394.71435 69481.8 
L 383.38137 263.19797 
L 372.04839 240.335213 
L 360.72378 221.997067 
L 349.3908 206.50873 
L 338.05782 191.938714 
L 326.72484 178.121664 
L 315.40023 165.303405 
L 304.06725 153.042347 
L 292.73427 141.620997 
L 281.40129 131.100899 
L 270.07668 121.60294 
L 258.7437 113.231128 
L 247.41072 106.025877 
L 236.07774 100.498192 
L 224.75313 96.707451 
L 213.42015 94.642875 
L 202.08717 95.145894 
L 190.75419 98.543179 
L 179.42958 106.269576 
L 168.0966 119.977844 
L 156.76362 143.081496 
L 145.43064 180.61959 
L 134.10603 233.915453 
L 122.77305 303.045894 
L 111.44007 390.678838 
L 100.10709 501.208197 
L 88.78248 642.360285 
L 77.4495 69481.8 
L 66.11652 69481.8 
z
" clip-path="url(#p12c3bc3f55)" style="fill: #0000ff; fill-opacity: 0.15; stroke: #0000ff; stroke-opacity: 0.15"/>
   </g>
   <g id="PolyCollection_19">
    <path d="M 224.75313 539.730612 
L 224.75313 535.585533 
L 236.07774 517.325479 
L 247.41072 322.681374 
L 258.7437 298.213862 
L 270.07668 278.527135 
L 281.40129 259.598166 
L 292.73427 241.406379 
L 304.06725 224.13079 
L 315.40023 209.985276 
L 326.72484 201.830256 
L 338.05782 201.947592 
L 349.3908 209.452578 
L 360.72378 222.111721 
L 372.04839 239.098192 
L 383.38137 273.189982 
L 394.71435 69481.8 
L 406.03896 69481.8 
L 417.37194 69481.8 
L 428.70492 69481.8 
L 440.0379 69481.8 
L 451.36251 69481.8 
L 462.69549 69481.8 
L 474.02847 69481.8 
L 485.36145 69481.8 
L 496.68606 69481.8 
L 508.01904 69481.8 
L 519.35202 69481.8 
L 530.685 69481.8 
L 542.00961 69481.8 
L 553.34259 69481.8 
L 564.67557 69481.8 
L 576.00855 69481.8 
L 587.33316 69481.8 
L 598.66614 69481.8 
L 609.99912 69481.8 
L 621.3321 69481.8 
L 632.65671 69481.8 
L 643.98969 69481.8 
L 655.32267 69481.8 
L 666.65565 69481.8 
L 677.98026 69481.8 
L 689.31324 69481.8 
L 700.64622 69481.8 
L 711.9792 69481.8 
L 723.30381 69481.8 
L 734.63679 69481.8 
L 745.96977 69481.8 
L 757.29438 69481.8 
L 768.62736 69481.8 
L 779.96034 69481.8 
L 791.29332 69481.8 
L 802.61793 69481.8 
L 813.95091 69481.8 
L 825.28389 69481.8 
L 836.61687 69481.8 
L 847.94148 69481.8 
L 859.27446 69481.8 
L 870.60744 69481.8 
L 881.94042 69481.8 
L 881.94042 69481.8 
L 881.94042 69481.8 
L 870.60744 69481.8 
L 859.27446 69481.8 
L 847.94148 69481.8 
L 836.61687 69481.8 
L 825.28389 69481.8 
L 813.95091 69481.8 
L 802.61793 69481.8 
L 791.29332 69481.8 
L 779.96034 69481.8 
L 768.62736 69481.8 
L 757.29438 69481.8 
L 745.96977 69481.8 
L 734.63679 69481.8 
L 723.30381 69481.8 
L 711.9792 69481.8 
L 700.64622 69481.8 
L 689.31324 69481.8 
L 677.98026 69481.8 
L 666.65565 69481.8 
L 655.32267 69481.8 
L 643.98969 69481.8 
L 632.65671 69481.8 
L 621.3321 69481.8 
L 609.99912 69481.8 
L 598.66614 69481.8 
L 587.33316 69481.8 
L 576.00855 69481.8 
L 564.67557 69481.8 
L 553.34259 69481.8 
L 542.00961 69481.8 
L 530.685 69481.8 
L 519.35202 69481.8 
L 508.01904 69481.8 
L 496.68606 69481.8 
L 485.36145 69481.8 
L 474.02847 69481.8 
L 462.69549 69481.8 
L 451.36251 69481.8 
L 440.0379 69481.8 
L 428.70492 69481.8 
L 417.37194 69481.8 
L 406.03896 69481.8 
L 394.71435 69481.8 
L 383.38137 290.063886 
L 372.04839 246.633061 
L 360.72378 229.349002 
L 349.3908 216.567079 
L 338.05782 208.707575 
L 326.72484 208.269267 
L 315.40023 216.093107 
L 304.06725 230.238621 
L 292.73427 247.156494 
L 281.40129 265.438752 
L 270.07668 284.285131 
L 258.7437 303.903405 
L 247.41072 327.570733 
L 236.07774 521.344321 
L 224.75313 539.730612 
z
" clip-path="url(#p12c3bc3f55)" style="fill: #0000ff; fill-opacity: 0.15; stroke: #0000ff; stroke-opacity: 0.15"/>
   </g>
   <g id="PolyCollection_20">
    <path d="M 224.75313 531.470994 
L 224.75313 535.585533 
L 236.07774 517.325479 
L 247.41072 322.681374 
L 258.7437 298.213862 
L 270.07668 278.527135 
L 281.40129 259.598166 
L 292.73427 241.406379 
L 304.06725 224.13079 
L 315.40023 209.985276 
L 326.72484 201.830256 
L 338.05782 201.947592 
L 349.3908 209.452578 
L 360.72378 222.111721 
L 372.04839 239.098192 
L 383.38137 273.189982 
L 394.71435 69481.8 
L 406.03896 69481.8 
L 417.37194 69481.8 
L 428.70492 69481.8 
L 440.0379 69481.8 
L 451.36251 69481.8 
L 462.69549 69481.8 
L 474.02847 69481.8 
L 485.36145 69481.8 
L 496.68606 69481.8 
L 508.01904 69481.8 
L 519.35202 69481.8 
L 530.685 69481.8 
L 542.00961 69481.8 
L 553.34259 69481.8 
L 564.67557 69481.8 
L 576.00855 69481.8 
L 587.33316 69481.8 
L 598.66614 69481.8 
L 609.99912 69481.8 
L 621.3321 69481.8 
L 632.65671 69481.8 
L 643.98969 69481.8 
L 655.32267 69481.8 
L 666.65565 69481.8 
L 677.98026 69481.8 
L 689.31324 69481.8 
L 700.64622 69481.8 
L 711.9792 69481.8 
L 723.30381 69481.8 
L 734.63679 69481.8 
L 745.96977 69481.8 
L 757.29438 69481.8 
L 768.62736 69481.8 
L 779.96034 69481.8 
L 791.29332 69481.8 
L 802.61793 69481.8 
L 813.95091 69481.8 
L 825.28389 69481.8 
L 836.61687 69481.8 
L 847.94148 69481.8 
L 859.27446 69481.8 
L 870.60744 69481.8 
L 881.94042 69481.8 
L 881.94042 69481.8 
L 881.94042 69481.8 
L 870.60744 69481.8 
L 859.27446 69481.8 
L 847.94148 69481.8 
L 836.61687 69481.8 
L 825.28389 69481.8 
L 813.95091 69481.8 
L 802.61793 69481.8 
L 791.29332 69481.8 
L 779.96034 69481.8 
L 768.62736 69481.8 
L 757.29438 69481.8 
L 745.96977 69481.8 
L 734.63679 69481.8 
L 723.30381 69481.8 
L 711.9792 69481.8 
L 700.64622 69481.8 
L 689.31324 69481.8 
L 677.98026 69481.8 
L 666.65565 69481.8 
L 655.32267 69481.8 
L 643.98969 69481.8 
L 632.65671 69481.8 
L 621.3321 69481.8 
L 609.99912 69481.8 
L 598.66614 69481.8 
L 587.33316 69481.8 
L 576.00855 69481.8 
L 564.67557 69481.8 
L 553.34259 69481.8 
L 542.00961 69481.8 
L 530.685 69481.8 
L 519.35202 69481.8 
L 508.01904 69481.8 
L 496.68606 69481.8 
L 485.36145 69481.8 
L 474.02847 69481.8 
L 462.69549 69481.8 
L 451.36251 69481.8 
L 440.0379 69481.8 
L 428.70492 69481.8 
L 417.37194 69481.8 
L 406.03896 69481.8 
L 394.71435 69481.8 
L 383.38137 254.037815 
L 372.04839 231.782375 
L 360.72378 215.719231 
L 349.3908 203.392506 
L 338.05782 196.138752 
L 326.72484 196.235838 
L 315.40023 204.459651 
L 304.06725 218.746074 
L 292.73427 236.028363 
L 281.40129 254.304453 
L 270.07668 273.252749 
L 258.7437 293.186101 
L 247.41072 317.806344 
L 236.07774 513.228363 
L 224.75313 531.470994 
z
" clip-path="url(#p12c3bc3f55)" style="fill: #0000ff; fill-opacity: 0.15; stroke: #0000ff; stroke-opacity: 0.15"/>
   </g>
   <g id="PolyCollection_21">
    <path d="M 66.11652 445.810013 
L 66.11652 440.322753 
L 77.4495 414.960976 
L 88.78248 389.881124 
L 100.10709 365.427812 
L 111.44007 342.552749 
L 122.77305 321.943754 
L 134.10603 305.328363 
L 145.43064 295.332261 
L 156.76362 291.874754 
L 168.0966 292.943385 
L 179.42958 297.643293 
L 190.75419 310.925265 
L 202.08717 69481.8 
L 213.42015 69481.8 
L 224.75313 69481.8 
L 236.07774 69481.8 
L 247.41072 69481.8 
L 258.7437 69481.8 
L 270.07668 69481.8 
L 281.40129 69481.8 
L 292.73427 69481.8 
L 304.06725 69481.8 
L 315.40023 69481.8 
L 326.72484 69481.8 
L 338.05782 69481.8 
L 349.3908 69481.8 
L 360.72378 69481.8 
L 372.04839 69481.8 
L 383.38137 69481.8 
L 394.71435 69481.8 
L 406.03896 69481.8 
L 417.37194 69481.8 
L 428.70492 69481.8 
L 440.0379 69481.8 
L 451.36251 69481.8 
L 462.69549 69481.8 
L 474.02847 69481.8 
L 485.36145 69481.8 
L 496.68606 69481.8 
L 508.01904 69481.8 
L 519.35202 69481.8 
L 530.685 69481.8 
L 542.00961 69481.8 
L 553.34259 69481.8 
L 564.67557 69481.8 
L 576.00855 69481.8 
L 587.33316 69481.8 
L 598.66614 69481.8 
L 609.99912 69481.8 
L 621.3321 69481.8 
L 632.65671 69481.8 
L 643.98969 69481.8 
L 655.32267 69481.8 
L 666.65565 69481.8 
L 677.98026 69481.8 
L 689.31324 69481.8 
L 700.64622 69481.8 
L 711.9792 69481.8 
L 723.30381 69481.8 
L 734.63679 69481.8 
L 745.96977 69481.8 
L 757.29438 69481.8 
L 768.62736 69481.8 
L 779.96034 69481.8 
L 791.29332 69481.8 
L 802.61793 69481.8 
L 813.95091 69481.8 
L 825.28389 69481.8 
L 836.61687 69481.8 
L 847.94148 69481.8 
L 859.27446 69481.8 
L 870.60744 69481.8 
L 881.94042 69481.8 
L 893.26503 210.139223 
L 893.26503 211.561374 
L 893.26503 211.561374 
L 881.94042 69481.8 
L 870.60744 69481.8 
L 859.27446 69481.8 
L 847.94148 69481.8 
L 836.61687 69481.8 
L 825.28389 69481.8 
L 813.95091 69481.8 
L 802.61793 69481.8 
L 791.29332 69481.8 
L 779.96034 69481.8 
L 768.62736 69481.8 
L 757.29438 69481.8 
L 745.96977 69481.8 
L 734.63679 69481.8 
L 723.30381 69481.8 
L 711.9792 69481.8 
L 700.64622 69481.8 
L 689.31324 69481.8 
L 677.98026 69481.8 
L 666.65565 69481.8 
L 655.32267 69481.8 
L 643.98969 69481.8 
L 632.65671 69481.8 
L 621.3321 69481.8 
L 609.99912 69481.8 
L 598.66614 69481.8 
L 587.33316 69481.8 
L 576.00855 69481.8 
L 564.67557 69481.8 
L 553.34259 69481.8 
L 542.00961 69481.8 
L 530.685 69481.8 
L 519.35202 69481.8 
L 508.01904 69481.8 
L 496.68606 69481.8 
L 485.36145 69481.8 
L 474.02847 69481.8 
L 462.69549 69481.8 
L 451.36251 69481.8 
L 440.0379 69481.8 
L 428.70492 69481.8 
L 417.37194 69481.8 
L 406.03896 69481.8 
L 394.71435 69481.8 
L 383.38137 69481.8 
L 372.04839 69481.8 
L 360.72378 69481.8 
L 349.3908 69481.8 
L 338.05782 69481.8 
L 326.72484 69481.8 
L 315.40023 69481.8 
L 304.06725 69481.8 
L 292.73427 69481.8 
L 281.40129 69481.8 
L 270.07668 69481.8 
L 258.7437 69481.8 
L 247.41072 69481.8 
L 236.07774 69481.8 
L 224.75313 69481.8 
L 213.42015 69481.8 
L 202.08717 69481.8 
L 190.75419 325.755126 
L 179.42958 307.404814 
L 168.0966 300.767225 
L 156.76362 299.538621 
L 145.43064 302.877285 
L 134.10603 312.503726 
L 122.77305 328.778656 
L 111.44007 349.127571 
L 100.10709 371.842875 
L 88.78248 395.930725 
L 77.4495 420.700093 
L 66.11652 445.810013 
z
" clip-path="url(#p12c3bc3f55)" style="fill: #ff00ff; fill-opacity: 0.15; stroke: #ff00ff; stroke-opacity: 0.15"/>
   </g>
   <g id="PolyCollection_22">
    <path d="M 66.11652 435.407223 
L 66.11652 440.322753 
L 77.4495 414.960976 
L 88.78248 389.881124 
L 100.10709 365.427812 
L 111.44007 342.552749 
L 122.77305 321.943754 
L 134.10603 305.328363 
L 145.43064 295.332261 
L 156.76362 291.874754 
L 168.0966 292.943385 
L 179.42958 297.643293 
L 190.75419 310.925265 
L 202.08717 69481.8 
L 213.42015 69481.8 
L 224.75313 69481.8 
L 236.07774 69481.8 
L 247.41072 69481.8 
L 258.7437 69481.8 
L 270.07668 69481.8 
L 281.40129 69481.8 
L 292.73427 69481.8 
L 304.06725 69481.8 
L 315.40023 69481.8 
L 326.72484 69481.8 
L 338.05782 69481.8 
L 349.3908 69481.8 
L 360.72378 69481.8 
L 372.04839 69481.8 
L 383.38137 69481.8 
L 394.71435 69481.8 
L 406.03896 69481.8 
L 417.37194 69481.8 
L 428.70492 69481.8 
L 440.0379 69481.8 
L 451.36251 69481.8 
L 462.69549 69481.8 
L 474.02847 69481.8 
L 485.36145 69481.8 
L 496.68606 69481.8 
L 508.01904 69481.8 
L 519.35202 69481.8 
L 530.685 69481.8 
L 542.00961 69481.8 
L 553.34259 69481.8 
L 564.67557 69481.8 
L 576.00855 69481.8 
L 587.33316 69481.8 
L 598.66614 69481.8 
L 609.99912 69481.8 
L 621.3321 69481.8 
L 632.65671 69481.8 
L 643.98969 69481.8 
L 655.32267 69481.8 
L 666.65565 69481.8 
L 677.98026 69481.8 
L 689.31324 69481.8 
L 700.64622 69481.8 
L 711.9792 69481.8 
L 723.30381 69481.8 
L 734.63679 69481.8 
L 745.96977 69481.8 
L 757.29438 69481.8 
L 768.62736 69481.8 
L 779.96034 69481.8 
L 791.29332 69481.8 
L 802.61793 69481.8 
L 813.95091 69481.8 
L 825.28389 69481.8 
L 836.61687 69481.8 
L 847.94148 69481.8 
L 859.27446 69481.8 
L 870.60744 69481.8 
L 881.94042 69481.8 
L 893.26503 210.139223 
L 893.26503 208.707575 
L 893.26503 208.707575 
L 881.94042 69481.8 
L 870.60744 69481.8 
L 859.27446 69481.8 
L 847.94148 69481.8 
L 836.61687 69481.8 
L 825.28389 69481.8 
L 813.95091 69481.8 
L 802.61793 69481.8 
L 791.29332 69481.8 
L 779.96034 69481.8 
L 768.62736 69481.8 
L 757.29438 69481.8 
L 745.96977 69481.8 
L 734.63679 69481.8 
L 723.30381 69481.8 
L 711.9792 69481.8 
L 700.64622 69481.8 
L 689.31324 69481.8 
L 677.98026 69481.8 
L 666.65565 69481.8 
L 655.32267 69481.8 
L 643.98969 69481.8 
L 632.65671 69481.8 
L 621.3321 69481.8 
L 609.99912 69481.8 
L 598.66614 69481.8 
L 587.33316 69481.8 
L 576.00855 69481.8 
L 564.67557 69481.8 
L 553.34259 69481.8 
L 542.00961 69481.8 
L 530.685 69481.8 
L 519.35202 69481.8 
L 508.01904 69481.8 
L 496.68606 69481.8 
L 485.36145 69481.8 
L 474.02847 69481.8 
L 462.69549 69481.8 
L 451.36251 69481.8 
L 440.0379 69481.8 
L 428.70492 69481.8 
L 417.37194 69481.8 
L 406.03896 69481.8 
L 394.71435 69481.8 
L 383.38137 69481.8 
L 372.04839 69481.8 
L 360.72378 69481.8 
L 349.3908 69481.8 
L 338.05782 69481.8 
L 326.72484 69481.8 
L 315.40023 69481.8 
L 304.06725 69481.8 
L 292.73427 69481.8 
L 281.40129 69481.8 
L 270.07668 69481.8 
L 258.7437 69481.8 
L 247.41072 69481.8 
L 236.07774 69481.8 
L 224.75313 69481.8 
L 213.42015 69481.8 
L 202.08717 357.655819 
L 190.75419 302.377053 
L 179.42958 290.730259 
L 168.0966 285.867079 
L 156.76362 285.112265 
L 145.43064 288.773834 
L 134.10603 298.942629 
L 122.77305 315.67472 
L 111.44007 336.536098 
L 100.10709 359.695228 
L 88.78248 384.21274 
L 77.4495 409.613376 
L 66.11652 435.407223 
z
" clip-path="url(#p12c3bc3f55)" style="fill: #ff00ff; fill-opacity: 0.15; stroke: #ff00ff; stroke-opacity: 0.15"/>
   </g>
   <g id="PolyCollection_23">
    <defs>
     <path id="m5395d43957" d="M 224.75313 69121.8 
L 224.75313 69121.8 
L 236.07774 69121.8 
L 247.41072 69121.8 
L 258.7437 69121.8 
L 270.07668 69121.8 
L 281.40129 69121.8 
L 292.73427 69121.8 
L 304.06725 69121.8 
L 315.40023 69121.8 
L 326.72484 69121.8 
L 338.05782 69121.8 
L 349.3908 69121.8 
L 360.72378 69121.8 
L 372.04839 69121.8 
L 383.38137 69121.8 
L 394.71435 69121.8 
L 406.03896 69121.8 
L 417.37194 69121.8 
L 428.70492 69121.8 
L 440.0379 69121.8 
L 451.36251 69121.8 
L 462.69549 69121.8 
L 474.02847 69121.8 
L 485.36145 69121.8 
L 496.68606 69121.8 
L 508.01904 69121.8 
L 519.35202 69121.8 
L 530.685 69121.8 
L 542.00961 69121.8 
L 553.34259 69121.8 
L 564.67557 69121.8 
L 576.00855 69121.8 
L 587.33316 69121.8 
L 598.66614 69121.8 
L 609.99912 69121.8 
L 621.3321 69121.8 
L 632.65671 69121.8 
L 643.98969 69121.8 
L 655.32267 69121.8 
L 666.65565 69121.8 
L 677.98026 69121.8 
L 689.31324 69121.8 
L 700.64622 69121.8 
L 711.9792 69121.8 
L 723.30381 69121.8 
L 734.63679 69121.8 
L 745.96977 69121.8 
L 757.29438 69121.8 
L 768.62736 69121.8 
L 779.96034 69121.8 
L 791.29332 69121.8 
L 802.61793 69121.8 
L 813.95091 69121.8 
L 825.28389 69121.8 
L 836.61687 69121.8 
L 847.94148 69121.8 
L 859.27446 69121.8 
L 870.60744 69121.8 
L 881.94042 69121.8 
L 881.94042 69121.8 
L 881.94042 69121.8 
L 870.60744 69121.8 
L 859.27446 69121.8 
L 847.94148 69121.8 
L 836.61687 69121.8 
L 825.28389 69121.8 
L 813.95091 69121.8 
L 802.61793 69121.8 
L 791.29332 69121.8 
L 779.96034 69121.8 
L 768.62736 69121.8 
L 757.29438 69121.8 
L 745.96977 69121.8 
L 734.63679 69121.8 
L 723.30381 69121.8 
L 711.9792 69121.8 
L 700.64622 69121.8 
L 689.31324 69121.8 
L 677.98026 69121.8 
L 666.65565 69121.8 
L 655.32267 69121.8 
L 643.98969 69121.8 
L 632.65671 69121.8 
L 621.3321 69121.8 
L 609.99912 69121.8 
L 598.66614 69121.8 
L 587.33316 69121.8 
L 576.00855 69121.8 
L 564.67557 69121.8 
L 553.34259 69121.8 
L 542.00961 69121.8 
L 530.685 69121.8 
L 519.35202 69121.8 
L 508.01904 69121.8 
L 496.68606 69121.8 
L 485.36145 69121.8 
L 474.02847 69121.8 
L 462.69549 69121.8 
L 451.36251 69121.8 
L 440.0379 69121.8 
L 428.70492 69121.8 
L 417.37194 69121.8 
L 406.03896 69121.8 
L 394.71435 69121.8 
L 383.38137 69121.8 
L 372.04839 69121.8 
L 360.72378 69121.8 
L 349.3908 69121.8 
L 338.05782 69121.8 
L 326.72484 69121.8 
L 315.40023 69121.8 
L 304.06725 69121.8 
L 292.73427 69121.8 
L 281.40129 69121.8 
L 270.07668 69121.8 
L 258.7437 69121.8 
L 247.41072 69121.8 
L 236.07774 69121.8 
L 224.75313 69121.8 
z
" style="stroke: #ff00ff; stroke-opacity: 0.15"/>
    </defs>
    <g clip-path="url(#p12c3bc3f55)">
     <use xlink:href="#m5395d43957" x="0" y="360" style="fill: #ff00ff; fill-opacity: 0.15; stroke: #ff00ff; stroke-opacity: 0.15"/>
    </g>
   </g>
   <g id="PolyCollection_24">
    <g clip-path="url(#p12c3bc3f55)">
     <use xlink:href="#m5395d43957" x="0" y="360" style="fill: #ff00ff; fill-opacity: 0.15; stroke: #ff00ff; stroke-opacity: 0.15"/>
    </g>
   </g>
   <g id="matplotlib.axis_1">
    <g id="xtick_1">
     <g id="line2d_1">
      <defs>
       <path id="m8eb64e5cfa" d="M 0 0 
L 0 7 
" style="stroke: #000000; stroke-width: 0.8"/>
      </defs>
      <g>
       <use xlink:href="#m8eb64e5cfa" x="108" y="320.4" style="stroke: #000000; stroke-width: 0.8"/>
      </g>
     </g>
     <g id="line2d_2">
      <defs>
       <path id="m805a191096" d="M 0 0 
L 0 -7 
" style="stroke: #000000; stroke-width: 0.8"/>
      </defs>
      <g>
       <use xlink:href="#m805a191096" x="108" y="43.2" style="stroke: #000000; stroke-width: 0.8"/>
      </g>
     </g>
    </g>
    <g id="xtick_2">
     <g id="line2d_3">
      <g>
       <use xlink:href="#m8eb64e5cfa" x="191.7" y="320.4" style="stroke: #000000; stroke-width: 0.8"/>
      </g>
     </g>
     <g id="line2d_4">
      <g>
       <use xlink:href="#m805a191096" x="191.7" y="43.2" style="stroke: #000000; stroke-width: 0.8"/>
      </g>
     </g>
    </g>
    <g id="xtick_3">
     <g id="line2d_5">
      <g>
       <use xlink:href="#m8eb64e5cfa" x="275.4" y="320.4" style="stroke: #000000; stroke-width: 0.8"/>
      </g>
     </g>
     <g id="line2d_6">
      <g>
       <use xlink:href="#m805a191096" x="275.4" y="43.2" style="stroke: #000000; stroke-width: 0.8"/>
      </g>
     </g>
    </g>
    <g id="xtick_4">
     <g id="line2d_7">
      <g>
       <use xlink:href="#m8eb64e5cfa" x="359.1" y="320.4" style="stroke: #000000; stroke-width: 0.8"/>
      </g>
     </g>
     <g id="line2d_8">
      <g>
       <use xlink:href="#m805a191096" x="359.1" y="43.2" style="stroke: #000000; stroke-width: 0.8"/>
      </g>
     </g>
    </g>
    <g id="xtick_5">
     <g id="line2d_9">
      <g>
       <use xlink:href="#m8eb64e5cfa" x="442.8" y="320.4" style="stroke: #000000; stroke-width: 0.8"/>
      </g>
     </g>
     <g id="line2d_10">
      <g>
       <use xlink:href="#m805a191096" x="442.8" y="43.2" style="stroke: #000000; stroke-width: 0.8"/>
      </g>
     </g>
    </g>
    <g id="xtick_6">
     <g id="line2d_11">
      <g>
       <use xlink:href="#m8eb64e5cfa" x="526.5" y="320.4" style="stroke: #000000; stroke-width: 0.8"/>
      </g>
     </g>
     <g id="line2d_12">
      <g>
       <use xlink:href="#m805a191096" x="526.5" y="43.2" style="stroke: #000000; stroke-width: 0.8"/>
      </g>
     </g>
    </g>
    <g id="xtick_7">
     <g id="line2d_13">
      <g>
       <use xlink:href="#m8eb64e5cfa" x="610.2" y="320.4" style="stroke: #000000; stroke-width: 0.8"/>
      </g>
     </g>
     <g id="line2d_14">
      <g>
       <use xlink:href="#m805a191096" x="610.2" y="43.2" style="stroke: #000000; stroke-width: 0.8"/>
      </g>
     </g>
    </g>
    <g id="xtick_8">
     <g id="line2d_15">
      <g>
       <use xlink:href="#m8eb64e5cfa" x="693.9" y="320.4" style="stroke: #000000; stroke-width: 0.8"/>
      </g>
     </g>
     <g id="line2d_16">
      <g>
       <use xlink:href="#m805a191096" x="693.9" y="43.2" style="stroke: #000000; stroke-width: 0.8"/>
      </g>
     </g>
    </g>
    <g id="xtick_9">
     <g id="line2d_17">
      <g>
       <use xlink:href="#m8eb64e5cfa" x="777.6" y="320.4" style="stroke: #000000; stroke-width: 0.8"/>
      </g>
     </g>
     <g id="line2d_18">
      <g>
       <use xlink:href="#m805a191096" x="777.6" y="43.2" style="stroke: #000000; stroke-width: 0.8"/>
      </g>
     </g>
    </g>
   </g>
   <g id="matplotlib.axis_2">
    <g id="ytick_1">
     <g id="line2d_19">
      <defs>
       <path id="m4fced1a95d" d="M 0 0 
L -7 0 
" style="stroke: #000000; stroke-width: 0.8"/>
      </defs>
      <g>
       <use xlink:href="#m4fced1a95d" x="108" y="320.4" style="stroke: #000000; stroke-width: 0.8"/>
      </g>
     </g>
     <g id="text_1">
      <!-- $\mathdefault{10^{-2}}$ -->
      <g transform="translate(55.2 327.238594)scale(0.18 -0.18)">
       <defs>
        <path id="DejaVuSans-31" d="M 794 531 
L 1825 531 
L 1825 4091 
L 703 3866 
L 703 4441 
L 1819 4666 
L 2450 4666 
L 2450 531 
L 3481 531 
L 3481 0 
L 794 0 
L 794 531 
z
" transform="scale(0.015625)"/>
        <path id="DejaVuSans-30" d="M 2034 4250 
Q 1547 4250 1301 3770 
Q 1056 3291 1056 2328 
Q 1056 1369 1301 889 
Q 1547 409 2034 409 
Q 2525 409 2770 889 
Q 3016 1369 3016 2328 
Q 3016 3291 2770 3770 
Q 2525 4250 2034 4250 
z
M 2034 4750 
Q 2819 4750 3233 4129 
Q 3647 3509 3647 2328 
Q 3647 1150 3233 529 
Q 2819 -91 2034 -91 
Q 1250 -91 836 529 
Q 422 1150 422 2328 
Q 422 3509 836 4129 
Q 1250 4750 2034 4750 
z
" transform="scale(0.015625)"/>
        <path id="DejaVuSans-2212" d="M 678 2272 
L 4684 2272 
L 4684 1741 
L 678 1741 
L 678 2272 
z
" transform="scale(0.015625)"/>
        <path id="DejaVuSans-32" d="M 1228 531 
L 3431 531 
L 3431 0 
L 469 0 
L 469 531 
Q 828 903 1448 1529 
Q 2069 2156 2228 2338 
Q 2531 2678 2651 2914 
Q 2772 3150 2772 3378 
Q 2772 3750 2511 3984 
Q 2250 4219 1831 4219 
Q 1534 4219 1204 4116 
Q 875 4013 500 3803 
L 500 4441 
Q 881 4594 1212 4672 
Q 1544 4750 1819 4750 
Q 2544 4750 2975 4387 
Q 3406 4025 3406 3419 
Q 3406 3131 3298 2873 
Q 3191 2616 2906 2266 
Q 2828 2175 2409 1742 
Q 1991 1309 1228 531 
z
" transform="scale(0.015625)"/>
       </defs>
       <use xlink:href="#DejaVuSans-31" transform="translate(0 0.765625)"/>
       <use xlink:href="#DejaVuSans-30" transform="translate(63.623047 0.765625)"/>
       <use xlink:href="#DejaVuSans-2212" transform="translate(128.203125 39.046875)scale(0.7)"/>
       <use xlink:href="#DejaVuSans-32" transform="translate(186.855469 39.046875)scale(0.7)"/>
      </g>
     </g>
    </g>
    <g id="ytick_2">
     <g id="line2d_20">
      <g>
       <use xlink:href="#m4fced1a95d" x="108" y="251.1" style="stroke: #000000; stroke-width: 0.8"/>
      </g>
     </g>
     <g id="text_2">
      <!-- $\mathdefault{10^{-1}}$ -->
      <g transform="translate(55.2 257.938594)scale(0.18 -0.18)">
       <use xlink:href="#DejaVuSans-31" transform="translate(0 0.684375)"/>
       <use xlink:href="#DejaVuSans-30" transform="translate(63.623047 0.684375)"/>
       <use xlink:href="#DejaVuSans-2212" transform="translate(128.203125 38.965625)scale(0.7)"/>
       <use xlink:href="#DejaVuSans-31" transform="translate(186.855469 38.965625)scale(0.7)"/>
      </g>
     </g>
    </g>
    <g id="ytick_3">
     <g id="line2d_21">
      <g>
       <use xlink:href="#m4fced1a95d" x="108" y="181.8" style="stroke: #000000; stroke-width: 0.8"/>
      </g>
     </g>
     <g id="text_3">
      <!-- $\mathdefault{10^{0}}$ -->
      <g transform="translate(65.82 188.638594)scale(0.18 -0.18)">
       <use xlink:href="#DejaVuSans-31" transform="translate(0 0.765625)"/>
       <use xlink:href="#DejaVuSans-30" transform="translate(63.623047 0.765625)"/>
       <use xlink:href="#DejaVuSans-30" transform="translate(128.203125 39.046875)scale(0.7)"/>
      </g>
     </g>
    </g>
    <g id="ytick_4">
     <g id="line2d_22">
      <g>
       <use xlink:href="#m4fced1a95d" x="108" y="112.5" style="stroke: #000000; stroke-width: 0.8"/>
      </g>
     </g>
     <g id="text_4">
      <!-- $\mathdefault{10^{1}}$ -->
      <g transform="translate(65.82 119.338594)scale(0.18 -0.18)">
       <use xlink:href="#DejaVuSans-31" transform="translate(0 0.684375)"/>
       <use xlink:href="#DejaVuSans-30" transform="translate(63.623047 0.684375)"/>
       <use xlink:href="#DejaVuSans-31" transform="translate(128.203125 38.965625)scale(0.7)"/>
      </g>
     </g>
    </g>
    <g id="ytick_5">
     <g id="line2d_23">
      <g>
       <use xlink:href="#m4fced1a95d" x="108" y="43.2" style="stroke: #000000; stroke-width: 0.8"/>
      </g>
     </g>
     <g id="text_5">
      <!-- $\mathdefault{10^{2}}$ -->
      <g transform="translate(65.82 50.038594)scale(0.18 -0.18)">
       <use xlink:href="#DejaVuSans-31" transform="translate(0 0.765625)"/>
       <use xlink:href="#DejaVuSans-30" transform="translate(63.623047 0.765625)"/>
       <use xlink:href="#DejaVuSans-32" transform="translate(128.203125 39.046875)scale(0.7)"/>
      </g>
     </g>
    </g>
    <g id="ytick_6">
     <g id="line2d_24">
      <defs>
       <path id="me2c77ec744" d="M 0 0 
L -2 0 
" style="stroke: #000000; stroke-width: 0.6"/>
      </defs>
      <g>
       <use xlink:href="#me2c77ec744" x="108" y="299.538621" style="stroke: #000000; stroke-width: 0.6"/>
      </g>
     </g>
    </g>
    <g id="ytick_7">
     <g id="line2d_25">
      <g>
       <use xlink:href="#me2c77ec744" x="108" y="287.335497" style="stroke: #000000; stroke-width: 0.6"/>
      </g>
     </g>
    </g>
    <g id="ytick_8">
     <g id="line2d_26">
      <g>
       <use xlink:href="#me2c77ec744" x="108" y="278.677243" style="stroke: #000000; stroke-width: 0.6"/>
      </g>
     </g>
    </g>
    <g id="ytick_9">
     <g id="line2d_27">
      <g>
       <use xlink:href="#me2c77ec744" x="108" y="271.961379" style="stroke: #000000; stroke-width: 0.6"/>
      </g>
     </g>
    </g>
    <g id="ytick_10">
     <g id="line2d_28">
      <g>
       <use xlink:href="#me2c77ec744" x="108" y="266.474118" style="stroke: #000000; stroke-width: 0.6"/>
      </g>
     </g>
    </g>
    <g id="ytick_11">
     <g id="line2d_29">
      <g>
       <use xlink:href="#me2c77ec744" x="108" y="261.834706" style="stroke: #000000; stroke-width: 0.6"/>
      </g>
     </g>
    </g>
    <g id="ytick_12">
     <g id="line2d_30">
      <g>
       <use xlink:href="#me2c77ec744" x="108" y="257.815864" style="stroke: #000000; stroke-width: 0.6"/>
      </g>
     </g>
    </g>
    <g id="ytick_13">
     <g id="line2d_31">
      <g>
       <use xlink:href="#me2c77ec744" x="108" y="254.270994" style="stroke: #000000; stroke-width: 0.6"/>
      </g>
     </g>
    </g>
    <g id="ytick_14">
     <g id="line2d_32">
      <g>
       <use xlink:href="#me2c77ec744" x="108" y="230.238621" style="stroke: #000000; stroke-width: 0.6"/>
      </g>
     </g>
    </g>
    <g id="ytick_15">
     <g id="line2d_33">
      <g>
       <use xlink:href="#me2c77ec744" x="108" y="218.035497" style="stroke: #000000; stroke-width: 0.6"/>
      </g>
     </g>
    </g>
    <g id="ytick_16">
     <g id="line2d_34">
      <g>
       <use xlink:href="#me2c77ec744" x="108" y="209.377243" style="stroke: #000000; stroke-width: 0.6"/>
      </g>
     </g>
    </g>
    <g id="ytick_17">
     <g id="line2d_35">
      <g>
       <use xlink:href="#me2c77ec744" x="108" y="202.661379" style="stroke: #000000; stroke-width: 0.6"/>
      </g>
     </g>
    </g>
    <g id="ytick_18">
     <g id="line2d_36">
      <g>
       <use xlink:href="#me2c77ec744" x="108" y="197.174118" style="stroke: #000000; stroke-width: 0.6"/>
      </g>
     </g>
    </g>
    <g id="ytick_19">
     <g id="line2d_37">
      <g>
       <use xlink:href="#me2c77ec744" x="108" y="192.534706" style="stroke: #000000; stroke-width: 0.6"/>
      </g>
     </g>
    </g>
    <g id="ytick_20">
     <g id="line2d_38">
      <g>
       <use xlink:href="#me2c77ec744" x="108" y="188.515864" style="stroke: #000000; stroke-width: 0.6"/>
      </g>
     </g>
    </g>
    <g id="ytick_21">
     <g id="line2d_39">
      <g>
       <use xlink:href="#me2c77ec744" x="108" y="184.970994" style="stroke: #000000; stroke-width: 0.6"/>
      </g>
     </g>
    </g>
    <g id="ytick_22">
     <g id="line2d_40">
      <g>
       <use xlink:href="#me2c77ec744" x="108" y="160.938621" style="stroke: #000000; stroke-width: 0.6"/>
      </g>
     </g>
    </g>
    <g id="ytick_23">
     <g id="line2d_41">
      <g>
       <use xlink:href="#me2c77ec744" x="108" y="148.735497" style="stroke: #000000; stroke-width: 0.6"/>
      </g>
     </g>
    </g>
    <g id="ytick_24">
     <g id="line2d_42">
      <g>
       <use xlink:href="#me2c77ec744" x="108" y="140.077243" style="stroke: #000000; stroke-width: 0.6"/>
      </g>
     </g>
    </g>
    <g id="ytick_25">
     <g id="line2d_43">
      <g>
       <use xlink:href="#me2c77ec744" x="108" y="133.361379" style="stroke: #000000; stroke-width: 0.6"/>
      </g>
     </g>
    </g>
    <g id="ytick_26">
     <g id="line2d_44">
      <g>
       <use xlink:href="#me2c77ec744" x="108" y="127.874118" style="stroke: #000000; stroke-width: 0.6"/>
      </g>
     </g>
    </g>
    <g id="ytick_27">
     <g id="line2d_45">
      <g>
       <use xlink:href="#me2c77ec744" x="108" y="123.234706" style="stroke: #000000; stroke-width: 0.6"/>
      </g>
     </g>
    </g>
    <g id="ytick_28">
     <g id="line2d_46">
      <g>
       <use xlink:href="#me2c77ec744" x="108" y="119.215864" style="stroke: #000000; stroke-width: 0.6"/>
      </g>
     </g>
    </g>
    <g id="ytick_29">
     <g id="line2d_47">
      <g>
       <use xlink:href="#me2c77ec744" x="108" y="115.670994" style="stroke: #000000; stroke-width: 0.6"/>
      </g>
     </g>
    </g>
    <g id="ytick_30">
     <g id="line2d_48">
      <g>
       <use xlink:href="#me2c77ec744" x="108" y="91.638621" style="stroke: #000000; stroke-width: 0.6"/>
      </g>
     </g>
    </g>
    <g id="ytick_31">
     <g id="line2d_49">
      <g>
       <use xlink:href="#me2c77ec744" x="108" y="79.435497" style="stroke: #000000; stroke-width: 0.6"/>
      </g>
     </g>
    </g>
    <g id="ytick_32">
     <g id="line2d_50">
      <g>
       <use xlink:href="#me2c77ec744" x="108" y="70.777243" style="stroke: #000000; stroke-width: 0.6"/>
      </g>
     </g>
    </g>
    <g id="ytick_33">
     <g id="line2d_51">
      <g>
       <use xlink:href="#me2c77ec744" x="108" y="64.061379" style="stroke: #000000; stroke-width: 0.6"/>
      </g>
     </g>
    </g>
    <g id="ytick_34">
     <g id="line2d_52">
      <g>
       <use xlink:href="#me2c77ec744" x="108" y="58.574118" style="stroke: #000000; stroke-width: 0.6"/>
      </g>
     </g>
    </g>
    <g id="ytick_35">
     <g id="line2d_53">
      <g>
       <use xlink:href="#me2c77ec744" x="108" y="53.934706" style="stroke: #000000; stroke-width: 0.6"/>
      </g>
     </g>
    </g>
    <g id="ytick_36">
     <g id="line2d_54">
      <g>
       <use xlink:href="#me2c77ec744" x="108" y="49.915864" style="stroke: #000000; stroke-width: 0.6"/>
      </g>
     </g>
    </g>
    <g id="ytick_37">
     <g id="line2d_55">
      <g>
       <use xlink:href="#me2c77ec744" x="108" y="46.370994" style="stroke: #000000; stroke-width: 0.6"/>
      </g>
     </g>
    </g>
   </g>
   <g id="line2d_56">
    <path d="M 347.226155 361 
L 349.3908 349.284325 
L 360.72378 300.45534 
L 372.04839 261.492695 
L 383.38137 230.846654 
L 394.71435 207.765847 
L 406.03896 191.354295 
L 417.37194 180.331582 
L 428.70492 173.673099 
L 440.0379 170.204909 
L 451.36251 169.596876 
L 462.69549 170.825479 
L 474.02847 174.136133 
L 485.36145 178.659118 
L 496.68606 184.309504 
L 508.01904 190.984503 
L 519.35202 198.455018 
L 530.685 206.645844 
L 542.00961 215.441841 
L 553.34259 224.626219 
L 564.67557 234.429937 
L 576.00855 244.384136 
L 587.33316 254.844923 
L 598.66614 265.487256 
L 609.99912 276.430725 
L 621.3321 287.536813 
L 632.65671 298.942629 
L 643.98969 310.489074 
L 655.32267 322.230239 
L 666.65565 334.3057 
L 677.98026 346.652484 
L 689.31324 360.482848 
L 689.670218 361 
" clip-path="url(#p12c3bc3f55)" style="fill: none; stroke: #ff0000; stroke-width: 1.5; stroke-linecap: square"/>
   </g>
   <g id="line2d_57">
    <path d="M 214.202675 361 
L 224.75313 290.284375 
L 236.07774 233.577285 
L 247.41072 191.980896 
L 258.7437 163.122753 
L 270.07668 144.968511 
L 281.40129 134.278098 
L 292.73427 128.89444 
L 304.06725 127.525024 
L 315.40023 129.155018 
L 326.72484 133.121564 
L 338.05782 139.041876 
L 349.3908 146.419231 
L 360.72378 155.201595 
L 372.04839 165.129937 
L 383.38137 175.815264 
L 394.71435 187.444171 
L 406.03896 199.683622 
L 417.37194 212.464751 
L 428.70492 225.771683 
L 440.0379 239.504909 
L 451.36251 253.609504 
L 462.69549 268.229821 
L 474.02847 283.480122 
L 485.36145 300.924388 
L 496.68606 321.22378 
L 506.606848 361 
" clip-path="url(#p12c3bc3f55)" style="fill: none; stroke: #32cd32; stroke-width: 1.5; stroke-linecap: square"/>
   </g>
   <g id="line2d_58">
    <path d="M 115.924734 361 
L 122.77305 307.996898 
L 134.10603 238.696898 
L 145.43064 185.071484 
L 156.76362 147.555087 
L 168.0966 124.418556 
L 179.42958 110.746304 
L 190.75419 103.245754 
L 202.08717 100.096898 
L 213.42015 99.700884 
L 224.75313 101.735213 
L 236.07774 105.784136 
L 247.41072 111.61038 
L 258.7437 118.767767 
L 270.07668 127.228989 
L 281.40129 136.868651 
L 292.73427 147.458777 
L 304.06725 158.902326 
L 315.40023 171.246418 
L 326.72484 184.244147 
L 338.05782 198.039169 
L 349.3908 212.631955 
L 360.72378 228.343293 
L 372.04839 247.689191 
L 383.38137 276.640947 
L 383.395185 361 
" clip-path="url(#p12c3bc3f55)" style="fill: none; stroke: #0000ff; stroke-width: 1.5; stroke-linecap: square"/>
   </g>
   <g id="line2d_59">
    <path d="M 102.300759 361 
L 111.44007 342.552749 
L 122.77305 321.943754 
L 134.10603 305.328363 
L 145.43064 295.332261 
L 156.76362 291.874754 
L 168.0966 292.943385 
L 179.42958 297.643293 
L 190.75419 310.925265 
L 190.762394 361 
" clip-path="url(#p12c3bc3f55)" style="fill: none; stroke: #ff00ff; stroke-width: 1.5; stroke-linecap: square"/>
   </g>
   <g id="line2d_60"/>
   <g id="line2d_61"/>
   <g id="line2d_62"/>
   <g id="line2d_63"/>
   <g id="line2d_64">
    <path d="M 345.689677 361 
L 349.3908 340.080968 
L 360.72378 291.642347 
L 372.04839 254.004651 
L 383.38137 224.751361 
L 394.71435 203.024722 
L 406.03896 187.7727 
L 417.37194 177.59364 
L 428.70492 171.673327 
L 440.0379 168.804814 
L 451.36251 168.610013 
L 462.69549 170.204909 
L 474.02847 173.673099 
L 485.36145 178.389191 
L 496.68606 184.146378 
L 508.01904 190.90294 
L 519.35202 198.402722 
L 530.685 206.645844 
L 542.00961 215.441841 
L 553.34259 224.626219 
L 564.67557 234.429937 
L 576.00855 244.384136 
L 587.33316 254.810858 
L 598.66614 265.487256 
L 609.99912 276.430725 
L 621.3321 287.536813 
L 632.65671 298.942629 
L 643.98969 310.489074 
L 655.32267 322.230239 
L 666.65565 334.257965 
L 677.98026 346.652484 
L 689.31324 360.482848 
L 689.670218 361 
" clip-path="url(#p12c3bc3f55)" style="fill: none; stroke-dasharray: 5.55,2.4; stroke-dashoffset: 0; stroke: #ff0000; stroke-width: 1.5"/>
   </g>
   <g id="line2d_65">
    <path d="M 253.132463 361 
L 258.7437 332.49797 
L 270.07668 286.348635 
L 281.40129 246.89364 
L 292.73427 212.631955 
L 304.06725 182.592864 
L 315.40023 158.070108 
L 326.72484 142.261374 
L 338.05782 136.733689 
L 349.3908 139.407575 
L 360.72378 147.076593 
L 372.04839 157.393751 
L 383.38137 169.198239 
L 394.71435 182.072096 
L 406.03896 195.467781 
L 417.37194 209.227135 
L 428.70492 223.282943 
L 440.0379 237.716465 
L 451.36251 252.297269 
L 462.69549 267.28759 
L 474.02847 282.610217 
L 485.36145 300.767225 
L 496.68606 321.100307 
L 506.610675 361 
" clip-path="url(#p12c3bc3f55)" style="fill: none; stroke-dasharray: 5.55,2.4; stroke-dashoffset: 0; stroke: #32cd32; stroke-width: 1.5"/>
   </g>
   <g id="line2d_66">
    <path d="M 245.179652 361 
L 247.41072 322.681374 
L 258.7437 298.213862 
L 270.07668 278.527135 
L 281.40129 259.598166 
L 292.73427 241.406379 
L 304.06725 224.13079 
L 315.40023 209.985276 
L 326.72484 201.830256 
L 338.05782 201.947592 
L 349.3908 209.452578 
L 360.72378 222.111721 
L 372.04839 239.098192 
L 383.38137 273.189982 
L 383.395749 361 
" clip-path="url(#p12c3bc3f55)" style="fill: none; stroke-dasharray: 5.55,2.4; stroke-dashoffset: 0; stroke: #0000ff; stroke-width: 1.5"/>
   </g>
   <g id="line2d_67">
    <path clip-path="url(#p12c3bc3f55)" style="fill: none; stroke-dasharray: 5.55,2.4; stroke-dashoffset: 0; stroke: #ff00ff; stroke-width: 1.5"/>
   </g>
   <g id="LineCollection_1">
    <path clip-path="url(#p12c3bc3f55)" style="fill: none; stroke: #ff0000; stroke-width: 1.5"/>
    <path clip-path="url(#p12c3bc3f55)" style="fill: none; stroke: #ff0000; stroke-width: 1.5"/>
    <path clip-path="url(#p12c3bc3f55)" style="fill: none; stroke: #ff0000; stroke-width: 1.5"/>
    <path clip-path="url(#p12c3bc3f55)" style="fill: none; stroke: #ff0000; stroke-width: 1.5"/>
    <path d="M 464.562 220.796857 
L 464.562 211.215479 
" clip-path="url(#p12c3bc3f55)" style="fill: none; stroke: #ff0000; stroke-width: 1.5"/>
    <path d="M 533.196 249.631582 
L 533.196 216.567079 
" clip-path="url(#p12c3bc3f55)" style="fill: none; stroke: #ff0000; stroke-width: 1.5"/>
   </g>
   <g id="line2d_68">
    <defs>
     <path id="m8c4a75ca74" d="M 5 0 
L -5 -0 
" style="stroke: #ff0000"/>
    </defs>
    <g clip-path="url(#p12c3bc3f55)">
     <use xlink:href="#m8c4a75ca74" x="464.562" y="220.796857" style="fill: #ff0000; stroke: #ff0000"/>
     <use xlink:href="#m8c4a75ca74" x="533.196" y="249.631582" style="fill: #ff0000; stroke: #ff0000"/>
    </g>
   </g>
   <g id="line2d_69">
    <g clip-path="url(#p12c3bc3f55)">
     <use xlink:href="#m8c4a75ca74" x="464.562" y="211.215479" style="fill: #ff0000; stroke: #ff0000"/>
     <use xlink:href="#m8c4a75ca74" x="533.196" y="216.567079" style="fill: #ff0000; stroke: #ff0000"/>
    </g>
   </g>
   <g id="LineCollection_2">
    <path clip-path="url(#p12c3bc3f55)" style="fill: none; stroke: #32cd32; stroke-width: 1.5"/>
    <path clip-path="url(#p12c3bc3f55)" style="fill: none; stroke: #32cd32; stroke-width: 1.5"/>
    <path d="M 302.184 161.044144 
L 302.184 152.276605 
" clip-path="url(#p12c3bc3f55)" style="fill: none; stroke: #32cd32; stroke-width: 1.5"/>
    <path d="M 327.294 177.049007 
L 327.294 169.818397 
" clip-path="url(#p12c3bc3f55)" style="fill: none; stroke: #32cd32; stroke-width: 1.5"/>
    <path d="M 464.562 259.083681 
L 464.562 242.001063 
" clip-path="url(#p12c3bc3f55)" style="fill: none; stroke: #32cd32; stroke-width: 1.5"/>
    <path clip-path="url(#p12c3bc3f55)" style="fill: none; stroke: #32cd32; stroke-width: 1.5"/>
   </g>
   <g id="line2d_70">
    <defs>
     <path id="m514ada8d4b" d="M 5 0 
L -5 -0 
" style="stroke: #32cd32"/>
    </defs>
    <g clip-path="url(#p12c3bc3f55)">
     <use xlink:href="#m514ada8d4b" x="302.184" y="161.044144" style="fill: #32cd32; stroke: #32cd32"/>
     <use xlink:href="#m514ada8d4b" x="327.294" y="177.049007" style="fill: #32cd32; stroke: #32cd32"/>
     <use xlink:href="#m514ada8d4b" x="464.562" y="259.083681" style="fill: #32cd32; stroke: #32cd32"/>
    </g>
   </g>
   <g id="line2d_71">
    <g clip-path="url(#p12c3bc3f55)">
     <use xlink:href="#m514ada8d4b" x="302.184" y="152.276605" style="fill: #32cd32; stroke: #32cd32"/>
     <use xlink:href="#m514ada8d4b" x="327.294" y="169.818397" style="fill: #32cd32; stroke: #32cd32"/>
     <use xlink:href="#m514ada8d4b" x="464.562" y="242.001063" style="fill: #32cd32; stroke: #32cd32"/>
    </g>
   </g>
   <g id="LineCollection_3">
    <path d="M 212.625 142.220949 
L 212.625 131.636089 
" clip-path="url(#p12c3bc3f55)" style="fill: none; stroke: #0000ff; stroke-width: 1.5"/>
    <path d="M 236.898 150.758252 
L 236.898 135.384134 
" clip-path="url(#p12c3bc3f55)" style="fill: none; stroke: #0000ff; stroke-width: 1.5"/>
    <path d="M 302.184 177.410998 
L 302.184 166.132371 
" clip-path="url(#p12c3bc3f55)" style="fill: none; stroke: #0000ff; stroke-width: 1.5"/>
    <path d="M 327.294 180.91038 
L 327.294 173.217081 
" clip-path="url(#p12c3bc3f55)" style="fill: none; stroke: #0000ff; stroke-width: 1.5"/>
    <path clip-path="url(#p12c3bc3f55)" style="fill: none; stroke: #0000ff; stroke-width: 1.5"/>
    <path clip-path="url(#p12c3bc3f55)" style="fill: none; stroke: #0000ff; stroke-width: 1.5"/>
   </g>
   <g id="line2d_72">
    <defs>
     <path id="m3701407aec" d="M 5 0 
L -5 -0 
" style="stroke: #0000ff"/>
    </defs>
    <g clip-path="url(#p12c3bc3f55)">
     <use xlink:href="#m3701407aec" x="212.625" y="142.220949" style="fill: #0000ff; stroke: #0000ff"/>
     <use xlink:href="#m3701407aec" x="236.898" y="150.758252" style="fill: #0000ff; stroke: #0000ff"/>
     <use xlink:href="#m3701407aec" x="302.184" y="177.410998" style="fill: #0000ff; stroke: #0000ff"/>
     <use xlink:href="#m3701407aec" x="327.294" y="180.91038" style="fill: #0000ff; stroke: #0000ff"/>
    </g>
   </g>
   <g id="line2d_73">
    <g clip-path="url(#p12c3bc3f55)">
     <use xlink:href="#m3701407aec" x="212.625" y="131.636089" style="fill: #0000ff; stroke: #0000ff"/>
     <use xlink:href="#m3701407aec" x="236.898" y="135.384134" style="fill: #0000ff; stroke: #0000ff"/>
     <use xlink:href="#m3701407aec" x="302.184" y="166.132371" style="fill: #0000ff; stroke: #0000ff"/>
     <use xlink:href="#m3701407aec" x="327.294" y="173.217081" style="fill: #0000ff; stroke: #0000ff"/>
    </g>
   </g>
   <g id="LineCollection_4">
    <path d="M 212.625 218.952216 
L 212.625 185.887713 
" clip-path="url(#p12c3bc3f55)" style="fill: none; stroke: #ff00ff; stroke-width: 1.5"/>
    <path clip-path="url(#p12c3bc3f55)" style="fill: none; stroke: #ff00ff; stroke-width: 1.5"/>
    <path clip-path="url(#p12c3bc3f55)" style="fill: none; stroke: #ff00ff; stroke-width: 1.5"/>
    <path clip-path="url(#p12c3bc3f55)" style="fill: none; stroke: #ff00ff; stroke-width: 1.5"/>
    <path clip-path="url(#p12c3bc3f55)" style="fill: none; stroke: #ff00ff; stroke-width: 1.5"/>
    <path clip-path="url(#p12c3bc3f55)" style="fill: none; stroke: #ff00ff; stroke-width: 1.5"/>
   </g>
   <g id="line2d_74">
    <defs>
     <path id="mf136776222" d="M 5 0 
L -5 -0 
" style="stroke: #ff00ff"/>
    </defs>
    <g clip-path="url(#p12c3bc3f55)">
     <use xlink:href="#mf136776222" x="212.625" y="218.952216" style="fill: #ff00ff; stroke: #ff00ff"/>
    </g>
   </g>
   <g id="line2d_75">
    <g clip-path="url(#p12c3bc3f55)">
     <use xlink:href="#mf136776222" x="212.625" y="185.887713" style="fill: #ff00ff; stroke: #ff00ff"/>
    </g>
   </g>
   <g id="line2d_76">
    <defs>
     <path id="mb5df52a1fc" d="M 0 3.75 
C 0.994512 3.75 1.948425 3.354876 2.65165 2.65165 
C 3.354876 1.948425 3.75 0.994512 3.75 0 
C 3.75 -0.994512 3.354876 -1.948425 2.65165 -2.65165 
C 1.948425 -3.354876 0.994512 -3.75 0 -3.75 
C -0.994512 -3.75 -1.948425 -3.354876 -2.65165 -2.65165 
C -3.354876 -1.948425 -3.75 -0.994512 -3.75 0 
C -3.75 0.994512 -3.354876 1.948425 -2.65165 2.65165 
C -1.948425 3.354876 -0.994512 3.75 0 3.75 
z
" style="stroke: #ff0000"/>
    </defs>
    <g clip-path="url(#p12c3bc3f55)">
     <use xlink:href="#mb5df52a1fc" x="464.562" y="215.626483" style="fill: #ff0000; stroke: #ff0000"/>
     <use xlink:href="#mb5df52a1fc" x="533.196" y="228.770203" style="fill: #ff0000; stroke: #ff0000"/>
    </g>
   </g>
   <g id="line2d_77">
    <defs>
     <path id="m8741ab9984" d="M 0 3.75 
C 0.994512 3.75 1.948425 3.354876 2.65165 2.65165 
C 3.354876 1.948425 3.75 0.994512 3.75 0 
C 3.75 -0.994512 3.354876 -1.948425 2.65165 -2.65165 
C 1.948425 -3.354876 0.994512 -3.75 0 -3.75 
C -0.994512 -3.75 -1.948425 -3.354876 -2.65165 -2.65165 
C -3.354876 -1.948425 -3.75 -0.994512 -3.75 0 
C -3.75 0.994512 -3.354876 1.948425 -2.65165 2.65165 
C -1.948425 3.354876 -0.994512 3.75 0 3.75 
z
" style="stroke: #32cd32"/>
    </defs>
    <g clip-path="url(#p12c3bc3f55)">
     <use xlink:href="#m8741ab9984" x="302.184" y="156.342235" style="fill: #32cd32; stroke: #32cd32"/>
     <use xlink:href="#m8741ab9984" x="327.294" y="173.217081" style="fill: #32cd32; stroke: #32cd32"/>
     <use xlink:href="#m8741ab9984" x="464.562" y="249.346304" style="fill: #32cd32; stroke: #32cd32"/>
    </g>
   </g>
   <g id="line2d_78">
    <defs>
     <path id="m1a0e044e9c" d="M 0 3.75 
C 0.994512 3.75 1.948425 3.354876 2.65165 2.65165 
C 3.354876 1.948425 3.75 0.994512 3.75 0 
C 3.75 -0.994512 3.354876 -1.948425 2.65165 -2.65165 
C 1.948425 -3.354876 0.994512 -3.75 0 -3.75 
C -0.994512 -3.75 -1.948425 -3.354876 -2.65165 -2.65165 
C -3.354876 -1.948425 -3.75 -0.994512 -3.75 0 
C -3.75 0.994512 -3.354876 1.948425 -2.65165 2.65165 
C -1.948425 3.354876 -0.994512 3.75 0 3.75 
z
" style="stroke: #0000ff"/>
    </defs>
    <g clip-path="url(#p12c3bc3f55)">
     <use xlink:href="#m1a0e044e9c" x="212.625" y="136.465566" style="fill: #0000ff; stroke: #0000ff"/>
     <use xlink:href="#m1a0e044e9c" x="236.898" y="142.099998" style="fill: #0000ff; stroke: #0000ff"/>
     <use xlink:href="#m1a0e044e9c" x="302.184" y="171.246418" style="fill: #0000ff; stroke: #0000ff"/>
     <use xlink:href="#m1a0e044e9c" x="327.294" y="176.818577" style="fill: #0000ff; stroke: #0000ff"/>
    </g>
   </g>
   <g id="line2d_79">
    <defs>
     <path id="m79c3f4a655" d="M 0 3.75 
C 0.994512 3.75 1.948425 3.354876 2.65165 2.65165 
C 3.354876 1.948425 3.75 0.994512 3.75 0 
C 3.75 -0.994512 3.354876 -1.948425 2.65165 -2.65165 
C 1.948425 -3.354876 0.994512 -3.75 0 -3.75 
C -0.994512 -3.75 -1.948425 -3.354876 -2.65165 -2.65165 
C -3.354876 -1.948425 -3.75 -0.994512 -3.75 0 
C -3.75 0.994512 -3.354876 1.948425 -2.65165 2.65165 
C -1.948425 3.354876 -0.994512 3.75 0 3.75 
z
" style="stroke: #ff00ff"/>
    </defs>
    <g clip-path="url(#p12c3bc3f55)">
     <use xlink:href="#m79c3f4a655" x="212.625" y="198.090837" style="fill: #ff00ff; stroke: #ff00ff"/>
    </g>
   </g>
   <g id="patch_3">
    <path d="M 108 320.4 
L 108 43.2 
" style="fill: none; stroke: #000000; stroke-width: 0.8; stroke-linejoin: miter; stroke-linecap: square"/>
   </g>
   <g id="patch_4">
    <path d="M 777.6 320.4 
L 777.6 43.2 
" style="fill: none; stroke: #000000; stroke-width: 0.8; stroke-linejoin: miter; stroke-linecap: square"/>
   </g>
   <g id="patch_5">
    <path d="M 108 320.4 
L 777.6 320.4 
" style="fill: none; stroke: #000000; stroke-width: 0.8; stroke-linejoin: miter; stroke-linecap: square"/>
   </g>
   <g id="patch_6">
    <path d="M 108 43.2 
L 777.6 43.2 
" style="fill: none; stroke: #000000; stroke-width: 0.8; stroke-linejoin: miter; stroke-linecap: square"/>
   </g>
   <g id="text_6">
    <!-- xn -->
    <g transform="translate(114.696 59.649187)scale(0.18 -0.18)">
     <defs>
      <path id="DejaVuSans-78" d="M 3513 3500 
L 2247 1797 
L 3578 0 
L 2900 0 
L 1881 1375 
L 863 0 
L 184 0 
L 1544 1831 
L 300 3500 
L 978 3500 
L 1906 2253 
L 2834 3500 
L 3513 3500 
z
" transform="scale(0.015625)"/>
      <path id="DejaVuSans-6e" d="M 3513 2113 
L 3513 0 
L 2938 0 
L 2938 2094 
Q 2938 2591 2744 2837 
Q 2550 3084 2163 3084 
Q 1697 3084 1428 2787 
Q 1159 2491 1159 1978 
L 1159 0 
L 581 0 
L 581 3500 
L 1159 3500 
L 1159 2956 
Q 1366 3272 1645 3428 
Q 1925 3584 2291 3584 
Q 2894 3584 3203 3211 
Q 3513 2838 3513 2113 
z
" transform="scale(0.015625)"/>
     </defs>
     <use xlink:href="#DejaVuSans-78"/>
     <use xlink:href="#DejaVuSans-6e" x="59.179688"/>
    </g>
   </g>
   <g id="text_7">
    <!-- 52Cr + 147Sm $\rightarrow$ 199Rn*, BF = 0.66 $\pm$ 0.01, sigr0 = 3.0 -->
    <g transform="translate(136.296 53.616)scale(0.216 -0.216)">
     <defs>
      <path id="DejaVuSans-35" d="M 691 4666 
L 3169 4666 
L 3169 4134 
L 1269 4134 
L 1269 2991 
Q 1406 3038 1543 3061 
Q 1681 3084 1819 3084 
Q 2600 3084 3056 2656 
Q 3513 2228 3513 1497 
Q 3513 744 3044 326 
Q 2575 -91 1722 -91 
Q 1428 -91 1123 -41 
Q 819 9 494 109 
L 494 744 
Q 775 591 1075 516 
Q 1375 441 1709 441 
Q 2250 441 2565 725 
Q 2881 1009 2881 1497 
Q 2881 1984 2565 2268 
Q 2250 2553 1709 2553 
Q 1456 2553 1204 2497 
Q 953 2441 691 2322 
L 691 4666 
z
" transform="scale(0.015625)"/>
      <path id="DejaVuSans-43" d="M 4122 4306 
L 4122 3641 
Q 3803 3938 3442 4084 
Q 3081 4231 2675 4231 
Q 1875 4231 1450 3742 
Q 1025 3253 1025 2328 
Q 1025 1406 1450 917 
Q 1875 428 2675 428 
Q 3081 428 3442 575 
Q 3803 722 4122 1019 
L 4122 359 
Q 3791 134 3420 21 
Q 3050 -91 2638 -91 
Q 1578 -91 968 557 
Q 359 1206 359 2328 
Q 359 3453 968 4101 
Q 1578 4750 2638 4750 
Q 3056 4750 3426 4639 
Q 3797 4528 4122 4306 
z
" transform="scale(0.015625)"/>
      <path id="DejaVuSans-72" d="M 2631 2963 
Q 2534 3019 2420 3045 
Q 2306 3072 2169 3072 
Q 1681 3072 1420 2755 
Q 1159 2438 1159 1844 
L 1159 0 
L 581 0 
L 581 3500 
L 1159 3500 
L 1159 2956 
Q 1341 3275 1631 3429 
Q 1922 3584 2338 3584 
Q 2397 3584 2469 3576 
Q 2541 3569 2628 3553 
L 2631 2963 
z
" transform="scale(0.015625)"/>
      <path id="DejaVuSans-20" transform="scale(0.015625)"/>
      <path id="DejaVuSans-2b" d="M 2944 4013 
L 2944 2272 
L 4684 2272 
L 4684 1741 
L 2944 1741 
L 2944 0 
L 2419 0 
L 2419 1741 
L 678 1741 
L 678 2272 
L 2419 2272 
L 2419 4013 
L 2944 4013 
z
" transform="scale(0.015625)"/>
      <path id="DejaVuSans-34" d="M 2419 4116 
L 825 1625 
L 2419 1625 
L 2419 4116 
z
M 2253 4666 
L 3047 4666 
L 3047 1625 
L 3713 1625 
L 3713 1100 
L 3047 1100 
L 3047 0 
L 2419 0 
L 2419 1100 
L 313 1100 
L 313 1709 
L 2253 4666 
z
" transform="scale(0.015625)"/>
      <path id="DejaVuSans-37" d="M 525 4666 
L 3525 4666 
L 3525 4397 
L 1831 0 
L 1172 0 
L 2766 4134 
L 525 4134 
L 525 4666 
z
" transform="scale(0.015625)"/>
      <path id="DejaVuSans-53" d="M 3425 4513 
L 3425 3897 
Q 3066 4069 2747 4153 
Q 2428 4238 2131 4238 
Q 1616 4238 1336 4038 
Q 1056 3838 1056 3469 
Q 1056 3159 1242 3001 
Q 1428 2844 1947 2747 
L 2328 2669 
Q 3034 2534 3370 2195 
Q 3706 1856 3706 1288 
Q 3706 609 3251 259 
Q 2797 -91 1919 -91 
Q 1588 -91 1214 -16 
Q 841 59 441 206 
L 441 856 
Q 825 641 1194 531 
Q 1563 422 1919 422 
Q 2459 422 2753 634 
Q 3047 847 3047 1241 
Q 3047 1584 2836 1778 
Q 2625 1972 2144 2069 
L 1759 2144 
Q 1053 2284 737 2584 
Q 422 2884 422 3419 
Q 422 4038 858 4394 
Q 1294 4750 2059 4750 
Q 2388 4750 2728 4690 
Q 3069 4631 3425 4513 
z
" transform="scale(0.015625)"/>
      <path id="DejaVuSans-6d" d="M 3328 2828 
Q 3544 3216 3844 3400 
Q 4144 3584 4550 3584 
Q 5097 3584 5394 3201 
Q 5691 2819 5691 2113 
L 5691 0 
L 5113 0 
L 5113 2094 
Q 5113 2597 4934 2840 
Q 4756 3084 4391 3084 
Q 3944 3084 3684 2787 
Q 3425 2491 3425 1978 
L 3425 0 
L 2847 0 
L 2847 2094 
Q 2847 2600 2669 2842 
Q 2491 3084 2119 3084 
Q 1678 3084 1418 2786 
Q 1159 2488 1159 1978 
L 1159 0 
L 581 0 
L 581 3500 
L 1159 3500 
L 1159 2956 
Q 1356 3278 1631 3431 
Q 1906 3584 2284 3584 
Q 2666 3584 2933 3390 
Q 3200 3197 3328 2828 
z
" transform="scale(0.015625)"/>
      <path id="DejaVuSans-2192" d="M 5050 2147 
L 5050 1866 
L 3822 638 
L 3447 1013 
L 4175 1741 
L 366 1741 
L 366 2272 
L 4175 2272 
L 3447 3000 
L 3822 3375 
L 5050 2147 
z
" transform="scale(0.015625)"/>
      <path id="DejaVuSans-39" d="M 703 97 
L 703 672 
Q 941 559 1184 500 
Q 1428 441 1663 441 
Q 2288 441 2617 861 
Q 2947 1281 2994 2138 
Q 2813 1869 2534 1725 
Q 2256 1581 1919 1581 
Q 1219 1581 811 2004 
Q 403 2428 403 3163 
Q 403 3881 828 4315 
Q 1253 4750 1959 4750 
Q 2769 4750 3195 4129 
Q 3622 3509 3622 2328 
Q 3622 1225 3098 567 
Q 2575 -91 1691 -91 
Q 1453 -91 1209 -44 
Q 966 3 703 97 
z
M 1959 2075 
Q 2384 2075 2632 2365 
Q 2881 2656 2881 3163 
Q 2881 3666 2632 3958 
Q 2384 4250 1959 4250 
Q 1534 4250 1286 3958 
Q 1038 3666 1038 3163 
Q 1038 2656 1286 2365 
Q 1534 2075 1959 2075 
z
" transform="scale(0.015625)"/>
      <path id="DejaVuSans-52" d="M 2841 2188 
Q 3044 2119 3236 1894 
Q 3428 1669 3622 1275 
L 4263 0 
L 3584 0 
L 2988 1197 
Q 2756 1666 2539 1819 
Q 2322 1972 1947 1972 
L 1259 1972 
L 1259 0 
L 628 0 
L 628 4666 
L 2053 4666 
Q 2853 4666 3247 4331 
Q 3641 3997 3641 3322 
Q 3641 2881 3436 2590 
Q 3231 2300 2841 2188 
z
M 1259 4147 
L 1259 2491 
L 2053 2491 
Q 2509 2491 2742 2702 
Q 2975 2913 2975 3322 
Q 2975 3731 2742 3939 
Q 2509 4147 2053 4147 
L 1259 4147 
z
" transform="scale(0.015625)"/>
      <path id="DejaVuSans-2a" d="M 3009 3897 
L 1888 3291 
L 3009 2681 
L 2828 2375 
L 1778 3009 
L 1778 1831 
L 1422 1831 
L 1422 3009 
L 372 2375 
L 191 2681 
L 1313 3291 
L 191 3897 
L 372 4206 
L 1422 3572 
L 1422 4750 
L 1778 4750 
L 1778 3572 
L 2828 4206 
L 3009 3897 
z
" transform="scale(0.015625)"/>
      <path id="DejaVuSans-2c" d="M 750 794 
L 1409 794 
L 1409 256 
L 897 -744 
L 494 -744 
L 750 256 
L 750 794 
z
" transform="scale(0.015625)"/>
      <path id="DejaVuSans-42" d="M 1259 2228 
L 1259 519 
L 2272 519 
Q 2781 519 3026 730 
Q 3272 941 3272 1375 
Q 3272 1813 3026 2020 
Q 2781 2228 2272 2228 
L 1259 2228 
z
M 1259 4147 
L 1259 2741 
L 2194 2741 
Q 2656 2741 2882 2914 
Q 3109 3088 3109 3444 
Q 3109 3797 2882 3972 
Q 2656 4147 2194 4147 
L 1259 4147 
z
M 628 4666 
L 2241 4666 
Q 2963 4666 3353 4366 
Q 3744 4066 3744 3513 
Q 3744 3084 3544 2831 
Q 3344 2578 2956 2516 
Q 3422 2416 3680 2098 
Q 3938 1781 3938 1306 
Q 3938 681 3513 340 
Q 3088 0 2303 0 
L 628 0 
L 628 4666 
z
" transform="scale(0.015625)"/>
      <path id="DejaVuSans-46" d="M 628 4666 
L 3309 4666 
L 3309 4134 
L 1259 4134 
L 1259 2759 
L 3109 2759 
L 3109 2228 
L 1259 2228 
L 1259 0 
L 628 0 
L 628 4666 
z
" transform="scale(0.015625)"/>
      <path id="DejaVuSans-3d" d="M 678 2906 
L 4684 2906 
L 4684 2381 
L 678 2381 
L 678 2906 
z
M 678 1631 
L 4684 1631 
L 4684 1100 
L 678 1100 
L 678 1631 
z
" transform="scale(0.015625)"/>
      <path id="DejaVuSans-2e" d="M 684 794 
L 1344 794 
L 1344 0 
L 684 0 
L 684 794 
z
" transform="scale(0.015625)"/>
      <path id="DejaVuSans-36" d="M 2113 2584 
Q 1688 2584 1439 2293 
Q 1191 2003 1191 1497 
Q 1191 994 1439 701 
Q 1688 409 2113 409 
Q 2538 409 2786 701 
Q 3034 994 3034 1497 
Q 3034 2003 2786 2293 
Q 2538 2584 2113 2584 
z
M 3366 4563 
L 3366 3988 
Q 3128 4100 2886 4159 
Q 2644 4219 2406 4219 
Q 1781 4219 1451 3797 
Q 1122 3375 1075 2522 
Q 1259 2794 1537 2939 
Q 1816 3084 2150 3084 
Q 2853 3084 3261 2657 
Q 3669 2231 3669 1497 
Q 3669 778 3244 343 
Q 2819 -91 2113 -91 
Q 1303 -91 875 529 
Q 447 1150 447 2328 
Q 447 3434 972 4092 
Q 1497 4750 2381 4750 
Q 2619 4750 2861 4703 
Q 3103 4656 3366 4563 
z
" transform="scale(0.015625)"/>
      <path id="DejaVuSans-b1" d="M 2944 4013 
L 2944 2803 
L 4684 2803 
L 4684 2272 
L 2944 2272 
L 2944 1063 
L 2419 1063 
L 2419 2272 
L 678 2272 
L 678 2803 
L 2419 2803 
L 2419 4013 
L 2944 4013 
z
M 678 531 
L 4684 531 
L 4684 0 
L 678 0 
L 678 531 
z
" transform="scale(0.015625)"/>
      <path id="DejaVuSans-73" d="M 2834 3397 
L 2834 2853 
Q 2591 2978 2328 3040 
Q 2066 3103 1784 3103 
Q 1356 3103 1142 2972 
Q 928 2841 928 2578 
Q 928 2378 1081 2264 
Q 1234 2150 1697 2047 
L 1894 2003 
Q 2506 1872 2764 1633 
Q 3022 1394 3022 966 
Q 3022 478 2636 193 
Q 2250 -91 1575 -91 
Q 1294 -91 989 -36 
Q 684 19 347 128 
L 347 722 
Q 666 556 975 473 
Q 1284 391 1588 391 
Q 1994 391 2212 530 
Q 2431 669 2431 922 
Q 2431 1156 2273 1281 
Q 2116 1406 1581 1522 
L 1381 1569 
Q 847 1681 609 1914 
Q 372 2147 372 2553 
Q 372 3047 722 3315 
Q 1072 3584 1716 3584 
Q 2034 3584 2315 3537 
Q 2597 3491 2834 3397 
z
" transform="scale(0.015625)"/>
      <path id="DejaVuSans-69" d="M 603 3500 
L 1178 3500 
L 1178 0 
L 603 0 
L 603 3500 
z
M 603 4863 
L 1178 4863 
L 1178 4134 
L 603 4134 
L 603 4863 
z
" transform="scale(0.015625)"/>
      <path id="DejaVuSans-67" d="M 2906 1791 
Q 2906 2416 2648 2759 
Q 2391 3103 1925 3103 
Q 1463 3103 1205 2759 
Q 947 2416 947 1791 
Q 947 1169 1205 825 
Q 1463 481 1925 481 
Q 2391 481 2648 825 
Q 2906 1169 2906 1791 
z
M 3481 434 
Q 3481 -459 3084 -895 
Q 2688 -1331 1869 -1331 
Q 1566 -1331 1297 -1286 
Q 1028 -1241 775 -1147 
L 775 -588 
Q 1028 -725 1275 -790 
Q 1522 -856 1778 -856 
Q 2344 -856 2625 -561 
Q 2906 -266 2906 331 
L 2906 616 
Q 2728 306 2450 153 
Q 2172 0 1784 0 
Q 1141 0 747 490 
Q 353 981 353 1791 
Q 353 2603 747 3093 
Q 1141 3584 1784 3584 
Q 2172 3584 2450 3431 
Q 2728 3278 2906 2969 
L 2906 3500 
L 3481 3500 
L 3481 434 
z
" transform="scale(0.015625)"/>
      <path id="DejaVuSans-33" d="M 2597 2516 
Q 3050 2419 3304 2112 
Q 3559 1806 3559 1356 
Q 3559 666 3084 287 
Q 2609 -91 1734 -91 
Q 1441 -91 1130 -33 
Q 819 25 488 141 
L 488 750 
Q 750 597 1062 519 
Q 1375 441 1716 441 
Q 2309 441 2620 675 
Q 2931 909 2931 1356 
Q 2931 1769 2642 2001 
Q 2353 2234 1838 2234 
L 1294 2234 
L 1294 2753 
L 1863 2753 
Q 2328 2753 2575 2939 
Q 2822 3125 2822 3475 
Q 2822 3834 2567 4026 
Q 2313 4219 1838 4219 
Q 1578 4219 1281 4162 
Q 984 4106 628 3988 
L 628 4550 
Q 988 4650 1302 4700 
Q 1616 4750 1894 4750 
Q 2613 4750 3031 4423 
Q 3450 4097 3450 3541 
Q 3450 3153 3228 2886 
Q 3006 2619 2597 2516 
z
" transform="scale(0.015625)"/>
     </defs>
     <use xlink:href="#DejaVuSans-35" transform="translate(0 0.015625)"/>
     <use xlink:href="#DejaVuSans-32" transform="translate(63.623047 0.015625)"/>
     <use xlink:href="#DejaVuSans-43" transform="translate(127.246094 0.015625)"/>
     <use xlink:href="#DejaVuSans-72" transform="translate(197.070312 0.015625)"/>
     <use xlink:href="#DejaVuSans-20" transform="translate(238.183594 0.015625)"/>
     <use xlink:href="#DejaVuSans-2b" transform="translate(269.970703 0.015625)"/>
     <use xlink:href="#DejaVuSans-20" transform="translate(353.759766 0.015625)"/>
     <use xlink:href="#DejaVuSans-31" transform="translate(385.546875 0.015625)"/>
     <use xlink:href="#DejaVuSans-34" transform="translate(449.169922 0.015625)"/>
     <use xlink:href="#DejaVuSans-37" transform="translate(512.792969 0.015625)"/>
     <use xlink:href="#DejaVuSans-53" transform="translate(576.416016 0.015625)"/>
     <use xlink:href="#DejaVuSans-6d" transform="translate(639.892578 0.015625)"/>
     <use xlink:href="#DejaVuSans-20" transform="translate(737.304688 0.015625)"/>
     <use xlink:href="#DejaVuSans-2192" transform="translate(788.574219 0.015625)"/>
     <use xlink:href="#DejaVuSans-20" transform="translate(891.845703 0.015625)"/>
     <use xlink:href="#DejaVuSans-31" transform="translate(923.632812 0.015625)"/>
     <use xlink:href="#DejaVuSans-39" transform="translate(987.255859 0.015625)"/>
     <use xlink:href="#DejaVuSans-39" transform="translate(1050.878906 0.015625)"/>
     <use xlink:href="#DejaVuSans-52" transform="translate(1106.751953 0.015625)"/>
     <use xlink:href="#DejaVuSans-6e" transform="translate(1176.234375 0.015625)"/>
     <use xlink:href="#DejaVuSans-2a" transform="translate(1239.613281 0.015625)"/>
     <use xlink:href="#DejaVuSans-2c" transform="translate(1289.613281 0.015625)"/>
     <use xlink:href="#DejaVuSans-20" transform="translate(1321.400391 0.015625)"/>
     <use xlink:href="#DejaVuSans-42" transform="translate(1353.1875 0.015625)"/>
     <use xlink:href="#DejaVuSans-46" transform="translate(1421.791016 0.015625)"/>
     <use xlink:href="#DejaVuSans-20" transform="translate(1479.310547 0.015625)"/>
     <use xlink:href="#DejaVuSans-3d" transform="translate(1511.097656 0.015625)"/>
     <use xlink:href="#DejaVuSans-20" transform="translate(1594.886719 0.015625)"/>
     <use xlink:href="#DejaVuSans-30" transform="translate(1626.673828 0.015625)"/>
     <use xlink:href="#DejaVuSans-2e" transform="translate(1690.296875 0.015625)"/>
     <use xlink:href="#DejaVuSans-36" transform="translate(1722.083984 0.015625)"/>
     <use xlink:href="#DejaVuSans-36" transform="translate(1785.707031 0.015625)"/>
     <use xlink:href="#DejaVuSans-20" transform="translate(1849.330078 0.015625)"/>
     <use xlink:href="#DejaVuSans-b1" transform="translate(1881.117188 0.015625)"/>
     <use xlink:href="#DejaVuSans-20" transform="translate(1964.90625 0.015625)"/>
     <use xlink:href="#DejaVuSans-30" transform="translate(1996.693359 0.015625)"/>
     <use xlink:href="#DejaVuSans-2e" transform="translate(2060.316406 0.015625)"/>
     <use xlink:href="#DejaVuSans-30" transform="translate(2092.103516 0.015625)"/>
     <use xlink:href="#DejaVuSans-31" transform="translate(2155.726562 0.015625)"/>
     <use xlink:href="#DejaVuSans-2c" transform="translate(2219.349609 0.015625)"/>
     <use xlink:href="#DejaVuSans-20" transform="translate(2251.136719 0.015625)"/>
     <use xlink:href="#DejaVuSans-73" transform="translate(2282.923828 0.015625)"/>
     <use xlink:href="#DejaVuSans-69" transform="translate(2335.023438 0.015625)"/>
     <use xlink:href="#DejaVuSans-67" transform="translate(2362.806641 0.015625)"/>
     <use xlink:href="#DejaVuSans-72" transform="translate(2426.283203 0.015625)"/>
     <use xlink:href="#DejaVuSans-30" transform="translate(2467.396484 0.015625)"/>
     <use xlink:href="#DejaVuSans-20" transform="translate(2531.019531 0.015625)"/>
     <use xlink:href="#DejaVuSans-3d" transform="translate(2562.806641 0.015625)"/>
     <use xlink:href="#DejaVuSans-20" transform="translate(2646.595703 0.015625)"/>
     <use xlink:href="#DejaVuSans-33" transform="translate(2678.382812 0.015625)"/>
     <use xlink:href="#DejaVuSans-2e" transform="translate(2742.005859 0.015625)"/>
     <use xlink:href="#DejaVuSans-30" transform="translate(2773.792969 0.015625)"/>
    </g>
   </g>
   <g id="legend_1">
    <g id="patch_7">
     <path d="M 649.127813 163.2825 
L 765 163.2825 
Q 768.6 163.2825 768.6 159.6825 
L 768.6 55.8 
Q 768.6 52.2 765 52.2 
L 649.127813 52.2 
Q 645.527812 52.2 645.527812 55.8 
L 645.527812 159.6825 
Q 645.527812 163.2825 649.127813 163.2825 
z
" style="fill: #ffffff; opacity: 0.8; stroke: #cccccc; stroke-linejoin: miter"/>
    </g>
    <g id="line2d_80">
     <path d="M 652.727813 66.777187 
L 670.727813 66.777187 
L 688.727813 66.777187 
" style="fill: none; stroke: #ff0000; stroke-width: 1.5; stroke-linecap: square"/>
    </g>
    <g id="text_8">
     <!-- 195Rn -->
     <g transform="translate(703.127813 73.077187)scale(0.18 -0.18)">
      <use xlink:href="#DejaVuSans-31"/>
      <use xlink:href="#DejaVuSans-39" x="63.623047"/>
      <use xlink:href="#DejaVuSans-35" x="127.246094"/>
      <use xlink:href="#DejaVuSans-52" x="190.869141"/>
      <use xlink:href="#DejaVuSans-6e" x="260.351562"/>
     </g>
    </g>
    <g id="line2d_81">
     <path d="M 652.727813 93.197812 
L 670.727813 93.197812 
L 688.727813 93.197812 
" style="fill: none; stroke: #32cd32; stroke-width: 1.5; stroke-linecap: square"/>
    </g>
    <g id="text_9">
     <!-- 196Rn -->
     <g transform="translate(703.127813 99.497812)scale(0.18 -0.18)">
      <use xlink:href="#DejaVuSans-31"/>
      <use xlink:href="#DejaVuSans-39" x="63.623047"/>
      <use xlink:href="#DejaVuSans-36" x="127.246094"/>
      <use xlink:href="#DejaVuSans-52" x="190.869141"/>
      <use xlink:href="#DejaVuSans-6e" x="260.351562"/>
     </g>
    </g>
    <g id="line2d_82">
     <path d="M 652.727813 119.618437 
L 670.727813 119.618437 
L 688.727813 119.618437 
" style="fill: none; stroke: #0000ff; stroke-width: 1.5; stroke-linecap: square"/>
    </g>
    <g id="text_10">
     <!-- 197Rn -->
     <g transform="translate(703.127813 125.918437)scale(0.18 -0.18)">
      <use xlink:href="#DejaVuSans-31"/>
      <use xlink:href="#DejaVuSans-39" x="63.623047"/>
      <use xlink:href="#DejaVuSans-37" x="127.246094"/>
      <use xlink:href="#DejaVuSans-52" x="190.869141"/>
      <use xlink:href="#DejaVuSans-6e" x="260.351562"/>
     </g>
    </g>
    <g id="line2d_83">
     <path d="M 652.727813 146.039062 
L 670.727813 146.039062 
L 688.727813 146.039062 
" style="fill: none; stroke: #ff00ff; stroke-width: 1.5; stroke-linecap: square"/>
    </g>
    <g id="text_11">
     <!-- 198Rn -->
     <g transform="translate(703.127813 152.339062)scale(0.18 -0.18)">
      <defs>
       <path id="DejaVuSans-38" d="M 2034 2216 
Q 1584 2216 1326 1975 
Q 1069 1734 1069 1313 
Q 1069 891 1326 650 
Q 1584 409 2034 409 
Q 2484 409 2743 651 
Q 3003 894 3003 1313 
Q 3003 1734 2745 1975 
Q 2488 2216 2034 2216 
z
M 1403 2484 
Q 997 2584 770 2862 
Q 544 3141 544 3541 
Q 544 4100 942 4425 
Q 1341 4750 2034 4750 
Q 2731 4750 3128 4425 
Q 3525 4100 3525 3541 
Q 3525 3141 3298 2862 
Q 3072 2584 2669 2484 
Q 3125 2378 3379 2068 
Q 3634 1759 3634 1313 
Q 3634 634 3220 271 
Q 2806 -91 2034 -91 
Q 1263 -91 848 271 
Q 434 634 434 1313 
Q 434 1759 690 2068 
Q 947 2378 1403 2484 
z
M 1172 3481 
Q 1172 3119 1398 2916 
Q 1625 2713 2034 2713 
Q 2441 2713 2670 2916 
Q 2900 3119 2900 3481 
Q 2900 3844 2670 4047 
Q 2441 4250 2034 4250 
Q 1625 4250 1398 4047 
Q 1172 3844 1172 3481 
z
" transform="scale(0.015625)"/>
      </defs>
      <use xlink:href="#DejaVuSans-31"/>
      <use xlink:href="#DejaVuSans-39" x="63.623047"/>
      <use xlink:href="#DejaVuSans-38" x="127.246094"/>
      <use xlink:href="#DejaVuSans-52" x="190.869141"/>
      <use xlink:href="#DejaVuSans-6e" x="260.351562"/>
     </g>
    </g>
   </g>
  </g>
 </g>
 <defs>
  <clipPath id="p12c3bc3f55">
   <rect x="108" y="43.2" width="669.6" height="277.2"/>
  </clipPath>
 </defs>
</svg>
